<svg width="48" height="48" viewBox="0 0 48 48" fill="none" xmlns="http://www.w3.org/2000/svg">
<path d="M7 32C10 37 15 40 20 41C25 42 30.8085 41.1437 35 38C41 33.5 43 26 43 21C43 16 41 10.5 40 9C39 7.5 37 7 37 7" stroke="black" stroke-width="4" stroke-linecap="round" stroke-linejoin="round"/>
<path d="M21.0004 13.0001C16.6455 14.6048 12.0003 13.0001 8.0004 16.0001C3.30376 19.5227 2.00008 25.0001 5.00039 30.0001C7.35232 33.9196 10.9999 36.0001 16.9999 36.0001C22.9999 36.0001 26.7645 34.2355 31 30.0001C37 24.0001 38.9999 14.5001 38.9999 11.0001C38.9999 7.50011 36.5003 5.5001 33 6.0001C29.4996 6.5001 26.5728 10.9468 21.0004 13.0001Z" stroke="black" stroke-width="4" stroke-linecap="round" stroke-linejoin="round"/>
<path d="M21.9455 20.1174C20.7225 20.5976 19.418 20.1174 18.2947 21.0152C16.9758 22.0693 16.6097 23.7083 17.4522 25.2045C18.1127 26.3774 19.1371 27 20.822 27C22.507 27 23.5642 26.472 24.7536 25.2045C26.4386 23.4091 27.0002 20.5663 27.0002 19.519C27.0002 18.4716 26.2983 17.8731 25.3153 18.0228C24.3323 18.1724 23.5104 19.503 21.9455 20.1174Z" stroke="black" stroke-width="4" stroke-linecap="round" stroke-linejoin="round"/>
</svg>
