<svg width="48" height="48" viewBox="0 0 48 48" fill="none" xmlns="http://www.w3.org/2000/svg">
<path d="M43.5234 17.3147C43.5233 13.072 39.9878 13.072 37.513 10.5972C35.0381 8.1223 35.038 4.58669 30.7954 4.58674C27.967 4.58672 25.4921 7.7687 25.4922 9.89005C25.4922 12.0114 26.1993 13.4256 27.6135 14.8398L14.8855 27.5677C13.4714 26.1536 12.0571 25.4464 9.9358 25.4464C7.81451 25.4464 4.63244 27.9212 4.63249 30.7497C4.27889 35.3458 8.52165 35.3459 10.6429 37.4672C12.7642 39.5885 12.7642 43.8311 17.3604 43.4776C20.1888 43.4776 22.6638 40.2957 22.6637 38.1743C22.6637 36.0529 21.9567 34.6388 20.5424 33.2246L33.2703 20.4966C34.6845 21.9109 36.0988 22.618 38.2201 22.618C40.3414 22.618 43.5234 20.143 43.5234 17.3147Z" stroke="black" stroke-width="4" stroke-linejoin="round"/>
</svg>
