<svg width="48" height="48" viewBox="0 0 48 48" fill="none" xmlns="http://www.w3.org/2000/svg">
<path d="M35.9787 15.5C35.4537 15.0196 34.881 14.5923 34.2689 14.225L32.8035 13.3458C31.4443 12.5303 29.9498 11.9653 28.391 11.6776L27.8674 11.581C25.047 11.0606 22.3298 10.0963 19.8161 8.72645C19.5861 7.71046 18.7943 6.86479 17.7108 6.61859C16.2073 6.27696 14.7116 7.21882 14.3699 8.72229C14.0283 10.2258 14.9702 11.7215 16.4736 12.0631C16.5996 12.0917 16.7256 12.1114 16.8508 12.1224C18.5057 13.741 19.9053 15.6037 21.0001 17.647" stroke="black" stroke-width="4" stroke-linecap="round" stroke-linejoin="round"/>
<path d="M11.3067 25.0192C11.0447 25.3012 8 28.6506 8 32C8 35.5 9.55844 37 11 38C12.4416 39 14.7208 40 16.6104 40C18.5 40 28.5 41 33 40C37.5 39 38 38 40 36C41.0815 34.9185 41.882 33.3983 42.3892 32.2301C42.8802 31.0991 43.2654 29.9245 43.5649 28.7284C43.9246 27.2922 44.2883 25.2299 44 23.5C43.5 20.5 42 18.5 37 16C32.3958 13.6979 28.3532 14.7876 27.7421 14.9745C27.6868 14.9914 27.6352 15.0095 27.5806 15.0287C26.7806 15.3116 20.3163 17.6254 17.5714 19.5C14.7687 21.414 11.6092 24.7019 11.3428 24.981C11.3293 24.9951 11.3201 25.0048 11.3067 25.0192Z" stroke="black" stroke-width="4" stroke-linecap="round" stroke-linejoin="round"/>
<path d="M6.10263 20.0098C5.97741 19.9988 5.85146 19.9792 5.72546 19.9506C4.222 19.6089 3.28014 18.1132 3.62176 16.6097C3.96338 15.1063 5.45912 14.1644 6.96259 14.506C8.04613 14.7522 8.83798 15.5979 9.0679 16.6139C11.5816 17.9838 14.2989 18.948 17.1192 19.4684L17.6428 19.5651C19.2016 19.8527 20.6961 20.4177 22.0553 21.2333L23.5207 22.1125C24.5005 22.7004 25.3793 23.4421 26.1234 24.3092L26.5288 24.7816C27.7526 26.2078 28.3101 28.0882 28.0613 29.9509L28.0331 30.1626C27.8636 31.4317 27.2894 32.6123 26.3957 33.5292L25.9345 34.0023C24.4094 35.567 22.2148 36.2858 20.0595 35.9266C18.3925 35.6488 16.8493 34.8712 15.6342 33.6967L14.8952 32.9824C14.301 32.4081 13.7859 31.7573 13.3634 31.0471L11.1909 27.3952L10.5574 26.1252C9.42238 23.8494 7.91571 21.7831 6.10263 20.0098Z" stroke="black" stroke-width="4" stroke-linecap="round" stroke-linejoin="round"/>
</svg>
