<svg width="48" height="48" viewBox="0 0 48 48" fill="none" xmlns="http://www.w3.org/2000/svg">
<g clip-path="url(#clip0_27_130562)">
<path d="M6.99951 28.9999C6.99951 28.9999 6.95589 32.7475 8.45589 37.2475C9.32814 39.8642 10.3695 41.4665 11.6782 42.2511C13.3553 43.2564 15.0752 41.2715 16.0574 39.5807C17.0197 37.9244 18.433 36.2276 19.5474 34.9999" stroke="black" stroke-width="4" stroke-linecap="round" stroke-linejoin="round"/>
<path d="M32.9998 7.91187C35.6225 8.35088 38.5311 8.91703 39.6254 9.41907C41.0512 10.0732 42.4854 11.406 43.0568 12.8306C43.5879 14.1546 42.2097 15.1706 40.9636 15.865C39.5589 16.6477 38.0948 17.8747 36.8983 19.0001" stroke="black" stroke-width="4" stroke-linecap="round" stroke-linejoin="round"/>
<path d="M24.202 29.776L21.7 31.5137C21.2425 31.8314 20.8836 32.2714 20.6641 32.7834V32.7834C20.0202 34.286 18.2833 34.9859 16.7775 34.3497L8.80291 30.9804C7.33055 30.3583 6.61781 28.6798 7.1927 27.1884L7.64329 26.0194C8.52306 23.7371 10.1313 21.8087 12.2187 20.5335V20.5335" stroke="black" stroke-width="4" stroke-linecap="round" stroke-linejoin="round"/>
<path d="M30.7198 24.5081L32.1099 23.0041L33.022 22.0172C33.3371 21.6763 33.7205 21.4056 34.1472 21.2227V21.2227C35.7509 20.5354 36.5441 18.7199 35.9588 17.0762L33.1066 9.06622C32.6309 7.73031 31.2308 6.96176 29.8484 7.27771L28.6297 7.55624C25.975 8.16296 23.6476 9.7502 22.1136 12.0001V12.0001" stroke="black" stroke-width="4" stroke-linecap="round" stroke-linejoin="round"/>
<path d="M13.4102 23.0787C11.7738 21.9099 11.3303 19.6657 12.3927 17.9583V17.9583C13.9422 15.4682 16.0511 13.3642 18.5466 11.8235V11.8235C20.2191 10.7908 22.4032 11.2042 23.5826 12.7768L29.5146 20.6861C30.8729 22.4972 30.4588 25.0738 28.6012 26.368L28.3611 26.5353C28.0602 26.7449 27.7896 26.995 27.5568 27.2784L26.8733 28.1106C25.5375 29.7369 23.1699 30.0499 21.4573 28.8267L13.4102 23.0787Z" stroke="black" stroke-width="4"/>
</g>
<defs>
<clipPath id="clip0_27_130562">
<rect width="48" height="48" fill="white"/>
</clipPath>
</defs>
</svg>
