<svg width="48" height="48" viewBox="0 0 48 48" fill="none" xmlns="http://www.w3.org/2000/svg">
<path d="M34.9998 18L31.119 30.6124C31.0395 30.8708 30.9645 31.1262 30.8717 31.3801C30.3237 32.8784 27.8823 38.4193 21.0004 41C13.0004 44 4.99916 40 4.99976 32.0769C5.00035 24.1538 12.9998 25 16.9998 22C20.9998 19 24.9998 13 24.9998 13" stroke="black" stroke-width="4"/>
<path d="M39.2539 24.4875C39.2539 24.4875 40.371 19.1754 40.0004 16C39.4953 11.6725 37.5004 8.49997 34.9996 6.99999C32.4989 5.5 27.2525 4.49997 22.9998 7C18.7471 9.50004 16.967 12.8452 16.967 12.8452L25.1738 12.0773C25.653 12.0325 26.0962 12.3354 26.2284 12.7982L27.7256 18.0384C27.8774 18.5695 28.4309 18.877 28.9619 18.7252L34.2438 17.216C34.6874 17.0892 35.1601 17.2824 35.388 17.6835L39.2539 24.4875Z" stroke="black" stroke-width="4" stroke-linecap="round" stroke-linejoin="round"/>
<path d="M36 8L42 6" stroke="black" stroke-width="4" stroke-linecap="round" stroke-linejoin="round"/>
</svg>
