<svg width="48" height="48" viewBox="0 0 48 48" fill="none" xmlns="http://www.w3.org/2000/svg">
<g clip-path="url(#clip0_27_130602)">
<path d="M15.3812 32.844C9.72388 31.4294 0.531804 34.9652 9.72401 38.5006C13.2599 47.6933 16.7951 38.5006 15.3812 32.844Z" stroke="black" stroke-width="4" stroke-linecap="round" stroke-linejoin="round"/>
<path d="M22.4827 10.2472C17.5793 10.2342 11.2507 11.7841 10.4537 13.9751C9.8759 15.5635 12.8784 17.6764 16.704 18.793" stroke="black" stroke-width="4" stroke-linecap="round" stroke-linejoin="round"/>
<path d="M37.978 25.7423C37.9911 30.6457 36.4411 36.9742 34.2501 37.7713C32.6618 38.3491 30.5488 35.3466 29.4322 31.521" stroke="black" stroke-width="4" stroke-linecap="round" stroke-linejoin="round"/>
<path d="M37.9997 25.7649C44.6628 19.7001 40.1253 8.09144 40.1253 8.09144C40.1253 8.09144 28.1083 4.55978 22.4515 10.2166C16.7946 15.8735 15.3804 32.8441 15.3804 32.8441C15.3804 32.8441 31.3365 31.8296 37.9997 25.7649Z" stroke="black" stroke-width="4" stroke-linecap="round" stroke-linejoin="round"/>
<path d="M38.0079 25.7729C38.0079 25.7729 31.2904 24.7122 27.4013 20.8232C23.5122 16.9341 22.4515 10.2166 22.4515 10.2166" stroke="black" stroke-width="4" stroke-linecap="round" stroke-linejoin="round"/>
<circle cx="33.766" cy="14.4593" r="2" transform="rotate(45 33.766 14.4593)" fill="black"/>
<path d="M41 20.9447C40.4592 22.7043 39.5216 24.3792 37.9994 25.7647C36.352 27.2642 34.1365 28.4549 31.7345 29.3979" stroke="black" stroke-width="4" stroke-linecap="round" stroke-linejoin="round"/>
<path d="M27 7.65617C25.3025 8.14429 23.7174 8.95015 22.4511 10.2165C21.2664 11.4012 20.2677 13.0823 19.4291 14.9998" stroke="black" stroke-width="4" stroke-linecap="round" stroke-linejoin="round"/>
</g>
<defs>
<clipPath id="clip0_27_130602">
<rect width="48" height="48" fill="white"/>
</clipPath>
</defs>
</svg>
