<svg width="48" height="48" viewBox="0 0 48 48" fill="none" xmlns="http://www.w3.org/2000/svg">
<path d="M27 21C27 29 30.0001 27 31 32C32.0246 37.1233 27.738 42 22.4997 42C17.2614 42 12.9994 37.2248 13 32C13 27.3906 15.4999 24.5 18 23C20.5001 21.5 23.0001 20 23.0001 16" stroke="black" stroke-width="4" stroke-linecap="round" stroke-linejoin="round"/>
<path d="M33 23C34 23 38.5 25 39 30C39.4523 34.5231 36.5 41.5 24 42" stroke="black" stroke-width="4" stroke-linecap="round"/>
<path d="M16.0009 40C8.15374 40 4.00219 35.2968 4.00085 30C4.00085 24.2947 12.0009 19 14.0009 18C16.0009 17 17.0009 15.0477 17.0009 13V9C17.0009 7.61973 17.6206 7 19.0009 7H28.0009C29.1414 7 30.0009 8 30.0009 9V12C30.0009 14.051 31.2701 15.6727 33.0882 16.5785C33.8477 16.9576 34.6493 17.32 35.4683 17.655C38.7788 19.0093 44.0009 21.1459 44.0009 27C44.0009 31.881 40.5979 36 38.0009 36" stroke="black" stroke-width="4" stroke-linecap="round"/>
</svg>
