<svg width="48" height="48" viewBox="0 0 48 48" fill="none" xmlns="http://www.w3.org/2000/svg">
<path fill-rule="evenodd" clip-rule="evenodd" d="M24 43.9998C34.2524 43.9998 40 37.0455 40 25.9998C40 14.9541 31.1316 3.99976 24 3.99976C16.8684 3.99976 8 14.9541 8 25.9998C8 37.0455 13.7476 43.9998 24 43.9998Z" stroke="black" stroke-width="4"/>
<path d="M21 37.9998C22.6569 37.9998 24 36.6566 24 34.9998C24 33.3429 22.6569 31.9998 21 31.9998C19.3431 31.9998 18 33.3429 18 34.9998C18 36.6566 19.3431 37.9998 21 37.9998Z" fill="black"/>
<path fill-rule="evenodd" clip-rule="evenodd" d="M16 29.6672C17.1046 29.6672 18 28.7718 18 27.6672C18 26.5627 17.1046 25.6672 16 25.6672C14.8954 25.6672 14 26.5627 14 27.6672C14 28.7718 14.8954 29.6672 16 29.6672Z" fill="black"/>
</svg>
