<svg width="48" height="48" viewBox="0 0 48 48" fill="none" xmlns="http://www.w3.org/2000/svg">
<path d="M38.9998 15C41.1828 15.5549 42.9998 16.5 42.9998 19C42.9998 21.5 39.9998 22 37.9998 22" stroke="black" stroke-width="4" stroke-linecap="round" stroke-linejoin="round"/>
<path d="M25.9999 10C25.9999 7 27.7486 5 29.9999 5C31.9999 5 33.0479 5.61995 33.9999 8" stroke="black" stroke-width="4" stroke-linecap="round" stroke-linejoin="round"/>
<path d="M30.9994 11.9999C30.9994 11.9999 31.9505 9.86821 33.1221 9.08969C34.992 7.84723 37.4994 7.71826 38.8708 9.08969C40.4627 10.6815 40.4627 13.2466 38.8708 14.8384C37.279 16.4302 35.9965 16.9999 35.9965 16.9999" stroke="black" stroke-width="4" stroke-linecap="round" stroke-linejoin="round"/>
<path d="M10.0005 14.0001C4.91574 19.0848 3.58253 26.9137 6.58879 33.1036C6.58879 33.1036 5.00046 41.0001 6.00046 42.0001C7.00046 43.0001 14.8617 41.4083 14.8617 41.4083C17.072 42.468 19.4143 43.0001 21.802 43.0001C26.1357 43.0001 30.7713 41.1474 34.0005 38.0001C37.1841 34.8165 38.607 30.7022 38.607 26.236C38.607 21.7289 37 18.0001 33.6542 14.5248C30.3085 11.0495 26.4001 9.31274 21.8884 9.31274C17.3813 9.31274 13.1841 10.8165 10.0005 14.0001Z" stroke="black" stroke-width="4" stroke-linecap="round" stroke-linejoin="round"/>
<path d="M4.99963 28C4.99963 28 9.99963 27 11.9996 31" stroke="black" stroke-width="4" stroke-linecap="round" stroke-linejoin="round"/>
<path d="M17.9996 42C17.9996 42 18.9996 38 16.9996 36" stroke="black" stroke-width="4" stroke-linecap="round" stroke-linejoin="round"/>
<path d="M21.8023 43C19.4145 43 17.0723 42.4679 14.8619 41.4082" stroke="black" stroke-width="4" stroke-linecap="round" stroke-linejoin="round"/>
<path d="M6.58891 33.1034C3.58265 26.9136 4.91586 19.0847 10.0006 14" stroke="black" stroke-width="4" stroke-linecap="round" stroke-linejoin="round"/>
</svg>
