<svg width="48" height="48" viewBox="0 0 48 48" fill="none" xmlns="http://www.w3.org/2000/svg">
<g clip-path="url(#clip0_27_130572)">
<path d="M17.799 40.1421C17.799 40.1421 21.9584 44.3015 26.4506 43.1369C30.9428 41.9722 42.2565 30.6585 43.4212 26.1663C44.5858 21.6741 40.4264 17.5147 40.4264 17.5147" stroke="black" stroke-width="4" stroke-linecap="round" stroke-linejoin="round"/>
<path d="M7.89954 30.2427C7.89954 30.2427 3.74008 26.0832 4.90473 21.591C6.06938 17.0988 17.3831 5.7851 21.8753 4.62045C26.3675 3.4558 30.527 7.61526 30.527 7.61526" stroke="black" stroke-width="4" stroke-linecap="round" stroke-linejoin="round"/>
<rect x="5.07104" y="33.071" width="40" height="14" rx="7" transform="rotate(-45 5.07104 33.071)" stroke="black" stroke-width="4" stroke-linecap="round" stroke-linejoin="round"/>
<path d="M15.6776 33.7782L16.2404 32.09C16.782 30.4652 17.9925 29.1496 19.5667 28.4749L19.9863 28.2951C21.2936 27.7348 22.2989 26.6423 22.7487 25.2929V25.2929C23.1985 23.9436 24.2038 22.8511 25.5111 22.2908L26.4606 21.8839C27.6977 21.3537 28.6491 20.3197 29.0747 19.0428V19.0428C29.5437 17.6358 30.6479 16.5316 32.0549 16.0626L34.0624 15.3935" stroke="black" stroke-width="4" stroke-linecap="round" stroke-linejoin="round"/>
</g>
<defs>
<clipPath id="clip0_27_130572">
<rect width="48" height="48" fill="white"/>
</clipPath>
</defs>
</svg>
