<svg width="48" height="48" viewBox="0 0 48 48" fill="none" xmlns="http://www.w3.org/2000/svg">
<g clip-path="url(#clip0_8684_5337)">
<path d="M20.0004 23.9999C20.0004 23.9999 22.4999 19.4999 22.9999 14.9999C23.4999 10.4999 22 6.99993 22 6.99993L27.0003 3.99992C27.0003 3.99992 27.9995 9.99993 27.9995 12.9999" stroke="black" stroke-width="4" stroke-linecap="round" stroke-linejoin="round"/>
<path d="M5.99981 42.9999C3.99938 41.4999 4.00111 36.0894 8.00035 32.9999C11.9996 29.9104 12.1857 30.7172 16.9999 26.9999C21.814 23.2826 33.9999 3.99991 33.9999 3.99991L38.5 7.49992L26.3103 23.7401C23.3256 27.7165 22.5515 33.0528 20.0507 37.3501C18.101 40.7002 15.9998 41.9999 13.9998 42.9999C11.9998 43.9999 8.00025 44.4999 5.99981 42.9999Z" stroke="black" stroke-width="4" stroke-linecap="round" stroke-linejoin="round"/>
<path d="M23.0002 30C23.0002 30 26 28 30 26C33.9999 24 43.0002 24 43.0002 24L40.0002 17C40.0002 17 31.9997 17 29.0002 20" stroke="black" stroke-width="4" stroke-linecap="round" stroke-linejoin="round"/>
</g>
<defs>
<clipPath id="clip0_8684_5337">
<rect width="48" height="48" fill="white"/>
</clipPath>
</defs>
</svg>
