<svg width="48" height="48" viewBox="0 0 48 48" fill="none" xmlns="http://www.w3.org/2000/svg">
<path d="M23.0009 13C15.7007 13 9.54247 18.0701 7.6217 25H38.3801C36.4594 18.0701 30.3011 13 23.0009 13Z" stroke="black" stroke-width="4" stroke-linecap="round" stroke-linejoin="round"/>
<path d="M7.00085 29.5926C7.00085 34.0112 8.66636 38.0265 11.3819 41H34.6199C37.3354 38.0265 39.0009 34.0112 39.0009 29.5926C39.0009 27.9993 38.7843 26.4585 38.3801 25H7.62165C7.2174 26.4585 7.00085 27.9993 7.00085 29.5926Z" stroke="black" stroke-width="4" stroke-linecap="round" stroke-linejoin="round"/>
<path d="M26.9999 13V11C26.9999 8.79086 25.209 7 22.9999 7V7C20.7907 7 18.9999 8.79086 18.9999 11V13" stroke="black" stroke-width="4" stroke-linecap="round" stroke-linejoin="round"/>
<path d="M7.00048 27.9999C7.00048 27.9999 5.01509 27.8685 3.99994 25.4999C2.49988 21.9999 5.0001 19.9998 6.00013 16.9999C6.76092 14.7176 5.20676 13.014 4.41964 12.3296C4.16741 12.1103 4.00041 11.7992 4.00032 11.4649L4.00016 10.8473C4.00003 10.3583 4.35385 9.94412 4.84246 9.92617C5.87813 9.88814 7.6626 9.9969 9.00017 10.9999C11.0005 12.4999 12.0005 16.9999 12.0005 16.9999" stroke="black" stroke-width="4" stroke-linecap="round" stroke-linejoin="round"/>
<path d="M8.99988 41L36.9999 41" stroke="black" stroke-width="4" stroke-linecap="round" stroke-linejoin="round"/>
<path d="M38.9998 25C41.7613 25 43.9999 22.7614 43.9999 20C43.9999 17.2386 41.7613 15 38.9998 15C36.9495 15 35.1875 16.2341 34.4159 18" stroke="black" stroke-width="4" stroke-linecap="round" stroke-linejoin="round"/>
</svg>
