<svg width="48" height="48" viewBox="0 0 48 48" fill="none" xmlns="http://www.w3.org/2000/svg">
<path d="M31.9996 7.90249C33.4996 7.5 35.3288 7.61106 36.439 7.90249C38.9411 8.56028 40.7646 9.68991 41.8554 11.2615C43.1182 13.0795 43.3368 15.3991 42.5076 18.1559C40.809 23.7957 33.9076 27.296 33.4996 27.5" stroke="black" stroke-width="4" stroke-linecap="round" stroke-linejoin="round"/>
<path d="M27.2466 41.2702C27.7614 41.368 28.2846 41.4194 28.8085 41.4214C30.2781 41.4214 31.5437 41.0058 32.5658 40.187C33.6781 39.3023 34.4995 38 34.832 36.2784C35.1645 34.5569 34.6794 32.943 34.152 31.3686C33.7794 30.2501 33.5342 28.5637 33.4995 27.5" stroke="black" stroke-width="4" stroke-linecap="round" stroke-linejoin="round"/>
<path d="M13 26.5001C13 26.5001 7.19013 23.7937 5.49291 18.156C4.66304 15.3999 4.88161 13.0817 6.14446 11.2616C7.23662 9.69072 9.05804 8.56109 11.5601 7.9026C12.671 7.61117 13.7341 7.46338 14.7221 7.46338" stroke="black" stroke-width="4" stroke-linecap="round" stroke-linejoin="round"/>
<path d="M13.5 27C14 28 13.5675 29.7963 13.0402 31.3721C12.5128 32.9479 11.9688 34.5743 12.3595 36.2812C12.7501 37.9882 13.5127 39.3045 14.6236 40.1898C15.6485 41.0079 16.53 41.5 18.0003 41.5C18.5235 41.4979 20.0003 41 20.0003 41" stroke="black" stroke-width="4" stroke-linecap="round" stroke-linejoin="round"/>
<path d="M23.5 4C28.7466 4 33 6.64313 33 14.375C33 22.1076 23.5 32 23.5 32C23.5 32 14 22.1069 14 14.375C14 6.64241 18.2528 4 23.5 4Z" stroke="black" stroke-width="4" stroke-linecap="round" stroke-linejoin="round"/>
<path d="M23.9992 42.229C21.9894 42.2292 20.2807 41.5671 19.131 40.5596C17.8029 39.3925 17.1271 37.7334 17.1271 35.6268C17.1271 33.8706 18.0763 32.4059 18.9943 30.9876C19.6458 29.9801 20.5486 27.9977 20.5486 27.9977C20.5486 27.9977 21.023 26.3606 20.9448 25.2978C20.8001 23.3332 18.893 21.8541 18.5835 20.8404C18.2081 19.5796 18.2997 18.8122 18.868 18.4278C19.0429 18.3077 19.7131 18.2675 19.7131 18.2675C19.7131 18.2675 19.5869 16.4218 19.666 15.8133C19.761 15.0833 20.1421 14.0415 21.0378 13.9648C21.6578 13.9116 22.148 14.0043 22.4657 14.6718C22.5684 14.8876 22.6392 15.1492 22.7384 15.5107C23.0396 16.6424 23.5211 17.9663 23.995 19.0425C24.4697 17.9691 24.9519 16.6452 25.2551 15.5114C25.3543 15.1499 25.4258 14.8883 25.5285 14.6718C25.8463 14.0043 26.3372 13.9125 26.9572 13.9661C27.7134 14.0316 28.2332 15.0847 28.3283 15.8133C28.4074 16.4218 28.3921 17.2322 28.2811 18.2675H28.3283C28.5434 18.2675 28.9542 18.3063 29.1297 18.4271C29.6987 18.8115 29.7319 19.946 29.4135 20.8397C29.0001 21.9999 27.2041 23.1328 27.0001 24.9999C26.8715 26.1771 27.0949 26.8691 27.4512 27.9984C27.847 29.2528 28.3512 29.9808 29.0048 30.9869C29.9228 32.4052 30.872 33.872 30.872 35.6268C30.872 37.7327 30.1976 39.3925 28.8681 40.5582C27.7156 41.5657 26.0095 42.2289 23.9992 42.229Z" stroke="black" stroke-width="4" stroke-linecap="round" stroke-linejoin="round"/>
</svg>
