<svg width="48" height="48" viewBox="0 0 48 48" fill="none" xmlns="http://www.w3.org/2000/svg">
<g clip-path="url(#clip0_27_130825)">
<path d="M3.99995 31.0001C4.0002 24.5001 8.00047 22.0374 11.0001 21.0187C13.9998 20.0001 16.0004 20.0001 19 17.0001C21.9995 14.0001 22.0005 8.00008 28 6.00008C33.9995 4.00007 41.091 7.00011 42.9998 14.0001C44.9085 21.0001 39.5007 30.0001 37.0007 33.0001C34.5007 36.0001 29.4987 41.0001 20.9997 42.0001C12.5007 43.0001 3.99969 37.5001 3.99995 31.0001Z" stroke="black" stroke-width="4" stroke-linejoin="round"/>
<path d="M12 21.0435C19 30 29 21.0435 22 12" stroke="black" stroke-width="4" stroke-linecap="round" stroke-linejoin="round"/>
<path d="M11.0004 21.0187C14 20.0001 16.0006 20.0001 19.0002 17.0001C21.9998 14.0001 22.0007 8.00007 28.0003 6.00007" stroke="black" stroke-width="4" stroke-linecap="round" stroke-linejoin="round"/>
</g>
<defs>
<clipPath id="clip0_27_130825">
<rect width="48" height="48" fill="white"/>
</clipPath>
</defs>
</svg>
