<svg width="48" height="48" viewBox="0 0 48 48" fill="none" xmlns="http://www.w3.org/2000/svg">
<path d="M24 44C35.0457 44 44 35.0457 44 24C44 12.9543 35.0457 4 24 4C12.9543 4 4 12.9543 4 24C4 35.0457 12.9543 44 24 44Z" stroke="black" stroke-width="4"/>
<path d="M6.67969 34L24.0002 24M24.0002 4V24V4ZM41.3207 34L24.0002 24L41.3207 34Z" stroke="black" stroke-width="4" stroke-linecap="round" stroke-linejoin="round"/>
<path d="M18 4.9156C19.8941 4.32071 21.9096 4 24 4C26.0905 4 28.106 4.32071 30 4.9156M4.63013 29C5.08669 30.7739 5.78048 32.4525 6.67568 34C7.52027 35.46 8.54414 36.8034 9.71717 38M43.3699 29C42.9134 30.7739 42.2196 32.4525 41.3244 34C40.4798 35.46 39.4559 36.8034 38.2829 38" stroke="black" stroke-width="4"/>
</svg>
