<svg width="48" height="48" viewBox="0 0 48 48" fill="none" xmlns="http://www.w3.org/2000/svg">
<path fill-rule="evenodd" clip-rule="evenodd" d="M24 12C26.2091 12 28 10.2091 28 8C28 5.79086 26.2091 4 24 4C21.7909 4 20 5.79086 20 8C20 10.2091 21.7909 12 24 12Z" stroke="black" stroke-width="4" stroke-linecap="round" stroke-linejoin="round"/>
<path fill-rule="evenodd" clip-rule="evenodd" d="M24 28C26.2091 28 28 26.2091 28 24C28 21.7909 26.2091 20 24 20C21.7909 20 20 21.7909 20 24C20 26.2091 21.7909 28 24 28Z" stroke="black" stroke-width="4" stroke-linecap="round" stroke-linejoin="round"/>
<path fill-rule="evenodd" clip-rule="evenodd" d="M34.3925 18C35.4971 19.9132 37.9434 20.5687 39.8566 19.4641C41.7698 18.3595 42.4253 15.9132 41.3207 14C40.2161 12.0868 37.7698 11.4313 35.8566 12.5359C33.9434 13.6405 33.2879 16.0868 34.3925 18Z" stroke="black" stroke-width="4" stroke-linecap="round" stroke-linejoin="round"/>
<path fill-rule="evenodd" clip-rule="evenodd" d="M34.3925 30C33.2879 31.9132 33.9434 34.3595 35.8566 35.4641C37.7698 36.5687 40.2161 35.9132 41.3207 34C42.4253 32.0868 41.7698 29.6405 39.8566 28.5359C37.9434 27.4313 35.4971 28.0868 34.3925 30Z" stroke="black" stroke-width="4" stroke-linecap="round" stroke-linejoin="round"/>
<path fill-rule="evenodd" clip-rule="evenodd" d="M24 36C21.7909 36 20 37.7909 20 40C20 42.2091 21.7909 44 24 44C26.2091 44 28 42.2091 28 40C28 37.7909 26.2091 36 24 36Z" stroke="black" stroke-width="4" stroke-linecap="round" stroke-linejoin="round"/>
<path fill-rule="evenodd" clip-rule="evenodd" d="M13.6078 30C12.5032 28.0868 10.0569 27.4313 8.14373 28.5359C6.23056 29.6405 5.57506 32.0868 6.67963 34C7.7842 35.9132 10.2305 36.5687 12.1437 35.4641C14.0569 34.3595 14.7124 31.9132 13.6078 30Z" stroke="black" stroke-width="4" stroke-linecap="round" stroke-linejoin="round"/>
<path fill-rule="evenodd" clip-rule="evenodd" d="M13.6078 18C14.7124 16.0868 14.0569 13.6405 12.1437 12.5359C10.2305 11.4313 7.7842 12.0868 6.67963 14C5.57506 15.9132 6.23056 18.3595 8.14373 19.4641C10.0569 20.5687 12.5032 19.9132 13.6078 18Z" stroke="black" stroke-width="4" stroke-linecap="round" stroke-linejoin="round"/>
</svg>
