<svg width="48" height="48" viewBox="0 0 48 48" fill="none" xmlns="http://www.w3.org/2000/svg">
<path d="M32.9037 13.927C31.2464 17.1586 27.8814 19.37 24 19.37C20.1185 19.37 16.7536 17.1586 15.0963 13.927C11.3982 16.6589 9 21.0493 9 25.9999C9 26.8176 9.06543 27.62 9.19135 28.4022C9.45807 28.3809 9.72775 28.37 9.99996 28.37C15.5228 28.37 20 32.8472 20 38.37C20 39.0663 19.9288 39.7459 19.7934 40.402C21.128 40.7912 22.5397 40.9999 24 40.9999C25.4603 40.9999 26.8719 40.7912 28.2066 40.402C28.0711 39.7459 28 39.0663 28 38.37C28 32.8472 32.4771 28.37 38 28.37C38.2722 28.37 38.5419 28.3809 38.8087 28.4022C38.9346 27.62 39 26.8176 39 25.9999C39 21.0493 36.6017 16.6589 32.9037 13.927Z" stroke="black" stroke-width="4" stroke-linecap="round" stroke-linejoin="round"/>
<path fill-rule="evenodd" clip-rule="evenodd" d="M24 13C26.2091 13 28 11.2091 28 9C28 6.79086 26.2091 5 24 5C21.7909 5 20 6.79086 20 9C20 11.2091 21.7909 13 24 13Z" stroke="black" stroke-width="4" stroke-linecap="round" stroke-linejoin="round"/>
<path fill-rule="evenodd" clip-rule="evenodd" d="M9 43C11.2091 43 13 41.2091 13 39C13 36.7909 11.2091 35 9 35C6.79086 35 5 36.7909 5 39C5 41.2091 6.79086 43 9 43Z" stroke="black" stroke-width="4" stroke-linecap="round" stroke-linejoin="round"/>
<path fill-rule="evenodd" clip-rule="evenodd" d="M39 43C41.2091 43 43 41.2091 43 39C43 36.7909 41.2091 35 39 35C36.7909 35 35 36.7909 35 39C35 41.2091 36.7909 43 39 43Z" stroke="black" stroke-width="4" stroke-linecap="round" stroke-linejoin="round"/>
</svg>
