<svg width="48" height="48" viewBox="0 0 48 48" fill="none" xmlns="http://www.w3.org/2000/svg">
<path d="M22.7989 4.20102L4.41415 22.5858C3.63311 23.3668 3.6331 24.6332 4.41415 25.4142L22.7989 43.799C23.5799 44.58 24.8463 44.58 25.6273 43.799L44.0121 25.4142C44.7931 24.6332 44.7931 23.3668 44.0121 22.5858L25.6273 4.20102C24.8463 3.41997 23.5799 3.41997 22.7989 4.20102Z" stroke="black" stroke-width="4" stroke-linejoin="round"/>
<path d="M24 32C28.4183 32 32 28.4183 32 24C32 19.5817 28.4183 16 24 16C19.5817 16 16 19.5817 16 24C16 28.4183 19.5817 32 24 32Z" stroke="black" stroke-width="4" stroke-linejoin="round"/>
</svg>
