<svg width="48" height="48" viewBox="0 0 48 48" fill="none" xmlns="http://www.w3.org/2000/svg">
<path fill-rule="evenodd" clip-rule="evenodd" d="M24.0002 45C27.2208 45 32.7276 40.8 32.7276 24C32.7276 7.2 27.2208 3 24.0002 3C20.7797 3 15.2729 7.48302 15.2729 24C15.2729 40.517 20.7797 45 24.0002 45Z" stroke="black" stroke-width="4" stroke-linecap="round" stroke-linejoin="round"/>
<path fill-rule="evenodd" clip-rule="evenodd" d="M5.10491 35.0001C6.71521 37.8124 13.2476 40.4211 28.3637 31.6211C43.4797 22.8211 44.5054 15.8124 42.8951 13.0001C41.2848 10.1878 34.4978 7.72728 19.6364 16.3791C4.77497 25.0308 3.49465 32.1878 5.10491 35.0001Z" stroke="black" stroke-width="4" stroke-linecap="round" stroke-linejoin="round"/>
<path fill-rule="evenodd" clip-rule="evenodd" d="M5.10482 13.0001C3.49456 15.8124 4.52022 22.8211 19.6363 31.6211C34.7524 40.4211 41.2847 37.8124 42.895 35.0001C44.5053 32.1878 43.225 25.0308 28.3635 16.3791C13.5021 7.72728 6.71513 10.1878 5.10482 13.0001Z" stroke="black" stroke-width="4" stroke-linecap="round" stroke-linejoin="round"/>
</svg>
