<svg width="24" height="24" viewBox="0 0 24 24" fill="none" xmlns="http://www.w3.org/2000/svg">
<path fill-rule="evenodd" clip-rule="evenodd" d="M17.8171 5.98948C17.4641 5.48123 16.5202 4.76792 14.991 5.07507C14.0994 5.25417 13.5659 5.6962 13.2269 6.27774C12.8657 6.89717 12.6912 7.74021 12.6912 8.72163C12.6912 9.27389 12.2435 9.72159 11.6912 9.72159C9.32512 9.72159 7.07321 9.01899 5.17819 7.11741C5.05529 7.80147 4.96954 8.61428 5.01021 9.45709C5.06261 10.5431 5.3223 11.6327 5.93722 12.5657C6.54164 13.4828 7.53719 14.3229 9.20065 14.8502C9.53233 14.9553 9.78552 15.2253 9.86916 15.563C9.95281 15.9007 9.85489 16.2577 9.61061 16.5055C9.01965 17.1049 8.42529 17.5545 7.81459 17.9104C8.87536 18.0201 9.89712 18.0281 10.8447 17.9424C12.7643 17.7688 14.2936 17.2194 15.25 16.4433C17.2626 14.8101 18.3404 12.3764 18.1394 8.29874C18.1064 7.62772 18.7526 6.90527 19.0647 6.35665C18.5938 6.4447 18.1218 6.42821 17.8171 5.98948ZM4.59375 3.98428C4.9629 3.94125 5.32546 4.10648 5.53516 4.41331C7.01054 6.57212 8.78262 7.47018 10.7489 7.6745C10.8454 6.83331 11.0724 6.00216 11.4991 5.2704C12.125 4.19675 13.143 3.40631 14.5972 3.11423C16.6066 2.71063 18.1366 3.43833 19.0244 4.32954L20.8162 3.99458C21.199 3.92304 21.5884 4.08014 21.8144 4.39722C22.0403 4.7143 22.0617 5.1337 21.8691 5.47211L20.1496 8.49419C20.3064 12.8556 19.0944 15.8993 16.5103 17.9963C15.1395 19.1086 13.178 19.7395 11.0249 19.9343C8.85497 20.1306 6.40214 19.8932 3.96382 19.1812C3.53604 19.0563 3.24254 18.6634 3.24412 18.2178C3.24569 17.7721 3.54195 17.3813 3.9706 17.2594C5.19682 16.9107 6.13012 16.6092 6.97377 16.0827C5.77531 15.4464 4.89225 14.6146 4.26726 13.6663C3.39859 12.3482 3.07648 10.8788 3.01253 9.55349C2.94859 8.22833 3.14009 7.00097 3.34178 6.11514C3.45659 5.61088 3.59069 5.10427 3.77553 4.62032C3.90978 4.27152 4.22461 4.02732 4.59375 3.98428Z" fill="#292D32"/>
</svg>
