<svg width="24" height="24" viewBox="0 0 24 24" fill="none" xmlns="http://www.w3.org/2000/svg">
<path d="M12 2C17.5228 2 22 6.47715 22 12C22 17.5228 17.5228 22 12 22C10.2364 22 8.57709 21.5427 7.13692 20.7397L6.83171 20.5624L3.79975 21.4542C3.06936 21.6691 2.38822 21.0329 2.51987 20.3093L2.54581 20.2002L3.43756 17.1683C2.52505 15.6594 2 13.8896 2 12C2 6.47715 6.47715 2 12 2ZM12 4C7.58172 4 4 7.58172 4 12C4 13.5769 4.4552 15.0444 5.24098 16.2818C5.43935 16.5943 5.52374 16.9781 5.45652 17.3589L5.41832 17.5217L4.97667 19.0233L6.47827 18.5817C6.91075 18.4545 7.36114 18.5323 7.71817 18.759C8.95564 19.5448 10.4231 20 12 20C16.4183 20 20 16.4183 20 12C20 7.58172 16.4183 4 12 4ZM9.10162 7.18408C9.31746 7.09158 9.57889 7.1085 9.78556 7.25926C10.29 7.62722 10.6905 8.12076 11.0344 8.60344L11.3612 9.07746C11.4132 9.15417 11.4639 9.22933 11.5138 9.30228C11.6963 9.56921 11.6753 9.9239 11.4685 10.166L11.3927 10.2422L10.4693 10.928C10.3778 10.996 10.3473 11.1195 10.4022 11.2195C10.6112 11.5998 10.9834 12.1657 11.4093 12.5916C11.8357 13.018 12.4284 13.4143 12.8348 13.6467C12.9226 13.6969 13.0294 13.6811 13.101 13.6157L13.1394 13.5706L13.7402 12.6555C13.9705 12.349 14.4007 12.282 14.7134 12.4984L15.2563 12.8768C15.7957 13.2618 16.315 13.6757 16.7255 14.2014C16.8872 14.4085 16.9112 14.6792 16.8148 14.9042C16.4188 15.8283 15.4165 16.6153 14.374 16.5769L14.2155 16.5678L14.0235 16.5488C13.9889 16.5446 13.953 16.5399 13.9158 16.5346L13.6781 16.4952C12.7544 16.3208 11.2726 15.797 9.73827 14.2627C8.20397 12.7284 7.68017 11.2466 7.50573 10.3229L7.46632 10.0852L7.44126 9.87742L7.42756 9.70191C7.42606 9.67547 7.42491 9.65047 7.42404 9.62695C7.38562 8.58294 8.17688 7.5804 9.10162 7.18408Z" fill="#292D32"/>
</svg>
