<svg width="48" height="48" viewBox="0 0 48 48" fill="none" xmlns="http://www.w3.org/2000/svg">
<path d="M4.46094 12.8406L22.2354 9.06249C22.7543 8.95221 23.2957 9.05255 23.7405 9.34145L31.8394 14.6009C32.2843 14.8898 32.8257 14.9902 33.3445 14.8799L37.425 14.0126C38.5054 13.7829 39.5674 14.4726 39.7971 15.5531L40.4208 18.4875C40.6505 19.5679 39.9608 20.63 38.8803 20.8596L31.8655 22.3507C31.3466 22.461 30.8052 22.3606 30.3604 22.0717L22.2615 16.8122C21.8166 16.5233 21.2752 16.423 20.7564 16.5333L17.654 17.1927" stroke="black" stroke-width="4" stroke-linecap="round"/>
<path d="M43.5396 33.1597L25.7651 36.9378C25.2462 37.048 24.7048 36.9477 24.26 36.6588L16.161 31.3993C15.7162 31.1104 15.1748 31.0101 14.6559 31.1203L10.5755 31.9877C9.4951 32.2173 8.43307 31.5276 8.20341 30.4472L7.57968 27.5127C7.35002 26.4323 8.03972 25.3703 9.12015 25.1406L16.135 23.6496C16.6538 23.5393 17.1952 23.6396 17.6401 23.9285L25.739 29.188C26.1839 29.4769 26.7253 29.5773 27.2441 29.467L30.3465 28.8076" stroke="black" stroke-width="4" stroke-linecap="round"/>
</svg>
