<svg width="48" height="48" viewBox="0 0 48 48" fill="none" xmlns="http://www.w3.org/2000/svg">
<g clip-path="url(#clip0_8683_5377)">
<path d="M30.6571 21.5859L34.7602 17.4828C36.7619 18.0174 38.9862 17.4995 40.5566 15.9291C42.8998 13.5859 42.8998 9.78696 40.5566 7.44381C38.2135 5.10067 34.4145 5.10067 32.0713 7.44381C30.5009 9.01419 29.983 11.2385 30.5176 13.2402L26.4145 17.3433" stroke="black" stroke-width="4" stroke-linecap="round" stroke-linejoin="round"/>
<path d="M41.2635 32.1924L15.8076 6.73657L11.9185 10.6257L19.6967 21.9394L16.8683 26.182L21.4645 30.7782L25.7071 27.9498L37.3744 36.0815L41.2635 32.1924Z" stroke="black" stroke-width="4" stroke-linecap="round" stroke-linejoin="round"/>
<path d="M19.3207 21.8852C15.9294 20.8974 12.1179 21.7405 9.444 24.4144C5.53876 28.3196 5.53876 34.6513 9.444 38.5565C13.3492 42.4618 19.6809 42.4618 23.5861 38.5565C26.2601 35.8826 27.1032 32.0711 26.1154 28.6798" stroke="black" stroke-width="4" stroke-linecap="round" stroke-linejoin="round"/>
</g>
<defs>
<clipPath id="clip0_8683_5377">
<rect width="48" height="48" fill="white"/>
</clipPath>
</defs>
</svg>
