<svg width="48" height="48" viewBox="0 0 48 48" fill="none" xmlns="http://www.w3.org/2000/svg">
<g clip-path="url(#clip0_8683_5358)">
<circle cx="30.0746" cy="15.5623" r="11" transform="rotate(40 30.0746 15.5623)" stroke="black" stroke-width="4" stroke-linecap="round" stroke-linejoin="round"/>
<path d="M21.648 8.49172C17.0385 8.54009 15.3215 5.14125 13.0717 7.82241C11.039 10.2449 13.5647 13.4577 11.6364 15.7559" stroke="black" stroke-width="4" stroke-linecap="round" stroke-linejoin="round"/>
<path d="M25.3022 25.9172C25.3022 25.9172 21.1241 30.8965 19.5171 32.8116C17.9101 34.7267 17.8352 37.9274 15.9069 40.2255C13.9785 42.5237 11.1609 42.7702 8.86272 40.8418C6.56459 38.9135 6.31808 36.0958 8.24644 33.7977C10.1748 31.4995 13.3139 30.87 14.9208 28.9549C16.5278 27.0398 20.0837 23.0613 20.7059 22.0605" stroke="black" stroke-width="4" stroke-linecap="round" stroke-linejoin="round"/>
<circle cx="11.2404" cy="19.3395" r="3" transform="rotate(40 11.2404 19.3395)" stroke="black" stroke-width="4" stroke-linecap="round" stroke-linejoin="round"/>
<circle cx="28.463" cy="37.7075" r="3" transform="rotate(40 28.463 37.7075)" stroke="black" stroke-width="4" stroke-linecap="round" stroke-linejoin="round"/>
<path d="M37.2153 24.165C37.8449 27.3041 40.0681 32.4331 38.0781 34.0269C36.0881 35.6206 31.5535 32.4683 30.3912 35.4092" stroke="black" stroke-width="4" stroke-linecap="round" stroke-linejoin="round"/>
</g>
<defs>
<clipPath id="clip0_8683_5358">
<rect width="48" height="48" fill="white"/>
</clipPath>
</defs>
</svg>
