<svg width="48" height="48" viewBox="0 0 48 48" fill="none" xmlns="http://www.w3.org/2000/svg">
<g clip-path="url(#clip0_8683_5364)">
<circle cx="29.4637" cy="16.9886" r="11" transform="rotate(40 29.4637 16.9886)" stroke="black" stroke-width="4" stroke-linecap="round" stroke-linejoin="round"/>
<path d="M38.5327 23.2932C38.5327 23.2932 32.8973 23.7862 27.535 19.2867C22.1727 14.7872 21.6797 9.15186 21.6797 9.15186" stroke="black" stroke-width="4" stroke-linecap="round" stroke-linejoin="round"/>
<path d="M26.866 27.8629C23.4056 28.8755 21.7986 30.7906 20.1916 32.7057C18.5847 34.6208 18.5098 37.8215 16.5814 40.1196C14.653 42.4178 11.8354 42.6643 9.53725 40.7359C7.23912 38.8076 6.9926 35.9899 8.92097 33.6918C10.8493 31.3936 13.9884 30.7641 15.5954 28.849C17.2023 26.9339 18.8093 25.0188 19.2056 21.4351" stroke="black" stroke-width="4" stroke-linecap="round" stroke-linejoin="round"/>
<path d="M38.8325 10.4906C39.8975 9.22133 39.7319 7.32906 38.4627 6.26406C37.1935 5.19905 35.3012 5.3646 34.2362 6.63383" stroke="black" stroke-width="4" stroke-linecap="round" stroke-linejoin="round"/>
</g>
<defs>
<clipPath id="clip0_8683_5364">
<rect width="48" height="48" fill="white"/>
</clipPath>
</defs>
</svg>
