<svg width="48" height="48" viewBox="0 0 48 48" fill="none" xmlns="http://www.w3.org/2000/svg">
<g clip-path="url(#clip0_8684_4948)">
<path d="M6.01221 34.005V8.03613C6.01221 6.93156 6.90764 6.03613 8.01221 6.03613H39.9998C41.1044 6.03613 41.9998 6.93156 41.9998 8.03613V34.005C41.9998 35.6618 40.6567 37.005 38.9998 37.005H37.0047V37.9999C37.0047 40.2091 35.2138 41.9999 33.0047 41.9999H33.0043C30.7951 41.9999 29.0043 40.2091 29.0043 37.9999V37.005H19.0077V38.0016C19.0077 40.2098 17.2176 41.9999 15.0094 41.9999C12.8011 41.9999 11.011 40.2098 11.011 38.0016V37.005H9.01221C7.35535 37.005 6.01221 35.6618 6.01221 34.005Z" stroke="black" stroke-width="4" stroke-linejoin="round"/>
<path d="M42 23H6" stroke="black" stroke-width="4" stroke-linecap="round" stroke-linejoin="round"/>
<path d="M34 13H14V23H34V13Z" stroke="black" stroke-width="4" stroke-linecap="round" stroke-linejoin="round"/>
<path d="M14 30H16" stroke="black" stroke-width="4" stroke-linecap="round" stroke-linejoin="round"/>
<path d="M32 30H34" stroke="black" stroke-width="4" stroke-linecap="round" stroke-linejoin="round"/>
</g>
<defs>
<clipPath id="clip0_8684_4948">
<rect width="48" height="48" fill="white"/>
</clipPath>
</defs>
</svg>
