<svg width="48" height="48" viewBox="0 0 48 48" fill="none" xmlns="http://www.w3.org/2000/svg">
<g clip-path="url(#clip0_27_130676)">
<path d="M38 8H10C8.89543 8 8 8.89543 8 10V38C8 39.1046 8.89543 40 10 40H38C39.1046 40 40 39.1046 40 38V10C40 8.89543 39.1046 8 38 8Z" stroke="black" stroke-width="4" stroke-linejoin="round"/>
<path d="M30 18H18V30H30V18Z" stroke="black" stroke-width="4" stroke-linejoin="round"/>
<path d="M14.9092 2V8" stroke="black" stroke-width="4" stroke-linecap="round" stroke-linejoin="round"/>
<path d="M14.9092 40V46" stroke="black" stroke-width="4" stroke-linecap="round" stroke-linejoin="round"/>
<path d="M24 2V8" stroke="black" stroke-width="4" stroke-linecap="round" stroke-linejoin="round"/>
<path d="M24 40V46" stroke="black" stroke-width="4" stroke-linecap="round" stroke-linejoin="round"/>
<path d="M33.0908 2V8" stroke="black" stroke-width="4" stroke-linecap="round" stroke-linejoin="round"/>
<path d="M33.0908 40V46" stroke="black" stroke-width="4" stroke-linecap="round" stroke-linejoin="round"/>
<path d="M2 14.9092H8" stroke="black" stroke-width="4" stroke-linecap="round" stroke-linejoin="round"/>
<path d="M40 14.9092H46" stroke="black" stroke-width="4" stroke-linecap="round" stroke-linejoin="round"/>
<path d="M2 24H8" stroke="black" stroke-width="4" stroke-linecap="round" stroke-linejoin="round"/>
<path d="M40 24H46" stroke="black" stroke-width="4" stroke-linecap="round" stroke-linejoin="round"/>
<path d="M2 33.0908H8" stroke="black" stroke-width="4" stroke-linecap="round" stroke-linejoin="round"/>
<path d="M40 33.0908H46" stroke="black" stroke-width="4" stroke-linecap="round" stroke-linejoin="round"/>
</g>
<defs>
<clipPath id="clip0_27_130676">
<rect width="48" height="48" fill="white"/>
</clipPath>
</defs>
</svg>
