<svg width="48" height="48" viewBox="0 0 48 48" fill="none" xmlns="http://www.w3.org/2000/svg">
<path d="M29.0029 18.3736L30.1077 17.2687L30.638 16.7384C32.7859 14.5905 32.7859 11.1081 30.638 8.9602V8.9602C28.4902 6.81231 25.0078 6.81231 22.8599 8.9602L9.1723 22.6478C9.11652 22.7036 9.11652 22.794 9.1723 22.8498L16.1424 29.8198C16.5329 30.2104 17.166 30.2104 17.5566 29.8198L21.2689 26.1075L22.3737 25.0027" stroke="black" stroke-width="4" stroke-linecap="round"/>
<path d="M28.1631 6.48535L29.9309 4.71758C31.2977 3.35075 33.5138 3.35075 34.8806 4.71758V4.71758C36.2474 6.08442 36.2474 8.3005 34.8806 9.66733L33.1128 11.4351L28.1631 6.48535Z" stroke="black" stroke-width="4" stroke-linecap="round" stroke-linejoin="round"/>
<path d="M10.4854 24.1628L6.24271 28.4055L11.1925 33.3552L15.4351 29.1126L10.4854 24.1628Z" stroke="black" stroke-width="4" stroke-linecap="round" stroke-linejoin="round"/>
<circle cx="26.0415" cy="22.0417" r="4.5" transform="rotate(45 26.0415 22.0417)" stroke="black" stroke-width="4"/>
<path d="M6 20L18.7279 32.7279" stroke="black" stroke-width="4" stroke-linecap="round" stroke-linejoin="round"/>
<path d="M10 44H42" stroke="black" stroke-width="4" stroke-linecap="round" stroke-linejoin="round"/>
<path d="M31 22C35 22 39 26 39 32C39 38.4 33.8333 41.8333 31 44" stroke="black" stroke-width="4" stroke-linecap="round" stroke-linejoin="round"/>
</svg>
