<svg width="48" height="48" viewBox="0 0 48 48" fill="none" xmlns="http://www.w3.org/2000/svg">
<path d="M20.7847 18.7299C21.0654 18.4492 21.5205 18.4492 21.8012 18.7299L29.27 26.1987C29.5507 26.4794 29.5507 26.9345 29.27 27.2152L17.7574 38.7278C15.4143 41.0709 11.6153 41.0709 9.27215 38.7278V38.7278C6.92901 36.3846 6.92901 32.5856 9.27215 30.2425L20.7847 18.7299Z" stroke="black" stroke-width="4"/>
<path d="M42.5815 22.389C42.9305 22.04 42.9305 21.4742 42.5815 21.1252L26.8747 5.4184C26.5257 5.06942 25.9599 5.06942 25.6109 5.4184L24.8286 6.20073C20.1423 10.887 20.1423 18.485 24.8286 23.1713V23.1713C29.5149 27.8576 37.1129 27.8576 41.7992 23.1713L42.5815 22.389Z" stroke="black" stroke-width="4"/>
<path d="M19.8789 28.1211L18.4647 29.5353" stroke="black" stroke-width="4" stroke-linecap="round" stroke-linejoin="round"/>
<path d="M27.6567 17.5146L30.4852 20.3431" stroke="black" stroke-width="4" stroke-linecap="round" stroke-linejoin="round"/>
</svg>
