<svg width="48" height="49" viewBox="0 0 48 49" fill="none" xmlns="http://www.w3.org/2000/svg">
<g clip-path="url(#clip0_27_131932)">
<path d="M24 0.0588379C37.2548 0.0588379 48 10.804 48 24.0588C48 37.3137 37.2548 48.0588 24 48.0588C10.7452 48.0588 0 37.3137 0 24.0588C0 10.804 10.7452 0.0588379 24 0.0588379ZM24 4.42247C13.1551 4.42247 4.36364 13.214 4.36364 24.0588C4.36364 34.9037 13.1551 43.6952 24 43.6952C30.7379 43.6952 36.6832 40.3016 40.2199 35.1303C38.7865 34.7059 36.4967 33.971 33.537 32.7277C32.3002 32.2082 30.4531 31.3888 27.9958 30.2693C25.0556 33.2323 20.769 36.0588 16.1742 36.0588C12.9855 36.0432 7.63636 34.4316 7.63636 29.4046C7.63636 24.3776 12.5923 23.1813 15.8076 23.1813C17.7535 23.1813 21.1973 24.2552 26.1389 26.4031L26.2149 26.4329C27.5413 24.8102 28.4513 22.9259 28.9459 20.7796L29.0455 20.3159L20.3944 20.3159C19.0841 20.3159 17.6773 20.3158 16.1742 20.3157V17.996L22.032 17.9956V15.0959L13.8306 15.0963V13.3566L22.032 13.3559L22.033 9.87702H26.72L26.7196 13.3559L36.0941 13.3566V15.0963L26.7196 15.0959V17.9956L34.2059 17.996C34.0959 18.7198 33.9722 19.3774 33.8347 19.9688L33.7506 20.3157C33.4061 21.5611 32.6313 23.375 31.4262 25.7574C31.1062 26.39 30.6437 27.1214 30.0599 27.8968C31.904 28.5803 33.771 29.2432 35.6605 29.8863C38.1068 30.719 40.2216 31.3927 42.005 31.9076C43.0543 29.5039 43.6364 26.8493 43.6364 24.0588C43.6364 13.214 34.8449 4.42247 24 4.42247ZM10.3154 28.6025C10.3154 31.8007 17.0047 33.0747 22.4246 29.7085C23.0347 29.3295 23.6048 28.9253 24.1348 28.4957L24.1166 28.4874L23.69 28.2253C20.308 26.1677 17.6806 25.052 15.8076 24.8782C14.0892 24.7188 10.3154 25.4043 10.3154 28.6025ZM29.0455 20.3157L29.0455 20.3159L31.2536 20.3162L29.0455 20.3157Z" fill="black"/>
</g>
<defs>
<clipPath id="clip0_27_131932">
<rect width="48" height="48" fill="white" transform="translate(0 0.0588379)"/>
</clipPath>
</defs>
</svg>
