<svg width="48" height="49" viewBox="0 0 48 49" fill="none" xmlns="http://www.w3.org/2000/svg">
<g clip-path="url(#clip0_27_131152)">
<path fill-rule="evenodd" clip-rule="evenodd" d="M4.11111 46.0588C2.94518 46.0588 2 45.1085 2 43.9361V4.18158C2 3.00922 2.94518 2.05884 4.11111 2.05884H43.8889C45.0548 2.05884 46 3.00922 46 4.18158V43.9361C46 45.1085 45.0548 46.0588 43.8889 46.0588C42.4815 46.0588 29.2222 46.0588 4.11111 46.0588Z" stroke="black" stroke-width="4" stroke-linecap="round" stroke-linejoin="round"/>
<path fill-rule="evenodd" clip-rule="evenodd" d="M38.6615 17.9458H34.3074H33.7929C32.4429 17.9458 31.3485 19.0403 31.3485 20.3903V25.2806H38.6615L37.5904 32.6114H31.3485V46.0589H23.3065V32.6114H16.6667V25.2806H23.2207L23.3065 18.3222L23.2825 15.8283C23.2487 12.3066 26.0762 9.42432 29.5978 9.39049C29.6182 9.3903 29.6386 9.3902 29.6591 9.3902H38.6615V17.9458Z" fill="black"/>
</g>
<defs>
<clipPath id="clip0_27_131152">
<rect width="48" height="48" fill="white" transform="translate(0 0.0588379)"/>
</clipPath>
</defs>
</svg>
