<svg width="48" height="49" viewBox="0 0 48 49" fill="none" xmlns="http://www.w3.org/2000/svg">
<g clip-path="url(#clip0_27_131918)">
<path fill-rule="evenodd" clip-rule="evenodd" d="M24 4.05884C12.9543 4.05884 4 13.0131 4 24.0588C4 35.1045 12.9543 44.0588 24 44.0588C35.0457 44.0588 44 35.1045 44 24.0588C44 13.0131 35.0457 4.05884 24 4.05884ZM0 24.0588C0 10.804 10.7452 0.0588379 24 0.0588379C37.2548 0.0588379 48 10.804 48 24.0588C48 37.3137 37.2548 48.0588 24 48.0588C10.7452 48.0588 0 37.3137 0 24.0588Z" fill="black"/>
<path fill-rule="evenodd" clip-rule="evenodd" d="M19.183 45.5303C18.9896 45.2806 18.9896 43.0561 19.183 38.8568C17.1112 38.9283 15.8022 38.7845 15.256 38.4254C14.4368 37.8867 13.6166 36.2254 12.8889 35.0546C12.1612 33.8838 10.546 33.6987 9.8938 33.437C9.24158 33.1752 9.07785 32.1083 11.691 32.9152C14.3042 33.7221 14.4316 35.9194 15.256 36.4332C16.0804 36.947 18.0512 36.7222 18.9446 36.3106C19.8379 35.899 19.7722 34.3666 19.9315 33.7594C20.1329 33.1927 19.423 33.067 19.4074 33.0624C18.5353 33.0624 13.9537 32.066 12.6952 27.6294C11.4368 23.1927 13.0579 20.2929 13.9227 19.0462C14.4992 18.2152 14.4482 16.4439 13.7697 13.7324C16.2333 13.4176 18.1344 14.193 19.4732 16.0588C19.4745 16.0695 21.2283 15.0159 24 15.0159C26.7718 15.0159 27.7551 15.8741 28.514 16.0588C29.2728 16.2435 29.8798 12.7928 34.5666 13.7324C33.5881 15.6556 32.7686 18.0588 33.3941 19.0462C34.0195 20.0337 36.4742 23.1734 34.9664 27.6294C33.9611 30.6 31.9851 32.411 29.0382 33.0624C28.7002 33.1702 28.5313 33.3442 28.5313 33.5842C28.5313 33.9443 28.9881 33.9836 29.6463 35.6704C30.085 36.7949 30.1167 40.0067 29.7413 45.3058C28.7904 45.5478 28.0506 45.7103 27.5219 45.7934C26.5845 45.9407 25.5667 46.0233 24.5666 46.0552C23.5666 46.0872 23.2193 46.0835 21.8368 45.9548C20.9151 45.869 20.0305 45.7275 19.183 45.5303Z" fill="black"/>
</g>
<defs>
<clipPath id="clip0_27_131918">
<rect width="48" height="48" fill="white" transform="translate(0 0.0588379)"/>
</clipPath>
</defs>
</svg>
