<svg width="48" height="48" viewBox="0 0 48 48" fill="none" xmlns="http://www.w3.org/2000/svg">
<path d="M35.3926 16.0397C32.1091 15.3432 29.8205 12.4576 29.7707 9.12427H24.6961V29.572C24.5966 31.9103 22.6563 33.7511 20.318 33.7014C17.9797 33.6516 16.1389 31.7113 16.1389 29.373C16.1887 27.0347 18.0792 25.1442 20.4175 25.1442C20.8653 25.1442 21.2633 25.1939 21.6613 25.3432V20.1193C21.2633 20.0695 20.8155 20.0695 20.4175 20.0695H20.2185C15.0444 20.2188 10.9648 24.4477 11.0643 29.6218C11.1638 34.7959 15.3926 38.8755 20.5668 38.8258C25.7409 38.776 29.8703 34.5472 29.8703 29.4228V19.0248C31.9598 20.5173 34.3976 21.3133 36.9847 21.3133V16.1889C36.3877 16.1889 35.8902 16.1392 35.3926 16.0397Z" fill="black"/>
<path d="M33.9502 44H14.0498C8.47761 44 4 39.4726 4 33.9502V14.0498C4 8.47761 8.47761 4 14.0498 4H33.9502C39.4726 4 44 8.47761 44 14.0498V33.9502C44 39.4726 39.4726 44 33.9502 44ZM14.0995 4.44776C8.77612 4.44776 4.44776 8.77612 4.44776 14.0995V33.8507C4.44776 39.1741 8.77612 43.5025 14.0995 43.5025H33.8507C39.1741 43.5025 43.5025 39.1741 43.5025 33.8507V14.0995C43.5025 8.77612 39.1741 4.44776 33.8507 4.44776H14.0995Z" fill="black"/>
<path d="M36.1387 35.7412C36.1387 35.6417 36.1387 35.4427 36.1387 35.2934C36.1387 35.2437 36.1884 35.2437 36.1884 35.2437C36.2382 35.2437 36.7854 35.7412 36.7854 35.7412" fill="black"/>
<path d="M20.4192 33.204C22.459 33.204 24.1008 31.6119 24.2003 29.5721V27.9801C23.2551 27.5821 22.3098 27.2338 21.3148 26.9851C21.2153 26.9353 21.1158 26.9353 21.0163 26.9353C21.0163 27.0348 21.0163 27.1343 21.0163 27.2338C21.0163 29.4726 20.3695 31.3134 19.3247 33.005C19.6232 33.1045 19.9715 33.1542 20.3197 33.1542C20.3197 33.204 20.3695 33.204 20.4192 33.204Z" fill="black"/>
<path d="M36.5384 35.5423C36.4886 35.4925 36.3393 35.4428 36.2896 35.4925C36.1901 35.5423 36.1403 35.592 36.1403 35.6915C36.0906 37.2835 35.6926 38.8258 35.0956 40.2189C35.1453 40.0696 34.8468 39.4726 34.7971 39.3234C34.6976 39.0248 34.5981 38.7263 34.4488 38.4278C34.2 37.8308 33.9513 37.2835 33.6528 36.6865C33.0558 35.592 32.3592 34.4975 31.613 33.5522C31.1155 32.9054 30.5682 32.3582 29.9712 31.8109C28.8767 36.0398 25.0956 39.2238 20.5185 39.2736H20.4189C18.4289 39.2736 16.5881 38.6766 15.0458 37.6816C14.6976 37.9801 14.2995 38.2786 13.9513 38.5771C13.1055 37.6816 12.409 36.6865 11.812 35.592C11.7622 35.4925 11.7125 35.393 11.7125 35.2935C11.613 35.393 11.5135 35.4428 11.414 35.5423C9.62293 37.1343 8.08064 38.9253 6.78711 40.8159C6.88661 40.9154 7.03587 41.0646 7.13537 41.1641C7.18512 41.1144 7.23487 41.0149 7.28462 40.9651L8.5284 42.0597L9.32442 42.4079C9.22492 42.4577 9.17517 42.5572 9.07567 42.6069C9.22492 42.7064 9.37417 42.7562 9.52343 42.8557C9.62293 42.7562 9.72243 42.7064 9.82193 42.6069L11.6627 43.4527L16.1901 43.7512H31.1652C31.1652 43.801 31.1652 43.8507 31.1155 43.9005H33.1553C33.205 43.8507 33.2548 43.801 33.3045 43.7512C33.3045 43.7015 33.3543 43.7015 33.3543 43.6517L36.0906 43.403L38.8269 42.2587L40.6677 40.8656C40.7175 40.9651 40.7672 41.0149 40.817 41.1144C40.9165 41.0149 41.0657 40.8656 41.1652 40.7661C39.8717 38.9253 38.3294 37.1343 36.5384 35.5423Z" fill="black"/>
<path d="M20.5182 38.7761C24.9461 38.7263 28.6774 35.592 29.573 31.4129C28.4287 30.4179 27.1849 29.5224 25.8416 28.7761C25.4436 28.5771 25.0456 28.3781 24.6476 28.1791V29.5224C24.5481 31.8109 22.6575 33.6517 20.369 33.6517C20.3192 33.6517 20.3192 33.6517 20.2695 33.6517C19.8217 33.6517 19.4237 33.5522 19.0257 33.403C18.0804 34.796 16.8366 36.0895 15.4436 37.2836C16.8864 38.1791 18.5779 38.7263 20.4187 38.7263C20.4187 38.7761 20.4685 38.7761 20.5182 38.7761ZM18.3292 35.194C18.2794 35.194 18.3292 35.194 18.3292 35.194V35.194Z" fill="black"/>
</svg>
