<svg width="48" height="48" viewBox="0 0 48 48" fill="none" xmlns="http://www.w3.org/2000/svg">
<path fill-rule="evenodd" clip-rule="evenodd" d="M41.0721 5.99409L3.31119 16.5187L12.3861 25.8126L20.8003 25.9594L30.4832 16.5187C30.2271 15.9943 30.099 15.5552 30.099 15.2013C30.099 14.4074 30.4108 13.7786 30.8952 13.333C31.7246 12.57 32.7226 12.4558 33.8894 12.9905L41.0721 5.99409Z" fill="black"/>
<path fill-rule="evenodd" clip-rule="evenodd" d="M42.1026 6.72854L31.578 44.4895L22.2841 35.4146L22.1372 27.0004L31.512 17.4817C32.0199 17.8456 32.5748 18.0106 33.1764 17.977C34.0789 17.9265 34.6619 17.3814 34.9354 17.0604C35.2088 16.7393 35.5298 16.2052 35.503 15.4114C35.4852 14.8822 35.3114 14.3942 34.9817 13.9473L42.1026 6.72854Z" fill="black"/>
</svg>
