<svg width="48" height="48" viewBox="0 0 48 48" fill="none" xmlns="http://www.w3.org/2000/svg">
<path d="M38.4507 23.0168L33.1941 20.0095C33.0804 19.9463 32.9414 20.0221 32.9414 20.1611V27.6416C32.9414 27.7806 33.0172 27.8944 33.1309 27.9702L38.3875 30.9776C38.5013 31.0407 38.6403 30.9649 38.6403 30.8259V23.3454C38.6403 23.2064 38.5644 23.0927 38.4507 23.0168Z" fill="black"/>
<path d="M31.1114 18.875L25.8548 15.8676C25.741 15.8044 25.6021 15.8803 25.6021 16.0192V27.6571C25.6021 27.7581 25.6779 27.834 25.779 27.834H31.1366C31.2377 27.834 31.3135 27.7581 31.3135 27.6571V19.2035C31.3009 19.0645 31.2251 18.9382 31.1114 18.875Z" fill="black"/>
<path d="M18.6775 30.9424L23.9341 27.935C24.0479 27.8718 24.1237 27.7454 24.1237 27.6064V15.1725C24.1237 15.0462 23.9847 14.9577 23.871 15.0209L18.6143 18.0283C18.5006 18.0915 18.4248 18.2178 18.4248 18.3568V30.7907C18.4248 30.9297 18.5638 31.0055 18.6775 30.9424Z" fill="black"/>
<path d="M40.106 24.2675V27.6792C40.106 27.7803 40.1818 27.8561 40.2829 27.8561H46.2471C46.424 27.8561 46.4871 27.6161 46.3355 27.5402L40.3713 24.1285C40.245 24.0527 40.106 24.1412 40.106 24.2675Z" fill="black"/>
<path d="M16.6927 19.1275L2.08539 27.5052C1.93376 27.5937 1.99694 27.8211 2.17384 27.8211H16.7811C16.8822 27.8211 16.9581 27.7453 16.9581 27.6442V19.2791C16.9454 19.1401 16.8064 19.0643 16.6927 19.1275Z" fill="black"/>
</svg>
