<svg width="48" height="49" viewBox="0 0 48 49" fill="none" xmlns="http://www.w3.org/2000/svg">
<path fill-rule="evenodd" clip-rule="evenodd" d="M16.8712 33.1024L15.9976 44.7624C15.9362 45.5817 16.6646 46.146 17.3161 45.7809C21.9289 43.197 36.3783 33.7067 43.7017 12.8487C44.0376 11.8919 43.1352 11.0286 42.3646 11.5683C38.0387 14.5978 28.5846 20.8595 22.7421 22.0522C22.7421 22.0522 26.4836 19.4535 28.7231 15.4641C28.9426 15.0731 28.9244 14.5724 28.6796 14.2194L20.5127 2.44807C20.0287 1.75029 19.0354 2.0394 18.8606 2.92884L16.3181 15.8661L4.38437 26.2814C3.78602 26.8034 3.90808 27.8584 4.5989 28.1379L16.8712 33.1024Z" fill="black"/>
<path fill-rule="evenodd" clip-rule="evenodd" d="M37.9745 28.5068C37.2188 29.5613 35.5908 31.7305 34.0876 33.0562C33.7871 33.3212 33.8276 33.7657 34.1724 33.9822L42.1145 38.9679C42.5926 39.2679 43.2384 38.9117 43.1576 38.3911C42.7882 36.0084 41.7237 31.0406 39.0328 28.433C38.7322 28.1419 38.2142 28.1724 37.9745 28.5068Z" fill="black"/>
</svg>
