<svg width="48" height="49" viewBox="0 0 48 49" fill="none" xmlns="http://www.w3.org/2000/svg">
<g clip-path="url(#clip0_27_131983)">
<path d="M24 0.0588379C37.2548 0.0588379 48 10.804 48 24.0588C48 37.3137 37.2548 48.0588 24 48.0588C10.7452 48.0588 0 37.3137 0 24.0588C0 10.804 10.7452 0.0588379 24 0.0588379ZM24 4.42247C13.1551 4.42247 4.36364 13.214 4.36364 24.0588C4.36364 34.9037 13.1551 43.6952 24 43.6952C34.8449 43.6952 43.6364 34.9037 43.6364 24.0588C43.6364 13.214 34.8449 4.42247 24 4.42247ZM19.1273 11.6766L22.7626 12.4214C22.6634 13.121 22.4273 13.9129 22.0543 14.7972C23.2431 14.3689 24.3806 14.0535 25.466 13.8506C27.8531 13.4042 29.7082 13.1497 31.5472 13.1497C33.3862 13.1497 34.8014 13.1683 36.5962 14.585C37.7129 15.4664 38.3999 16.6259 38.6572 18.0633L38.7058 18.3756V31.0485C38.7058 31.8948 38.4803 32.7683 38.0292 33.669C37.6064 34.5134 36.7928 34.9908 35.5885 35.1012L35.3424 35.1184H27.8024C27.3202 33.7092 27.3202 32.8773 27.8024 32.6225C28.5256 32.2404 31.3051 33.2652 32.5259 32.6225C33.2855 32.2226 33.6722 31.4783 33.6858 30.3895L33.6831 30.1509V18.1912C33.6831 16.3382 32.5496 15.0574 29.0578 15.2479C27.1624 15.3512 24.9495 15.8219 22.4192 16.6598L23.2411 16.9098L24.2327 17.2474V17.5732C24.2327 18.125 24.6428 18.5826 25.1772 18.6543L25.3025 18.6639L32.6004 18.8046V20.8132H27.1449V23.3122H32.6004V24.8649H27.0854L27.1449 29.7386C27.6591 29.7777 28.1662 29.673 28.6661 29.4247C29.0013 29.2582 29.2635 29.0167 29.4526 28.7004L29.0889 27.9812C29.0885 27.9805 29.0881 27.9797 29.0877 27.979C28.8361 27.4793 29.0048 26.878 29.4611 26.5777L29.5714 26.514L30.8247 25.8828C30.8745 25.8577 30.9261 25.8365 30.9791 25.8193C31.5114 25.6469 32.0798 25.9054 32.307 26.4021L32.3532 26.5208L33.0964 28.8147C33.2436 29.269 33.0774 29.7607 32.6981 30.0348L32.5894 30.104L31.689 30.6054C31.6765 30.6124 31.6639 30.6191 31.6511 30.6256C31.152 30.8784 30.5504 30.711 30.249 30.2555L30.185 30.1453L30.1714 30.1218C29.6195 30.7205 29.0968 31.1795 28.6034 31.4987C27.7867 32.027 26.9058 32.4573 25.8899 32.5253L25.6095 32.5347H20.3553C19.9292 32.5347 19.1567 32.2583 18.3633 31.4987C17.8785 31.0345 17.5835 30.3105 17.4785 29.3268L17.4545 29.0521V26.3105H21.6108C21.6443 27.4961 21.7552 28.41 21.9437 29.0521C22.1196 29.6515 22.5858 29.8907 23.3422 29.77L23.5088 29.7386V24.8649H17.4545V23.3122H23.5088V20.8132H22.3509L20.5157 23.1086L18.5174 21.845C19.7463 20.4596 20.498 19.5624 20.7724 19.1535C21.0468 18.7446 21.0468 18.0402 20.7724 17.0402L20.8189 17.2221L20.7778 17.2389C20.07 18.3087 19.1326 19.3457 17.9657 20.3497L17.5827 20.6713L15.0765 18.1953C16.2176 17.3092 17.053 16.4851 17.5827 15.723C18.1124 14.9609 18.6273 13.6121 19.1273 11.6766ZM11.4318 17.8469L15.0085 21.2088C16.3057 22.4282 16.7268 24.3066 16.093 25.954L16.0043 26.1675L12.2945 34.4757L8.2069 31.6354L13.409 26.1265C13.4785 26.0529 13.5428 25.9746 13.6014 25.892C14.2643 24.9588 14.0893 23.6829 13.2279 22.9593L13.0862 22.8498L9.37195 20.2115L11.4318 17.8469ZM13.6364 10.9679C15.1426 10.9679 16.3636 12.189 16.3636 13.6952C16.3636 15.2014 15.1426 16.4225 13.6364 16.4225C12.1301 16.4225 10.9091 15.2014 10.9091 13.6952C10.9091 12.189 12.1301 10.9679 13.6364 10.9679Z" fill="black"/>
</g>
<defs>
<clipPath id="clip0_27_131983">
<rect width="48" height="48" fill="white" transform="translate(0 0.0588379)"/>
</clipPath>
</defs>
</svg>
