<svg width="48" height="48" viewBox="0 0 48 48" fill="none" xmlns="http://www.w3.org/2000/svg">
<path d="M12.5613 16.411C9.21714 19.6609 2.16275 29.1461 7.36204 35.9318C12.5613 42.7174 27.2816 40.0999 33.3585 35.3194C39.4354 30.5388 38.8355 27.5849 37.5179 26.2834C36.2004 24.9818 32.3551 26.2971 31.2788 24.5261C30.2025 22.7551 33.1952 18.3311 30.6447 16.9312C28.0943 15.5313 23.6903 20.5811 21.701 19.269C19.7117 17.9569 23.8902 13.6729 21.701 12.4385C19.5118 11.204 15.9055 13.1611 12.5613 16.411Z" stroke="black" stroke-width="4.15943" stroke-linejoin="round"/>
<path d="M43.3782 16.5159C43.143 13.3849 41.7985 10.5632 39.7367 8.44283C37.7242 6.37317 35.0282 4.97156 32.0132 4.60236" stroke="black" stroke-width="4.15943" stroke-linecap="round"/>
<path d="M37.2914 16.9312C37.1623 15.2915 36.4242 13.8138 35.2923 12.7033C34.1875 11.6195 32.7074 10.8854 31.0522 10.6921" stroke="black" stroke-width="4.15943" stroke-linecap="round"/>
<path d="M25 29.9999C25 32.2091 22.3137 33.9999 19 33.9999C15.6863 33.9999 13 32.2091 13 29.9999C13 27.7908 15.6863 25.9999 19 25.9999C22.3137 25.9999 25 27.7908 25 29.9999Z" fill="black"/>
</svg>
