<svg width="48" height="48" viewBox="0 0 48 48" fill="none" xmlns="http://www.w3.org/2000/svg">
<path d="M4 33C4 31.8954 4.89543 31 6 31H12V24L24 16L36 24V31H42C43.1046 31 44 31.8954 44 33V42C44 43.1046 43.1046 44 42 44H4V33Z" stroke="black" stroke-width="4" stroke-linejoin="round"/>
<path d="M24 6V16" stroke="black" stroke-width="4" stroke-linecap="round"/>
<path d="M36 12.0001V6.00008C36 6.00008 34.5 9.00009 30 6.00008C25.5 3.00008 24 6.00008 24 6.00008V12.0001C24 12.0001 25.5 9.00008 30 12.0001C34.5 15.0001 36 12.0001 36 12.0001Z" stroke="black" stroke-width="4" stroke-linecap="round" stroke-linejoin="round"/>
<path d="M28 44V31H20L20 44" stroke="black" stroke-width="4" stroke-linecap="round" stroke-linejoin="round"/>
<path d="M18 44L30 44" stroke="black" stroke-width="4" stroke-linecap="round" stroke-linejoin="round"/>
</svg>
