<svg width="48" height="48" viewBox="0 0 48 48" fill="none" xmlns="http://www.w3.org/2000/svg">
<path d="M9.85831 31.071C9.07726 30.2899 9.07726 29.0236 9.85831 28.2425L12.808 25.2928C13.1831 24.9177 13.6918 24.707 14.2223 24.707L16.8081 24.707C17.3385 24.707 17.8472 24.4963 18.2223 24.1212L24.1218 18.2217C24.4969 17.8467 24.7076 17.3379 24.7076 16.8075L24.7076 14.2217C24.7075 13.6913 24.9183 13.1826 25.2933 12.8075L28.2431 9.85775C29.0241 9.0767 30.2905 9.0767 31.0715 9.85775L38.1426 16.9288C38.9236 17.7099 38.9236 18.9762 38.1426 19.7572L35.1928 22.707C34.8178 23.0821 34.3091 23.2928 33.7786 23.2928L31.1928 23.2928C30.6624 23.2928 30.1537 23.5035 29.7786 23.8786L23.8791 29.7781C23.5041 30.1532 23.2934 30.6619 23.2934 31.1923L23.2933 33.7781C23.2933 34.3085 23.0826 34.8172 22.7076 35.1923L19.7578 38.142C18.9768 38.9231 17.7104 38.9231 16.9294 38.142L9.85831 31.071Z" stroke="black" stroke-width="4" stroke-linejoin="round"/>
<path d="M7.02979 40.9705L13.3937 34.6065" stroke="black" stroke-width="4" stroke-linecap="round" stroke-linejoin="round"/>
<path d="M34.6069 13.3933L40.9709 7.02935" stroke="black" stroke-width="4" stroke-linecap="round" stroke-linejoin="round"/>
</svg>
