<svg width="48" height="48" viewBox="0 0 48 48" fill="none" xmlns="http://www.w3.org/2000/svg">
<path d="M10.5649 30.3641L4.20093 36.728L11.272 43.7991L17.636 37.4351" stroke="black" stroke-width="4" stroke-linecap="round" stroke-linejoin="round"/>
<path d="M21.8787 19.0503L36.7279 4.20105L43.799 11.2721L28.9497 26.1214" stroke="black" stroke-width="4" stroke-linecap="round" stroke-linejoin="round"/>
<path d="M9.85782 29.6569C9.07677 28.8758 9.07677 27.6095 9.85782 26.8285L18.3431 18.3432C19.1241 17.5621 20.3905 17.5621 21.1715 18.3432L29.6568 26.8285C30.4379 27.6095 30.4379 28.8758 29.6568 29.6569L21.1715 38.1422C20.3905 38.9232 19.1241 38.9232 18.3431 38.1422L9.85782 29.6569Z" stroke="black" stroke-width="4" stroke-linecap="round" stroke-linejoin="round"/>
<path d="M25.4141 22.5859L18.343 29.657" stroke="black" stroke-width="4" stroke-linecap="round" stroke-linejoin="round"/>
<path d="M31.7781 9.15086L38.8491 16.2219" stroke="black" stroke-width="4" stroke-linecap="round" stroke-linejoin="round"/>
<path d="M26.8283 14.1006L33.8994 21.1716" stroke="black" stroke-width="4" stroke-linecap="round" stroke-linejoin="round"/>
<path d="M15.5147 21.1716L26.8284 32.4854" stroke="black" stroke-width="4" stroke-linecap="round" stroke-linejoin="round"/>
</svg>
