<svg width="48" height="48" viewBox="0 0 48 48" fill="none" xmlns="http://www.w3.org/2000/svg">
<path d="M24 40.8334C26.123 42.7336 28.9266 43.889 32 43.889C38.6274 43.889 44 38.5164 44 31.889C44 26.5881 40.5629 22.09 35.7957 20.5017" stroke="black" stroke-width="4" stroke-linecap="round" stroke-linejoin="round"/>
<path d="M27.1711 27.499C27.7058 28.8586 27.9995 30.3395 27.9995 31.8889C27.9995 38.5163 22.6269 43.8889 15.9995 43.8889C9.37209 43.8889 3.99951 38.5163 3.99951 31.8889C3.99951 26.5739 7.45492 22.066 12.2418 20.489" stroke="black" stroke-width="4" stroke-linecap="round" stroke-linejoin="round"/>
<path d="M24 27.8892C30.6274 27.8892 36 22.5166 36 15.8892C36 9.26174 30.6274 3.88916 24 3.88916C17.3726 3.88916 12 9.26174 12 15.8892C12 22.5166 17.3726 27.8892 24 27.8892Z" stroke="black" stroke-width="4" stroke-linecap="round" stroke-linejoin="round"/>
</svg>
