<svg width="48" height="48" viewBox="0 0 48 48" fill="none" xmlns="http://www.w3.org/2000/svg">
<path d="M26.1219 37.4349C26.1219 37.4349 37.4356 26.1212 40.264 23.2928C43.0924 20.4644 44.5066 13.3933 39.5569 8.44355C34.6071 3.49381 27.5361 4.90802 24.7076 7.73645C21.8792 10.5649 7.02998 25.4141 5.61576 26.8283C4.20155 28.2425 2.08023 33.1923 6.32287 37.4349C10.5655 41.6776 15.5153 39.5563 16.9295 38.142C18.3437 36.7278 33.9 21.1715 35.3142 19.7573C36.7285 18.343 37.4356 14.8075 35.3142 12.6862C33.1929 10.5649 29.6574 11.272 28.2432 12.6862C26.829 14.1004 14.8082 26.1212 14.8082 26.1212" stroke="black" stroke-width="4" stroke-linecap="round" stroke-linejoin="round"/>
</svg>
