<svg width="48" height="48" viewBox="0 0 48 48" fill="none" xmlns="http://www.w3.org/2000/svg">
<g clip-path="url(#clip0_8683_6831)">
<path d="M16.1005 25.8284L38.7279 6.02943C38.7279 6.02943 40.8492 3.90811 42.9706 6.02943C45.0919 8.15075 42.9706 10.2721 42.9706 10.2721L23.1716 32.8995L16.1005 25.8284Z" stroke="black" stroke-width="4" stroke-linejoin="round"/>
<path d="M22.4645 20.8787L28.1213 26.5355" stroke="black" stroke-width="4" stroke-linecap="round" stroke-linejoin="round"/>
<path d="M5.4939 30.7782L16.1005 25.8284L23.1716 32.8995L18.2218 43.5061C18.2218 43.5061 13.2721 44.2132 9.02944 39.9706C4.7868 35.7279 5.4939 30.7782 5.4939 30.7782Z" stroke="black" stroke-width="4" stroke-linejoin="round"/>
<path d="M6.90812 36.4352L11.8579 34.3139" stroke="black" stroke-width="4" stroke-linecap="round" stroke-linejoin="round"/>
<path d="M12.565 42.0919L13.9792 39.2634" stroke="black" stroke-width="4" stroke-linecap="round" stroke-linejoin="round"/>
<path d="M18.9289 23.3536L21.7574 20.8787L24.5858 18.4038" stroke="black" stroke-width="4" stroke-linejoin="round"/>
<path d="M30.5962 24.4143L28.1213 27.2427L25.6464 30.0712" stroke="black" stroke-width="4" stroke-linejoin="round"/>
</g>
<defs>
<clipPath id="clip0_8683_6831">
<rect width="48" height="48" fill="white"/>
</clipPath>
</defs>
</svg>
