<svg width="48" height="48" viewBox="0 0 48 48" fill="none" xmlns="http://www.w3.org/2000/svg">
<g clip-path="url(#clip0_8683_6852)">
<path d="M38.8474 5.33887C31.8838 6.56675 24.2641 12.2184 21.3138 19.9188C18.0889 28.336 17.2164 29.2574 13.2838 31.3869C9.50151 33.435 4.5994 35.0723 4.5994 35.0723" stroke="black" stroke-width="4" stroke-linecap="round" stroke-linejoin="round"/>
<path d="M9.63791 33.1067C13.8573 30.5677 19.3458 33.19 21.8033 34.9107C24.2607 36.6314 26.7594 36.5498 28.1933 34.502C29.6273 32.4541 28.8493 30.0782 26.3919 28.3575C24.7536 27.2103 19.2651 24.588 21.3138 19.9187" stroke="black" stroke-width="4" stroke-linecap="round" stroke-linejoin="round"/>
<path d="M43.1887 9.59952C32.8661 12.1377 28.7694 15.3731 24.7535 27.2104" stroke="black" stroke-width="4" stroke-linecap="round" stroke-linejoin="round"/>
<path d="M20.9841 34.3372C20.2056 36.0301 18.6894 40.0551 18.8529 42.6111" stroke="black" stroke-width="4" stroke-linecap="round" stroke-linejoin="round"/>
</g>
<defs>
<clipPath id="clip0_8683_6852">
<rect width="48" height="48" fill="white"/>
</clipPath>
</defs>
</svg>
