<?xml version="1.0" standalone="no"?>
<!DOCTYPE svg PUBLIC "-//W3C//DTD SVG 1.1//EN" "http://www.w3.org/Graphics/SVG/1.1/DTD/svg11.dtd" >
<svg xmlns="http://www.w3.org/2000/svg" xmlns:xlink="http://www.w3.org/1999/xlink" version="1.1">
<metadata>
Created by FontForge 20230101 at Sun Apr 30 12:57:22 2023
 By Macbook pro
</metadata>
<defs>
<font id="xiroicon" horiz-adv-x="459" >
  <font-face 
    font-family="xiroicon"
    font-weight="400"
    font-stretch="normal"
    units-per-em="512"
    panose-1="2 0 5 3 0 0 0 0 0 0"
    ascent="448"
    descent="-64"
    bbox="-1.26087 -59 502 443"
    underline-thickness="25"
    underline-position="-50"
    unicode-range="U+002D-FD1C"
  />
<missing-glyph horiz-adv-x="187" 
d="M17 0v341h136v-341h-136zM34 17h102v307h-102v-307z" />
    <glyph glyph-name="archive-add" unicode="archive&#x2d;add" horiz-adv-x="403" 
d="M254 205h-106q-7 0 -11.5 4.5t-4.5 11t4.5 11.5t11.5 5h106q7 0 11.5 -5t4.5 -11.5t-4.5 -11t-11.5 -4.5zM201.5 150q-6.5 0 -11.5 5t-5 11v107q0 6 5 11t11.5 5t11 -5t4.5 -11v-107q0 -6 -4.5 -11t-11 -5zM352 -37q-17 0 -34 9l-104 58q-13 7 -25 0l-104 -58
q-33 -18 -59 -3t-26 53v301q0 41 29 69.5t69 28.5h206q41 0 70 -28.5t29 -69.5v-301q0 -38 -26 -53q-11 -6 -25 -6zM201 65q16 0 28 -7l104 -58q17 -9 27 -3t10 25v301q0 27 -19.5 46.5t-46.5 19.5h-206q-27 0 -46.5 -19.5t-19.5 -46.5v-301q0 -20 10 -25q11 -6 27 3l104 58
q12 7 28 7z" />
    <glyph glyph-name="archive-minus" unicode="archive&#x2d;minus" horiz-adv-x="403" 
d="M255 205h-107q-6 0 -11 4.5t-5 11t5 11.5t11 5h107q6 0 11 -5t5 -11.5t-5 -11t-11 -4.5zM51 -37q-14 0 -25 6q-26 15 -26 53v301q0 41 29 69.5t69 28.5h206q41 0 70 -28.5t29 -69.5v-301q0 -38 -26 -53t-59 3l-104 58q-13 7 -25 0l-104 -58q-18 -9 -34 -9zM99 389
q-28 0 -47.5 -19.5t-19.5 -46.5v-301q0 -20 10 -25q10 -6 28 3l104 58q11 7 27 7t28 -7l104 -58q17 -9 27.5 -3t10.5 25v301q0 27 -19.5 46.5t-47.5 19.5h-205z" />
    <glyph glyph-name="archive-slash" unicode="archive&#x2d;slash" 
d="M16 -37q-7 0 -11.5 4.5t-4.5 11t5 11.5l426 427q5 4 11.5 4t11.5 -4.5t5 -11t-5 -11.5l-427 -427q-4 -4 -11 -4zM376 -37q-18 0 -38 10l-139 87q-13 9 -4.5 22.5t21.5 4.5l139 -86q19 -11 31 -4t12 31v234q0 7 5 11.5t11.5 4.5t11 -4.5t4.5 -11.5v-234q0 -42 -28 -58
q-11 -7 -26 -7zM44.5 6q-6.5 0 -11.5 5t-5 11v301q0 41 29 69.5t69 28.5h206q47 0 77 -36q10 -12 -3 -23q-12 -10 -22 3q-20 24 -52 24h-206q-27 0 -46.5 -19.5t-19.5 -46.5v-301q0 -6 -4.5 -11t-11 -5z" />
    <glyph glyph-name="archive-tick" unicode="archive&#x2d;tick" horiz-adv-x="403" 
d="M51 -37q-14 0 -25 6q-26 15 -26 53v301q0 41 29 69.5t69 28.5h206q41 0 70 -28.5t29 -69.5v-301q0 -38 -26 -53t-59 3l-104 58q-13 7 -25 0l-104 -58q-18 -9 -34 -9zM99 389q-28 0 -47.5 -19.5t-19.5 -46.5v-301q0 -20 10 -25q11 -6 28 3l104 58q11 7 27 7t28 -7l104 -58
q17 -9 27.5 -3t10.5 25v301q0 27 -19.5 46.5t-47.5 19.5h-205zM182 165q-7 0 -11 5l-32 32q-5 5 -5 11.5t4.5 11t11.5 4.5t11 -4l21 -21l74 74q5 5 11.5 5t11 -5t4.5 -11.5t-4 -11.5l-86 -85q-4 -5 -11 -5z" />
    <glyph glyph-name="archive" unicode="archive" 
d="M293 -37h-128q-87 0 -126 39t-39 126v128q0 87 39 126t126 39h128q87 0 126.5 -39t39.5 -126v-128q0 -87 -39.5 -126t-126.5 -39zM165 389q-73 0 -103 -29.5t-30 -103.5v-128q0 -74 30 -103.5t103 -29.5h128q74 0 104 29.5t30 103.5v128q0 74 -30 103.5t-104 29.5h-128z
M357.5 123q-6.5 0 -11.5 4.5t-5 11.5q0 11 -7.5 18.5t-18.5 7.5h-171q-11 0 -19 -7.5t-8 -18.5q0 -7 -4.5 -11.5t-11 -4.5t-11.5 4.5t-5 11.5v144q0 24 17.5 41t41.5 17h171q24 0 41 -17t17 -41v-144q0 -7 -4.5 -11.5t-11 -4.5zM144 197h171q14 0 26 -6v92q0 11 -7.5 18.5
t-18.5 7.5h-171q-11 0 -19 -7.5t-8 -18.5v-92q13 6 27 6zM379 96h-22q-6 0 -11 4.5t-5 11.5t5 11.5t11 4.5h22q6 0 11 -4.5t5 -11.5t-5 -11.5t-11 -4.5zM101 96h-21q-7 0 -11.5 4.5t-4.5 11.5t4.5 11.5t11.5 4.5h21q7 0 11.5 -4.5t4.5 -11.5t-4.5 -11.5t-11.5 -4.5z
M357.5 133q-6.5 0 -11.5 5t-5 11v64q0 11 -7.5 19t-18.5 8h-171q-11 0 -19 -8t-8 -19v-64q0 -6 -4.5 -11t-11 -5t-11.5 5t-5 11v64q0 25 17.5 42t41.5 17h171q24 0 41 -17t17 -42v-64q0 -6 -4.5 -11t-11 -5zM229.5 43q-24.5 0 -43.5 15t-24 38h-61q-6 0 -11 4.5t-5 11.5v27
q0 24 17.5 41t41.5 17h171q24 0 41 -17t17 -41v-27q0 -7 -4.5 -11.5t-11.5 -4.5h-60q-6 -23 -24.5 -38t-43 -15zM117 128h59q7 0 11.5 -4.5t4.5 -11.5q0 -15 11 -26t26.5 -11t26.5 11t11 26q0 7 4.5 11.5t11.5 4.5h58v11q0 11 -7.5 18.5t-18.5 7.5h-171q-11 0 -19 -7.5
t-8 -18.5v-11z" />
    <glyph glyph-name="book-saved" unicode="book&#x2d;saved" horiz-adv-x="458" 
d="M229 -23q-10 0 -18 4q-30 17 -75.5 32t-78.5 19l-6 1q-21 2 -36 19.5t-15 38.5v258q0 26 19 43t44 15q35 -3 81.5 -18.5t76.5 -33.5l5 -3q4 -2 6 0l4 2q21 13 51 25q8 3 15 -1.5t7 -13.5v-57l18 12q9 6 18 0l17 -12v82q0 13 13 15q11 2 18 3h3q25 2 43 -15q19 -17 19 -44
v-257q0 -22 -15 -39t-36 -19l-7 -1q-33 -4 -78.5 -19t-74.5 -32q-7 -4 -18 -4zM58 375q-10 0 -18 -7t-8 -19v-258q0 -10 7 -17.5t16 -9.5h6q36 -5 84.5 -21t79.5 -33q4 -2 6 -1q32 18 80.5 34t84.5 20l7 1q10 1 16.5 9t6.5 18v257q0 12 -8 20t-20 7h-3v-98q0 -9 -9 -13.5
t-16 0.5l-34 23l-34 -23q-8 -5 -16 -1q-9 5 -9 14v63q-13 -7 -24 -13l-4 -3q-20 -12 -40 0l-5 3q-27 17 -69.5 31.5t-73.5 16.5h-3zM229.5 -5q-6.5 0 -11.5 4.5t-5 11.5v320q0 6 5 11t11.5 5t11 -5t4.5 -11v-320q0 -7 -4.5 -11.5t-11 -4.5zM378 261q-4 0 -9 3l-33 23
l-34 -23q-8 -5 -16 -1q-9 5 -9 14v87q0 11 10 15q47 19 89 25q7 2 13 -3q5 -5 5 -12v-112q0 -9 -8 -14q-4 -2 -8 -2zM336 322q5 0 9 -3l17 -12v62q-26 -6 -53 -16v-46l18 12q4 3 9 3z" />
    <glyph glyph-name="book-square" unicode="book&#x2d;square" 
d="M293 -37h-128q-87 0 -126 39t-39 126v128q0 87 39 126t126 39h128q87 0 126.5 -39t39.5 -126v-128q0 -87 -39.5 -126t-126.5 -39zM165 389q-73 0 -103 -29.5t-30 -103.5v-128q0 -74 30 -103.5t103 -29.5h128q74 0 104 29.5t30 103.5v128q0 74 -30 103.5t-104 29.5h-128z
M229 44q-8 0 -14 3q-46 25 -96 32l-4 1q-16 1 -27 13.5t-11 28.5v165q0 19 14 31.5t33 11.5q23 -2 53 -12t50 -22l2 -2l1 1q20 13 50 23t53 12h3q17 2 31 -11t14 -32v-164q0 -16 -11 -28.5t-27 -14.5l-4 -1q-51 -6 -96 -31q-5 -4 -14 -4zM120 298q-4 0 -7 -3q-4 -3 -4 -8
v-165q0 -4 3 -7t7 -4h4q57 -8 107 -35q19 11 50 21t55 14h5q3 1 6 4t3 7v164q0 5 -3 9q-4 3 -9 2h-2q-19 -1 -45 -10t-43 -19l-2 -2q-16 -10 -31 0l-4 2q-16 10 -42.5 19t-46.5 11h-1zM229.5 55q-6.5 0 -11.5 5t-5 11v204q0 7 5 11.5t11.5 4.5t11 -4.5t4.5 -11.5v-204
q0 -6 -4.5 -11t-11 -5z" />
    <glyph glyph-name="receipt-square" unicode="receipt&#x2d;square" 
d="M293 -37h-128q-87 0 -126 39t-39 126v128q0 87 39 126t126 39h128q87 0 126.5 -39t39.5 -126v-128q0 -87 -39.5 -126t-126.5 -39zM165 389q-73 0 -103 -29.5t-30 -103.5v-128q0 -74 30 -103.5t103 -29.5h128q74 0 104 29.5t30 103.5v128q0 74 -30 103.5t-104 29.5h-128z
M229.5 51q-18.5 0 -31.5 16l-13 17q-2 3 -5 3t-5 -2l-12 11l12 -11q-24 -26 -46 -17t-22 45v142q0 44 16.5 61.5t58.5 17.5h95q42 0 58.5 -17.5t16.5 -61.5v-142q0 -37 -22 -45q-22 -9 -46 17q-3 2 -6 2q-2 0 -5 -3l-12 -17q-13 -16 -31.5 -16zM180 119h2q18 -1 29 -16
l13 -17q5 -7 11 0l12 17q11 15 29 16t31 -13q7 -7 11 -8l0.5 1.5t1 5.5t0.5 8v141q0 32 -7.5 39.5t-36.5 7.5h-94q-29 0 -36.5 -7.5t-7.5 -39.5v-141q0 -10 3 -16q0 1 1.5 2t4 3t4.5 4v1q13 12 29 12z" />
    <glyph glyph-name="save-2" unicode="save&#x2d;&#x32;" 
d="M44 -37q-12 0 -22 5q-22 13 -22 46v242q0 35 24 59t58 24h166q34 0 58.5 -24t24.5 -59v-242q0 -32 -23 -46q-22 -13 -51 3l-83 47q-3 1 -8.5 1t-8.5 -1l-84 -47q-15 -8 -29 -8zM83 307q-21 0 -36 -15t-15 -36v-242q0 -14 6.5 -18t19.5 3l84 47q24 13 47 0l84 -47
q12 -7 19 -3t7 18v242q0 21 -15 36t-35 15h-166zM287 -37q-14 0 -29 8l-84 46q-3 2 -8.5 2t-8.5 -2l-84 -46q-28 -16 -50.5 -3t-22.5 46v242q0 34 24 58t59 24h166q34 0 58 -24t24 -58v-242q0 -33 -23 -46q-9 -5 -21 -5zM165.5 51q13.5 0 23.5 -6l84 -46q13 -7 19 -3
q7 4 7 18v242q0 21 -15 36t-35 15h-166q-21 0 -36 -15t-15 -36v-242q0 -14 6.5 -18t19.5 3l84 47q10 5 23.5 5zM415 45q-14 0 -29 9l-79 44q-8 4 -8 13v145q0 21 -15 35.5t-35 14.5h-105q-6 0 -11 5t-5 11v17q0 34 24 58t59 24h166q34 0 58 -24t24 -58v-243q0 -32 -23 -45
q-9 -6 -21 -6zM331 121l70 -39q13 -7 19.5 -3t6.5 18v242q0 21 -15 35.5t-35 14.5h-166q-21 0 -36 -14.5t-15 -35.5h89q34 0 58 -24.5t24 -58.5v-135z" />
    <glyph glyph-name="save-add" unicode="save&#x2d;add" 
d="M287 -37q-14 0 -30 8l-83 46q-3 2 -8.5 2t-8.5 -2l-84 -46q-28 -16 -50.5 -3t-22.5 46v242q0 34 24 58t58 24h166q34 0 58.5 -24t24.5 -58v-242q0 -33 -23 -46q-10 -5 -21 -5zM165.5 51q13.5 0 23.5 -6l84 -46q12 -7 19 -3t7 18v242q0 21 -15 36t-36 15h-166
q-20 0 -35 -15t-15 -36v-242q0 -14 6.5 -18t19.5 3l83 47q11 5 24.5 5zM415 45q-14 0 -30 9l-78 44q-8 4 -8 13v145q0 21 -15 35.5t-36 14.5h-104q-7 0 -11.5 5t-4.5 11v17q0 34 24 58t58 24h166q34 0 58.5 -24t24.5 -58v-243q0 -32 -23 -45q-10 -6 -21 -6zM331 121l70 -39
q12 -7 19 -3t7 18v242q0 21 -15 35.5t-36 14.5h-166q-20 0 -35 -14.5t-15 -35.5h88q34 0 58.5 -24.5t24.5 -58.5v-135zM208 176h-85q-7 0 -11.5 4.5t-4.5 11.5t4.5 11.5t11.5 4.5h85q7 0 11.5 -4.5t4.5 -11.5t-4.5 -11.5t-11.5 -4.5zM165.5 133q-6.5 0 -11.5 5t-5 11v86
q0 6 5 11t11.5 5t11 -5t4.5 -11v-86q0 -6 -4.5 -11t-11 -5z" />
    <glyph glyph-name="save-minus" unicode="save&#x2d;minus" 
d="M287 -37q-14 0 -30 8l-83 46q-3 2 -8.5 2t-8.5 -2l-84 -46q-28 -16 -50.5 -3t-22.5 46v242q0 34 24 58t58 24h166q34 0 58.5 -24t24.5 -58v-242q0 -33 -23 -46q-10 -5 -21 -5zM165.5 51q13.5 0 23.5 -6l84 -46q12 -7 19 -3t7 18v242q0 21 -15 36t-36 15h-166
q-20 0 -35 -15t-15 -36v-242q0 -14 6.5 -18t19.5 3l83 47q11 5 24.5 5zM415 45q-14 0 -30 9l-78 44q-8 4 -8 13v145q0 21 -15 35.5t-36 14.5h-104q-7 0 -11.5 5t-4.5 11v17q0 34 24 58t58 24h166q34 0 58.5 -24t24.5 -58v-243q0 -32 -23 -45q-10 -6 -21 -6zM331 121l70 -39
q12 -7 19 -3t7 18v242q0 21 -15 35.5t-36 14.5h-166q-20 0 -35 -14.5t-15 -35.5h88q34 0 58.5 -24.5t24.5 -58.5v-135zM208 176h-85q-7 0 -11.5 4.5t-4.5 11.5t4.5 11.5t11.5 4.5h85q7 0 11.5 -4.5t4.5 -11.5t-4.5 -11.5t-11.5 -4.5z" />
    <glyph glyph-name="save-remove" unicode="save&#x2d;remove" 
d="M287 -37q-14 0 -29 8l-84 46q-3 2 -8.5 2t-8.5 -2l-84 -46q-28 -16 -50.5 -3t-22.5 46v242q0 34 24 58t58 24h166q34 0 58.5 -24t24.5 -58v-242q0 -33 -23 -46q-9 -5 -21 -5zM165.5 51q13.5 0 23.5 -6l84 -46q13 -7 19 -3q7 4 7 18v242q0 21 -14.5 36t-35.5 15h-166
q-21 0 -36 -15t-15 -36v-242q0 -14 6.5 -18t19.5 3l84 47q10 5 23.5 5zM135.5 146q-6.5 0 -11 4.5t-4.5 11.5t4 11l61 61q4 4 10.5 4t11.5 -4.5t5 -11t-5 -11.5l-60 -60q-5 -5 -11.5 -5zM196 146q-7 0 -12 5l-60 60q-5 5 -5 11.5t5 11t11.5 4.5t11.5 -4l60 -61q5 -4 5 -11
t-5 -11q-4 -5 -11 -5zM415 45q-14 0 -29 9l-79 44q-8 4 -8 13v145q0 21 -15 35.5t-35 14.5h-105q-6 0 -11 5t-5 11v17q0 34 24 58t59 24h166q34 0 58 -24t24 -58v-243q0 -32 -23 -45q-9 -6 -21 -6zM331 121l70 -39q13 -7 19 -3q7 4 7 18v242q0 21 -14.5 35.5t-35.5 14.5
h-166q-21 0 -36 -14.5t-15 -35.5h89q34 0 58 -24.5t24 -58.5v-135z" />
    <glyph glyph-name="arrange-circle-2" unicode="arrange&#x2d;circle&#x2d;&#x32;" 
d="M274.5 72q-6.5 0 -11.5 5t-5 11.5t5 11.5l65 64q5 5 11.5 5t11 -4.5t4.5 -11t-4 -11.5l-65 -65q-5 -5 -11.5 -5zM339 137h-220q-6 0 -11 5t-5 11.5t5 11t11 4.5h220q7 0 11.5 -4.5t4.5 -11t-4.5 -11.5t-11.5 -5zM119.5 215q-6.5 0 -11.5 4.5t-5 11t5 11.5l65 65
q5 5 11.5 5t11 -5t4.5 -11.5t-4 -11.5l-65 -64q-5 -5 -11.5 -5zM339 215h-220q-6 0 -11 4.5t-5 11t5 11.5t11 5h220q7 0 11.5 -5t4.5 -11.5t-4.5 -11t-11.5 -4.5zM229 -37q-95 0 -162 67t-67 162t67 162t162 67t162.5 -67t67.5 -162t-67.5 -162t-162.5 -67zM229.5 389
q-81.5 0 -139.5 -57.5t-58 -139.5t58 -139.5t139.5 -57.5t139.5 57.5t58 139.5t-58 139.5t-139.5 57.5z" />
    <glyph glyph-name="arrange-circle" unicode="arrange&#x2d;circle" 
d="M333 221q-7 0 -11 5l-65 65q-5 4 -5 11t4.5 11.5t11.5 4.5t11 -5l65 -65q5 -4 5 -11t-5 -11q-5 -5 -11 -5zM268.5 66q-6.5 0 -11.5 5t-5 11v220q0 7 5 11.5t11.5 4.5t11 -4.5t4.5 -11.5v-220q0 -7 -4.5 -11.5t-11 -4.5zM191 66q-7 0 -12 5l-65 65q-4 4 -4 11t4.5 11.5
t11 4.5t11.5 -5l65 -65q4 -4 4 -11t-4 -11q-5 -5 -11 -5zM190.5 66q-6.5 0 -11.5 5t-5 11v220q0 7 5 11.5t11.5 4.5t11 -4.5t4.5 -11.5v-220q0 -7 -4.5 -11.5t-11 -4.5zM229 -37q-95 0 -162 67t-67 162t67 162t162 67t162.5 -67t67.5 -162t-67.5 -162t-162.5 -67zM229.5 389
q-81.5 0 -139.5 -57.5t-58 -139.5t58 -139.5t139.5 -57.5t139.5 57.5t58 139.5t-58 139.5t-139.5 57.5z" />
    <glyph glyph-name="arrange-square-2" unicode="arrange&#x2d;square&#x2d;&#x32;" 
d="M293 -37h-128q-87 0 -126 39t-39 126v128q0 87 39 126t126 39h128q87 0 126.5 -39t39.5 -126v-128q0 -87 -39.5 -126t-126.5 -39zM165 389q-73 0 -103 -29.5t-30 -103.5v-128q0 -74 30 -103.5t103 -29.5h128q74 0 104 29.5t30 103.5v128q0 74 -30 103.5t-104 29.5h-128z
M191 66q-7 0 -12 5l-65 65q-4 4 -4 11t4.5 11.5t11 4.5t11.5 -5l65 -65q4 -4 4 -11t-4 -11q-5 -5 -11 -5zM190.5 66q-6.5 0 -11.5 5t-5 11v220q0 6 5 11t11.5 5t11 -5t4.5 -11v-220q0 -7 -4.5 -11.5t-11 -4.5zM333 221q-7 0 -11 5l-65 65q-5 4 -5 11t4.5 11.5t11.5 4.5
t11 -5l65 -65q5 -4 5 -11t-5 -11q-5 -5 -11 -5zM268.5 66q-6.5 0 -11.5 5t-5 11v220q0 6 5 11t11.5 5t11 -5t4.5 -11v-220q0 -7 -4.5 -11.5t-11 -4.5z" />
    <glyph glyph-name="arrange-square" unicode="arrange&#x2d;square" 
d="M293 -37h-128q-87 0 -126 39t-39 126v128q0 87 39 126t126 39h128q87 0 126.5 -39t39.5 -126v-128q0 -87 -39.5 -126t-126.5 -39zM165 389q-73 0 -103 -29.5t-30 -103.5v-128q0 -74 30 -103.5t103 -29.5h128q74 0 104 29.5t30 103.5v128q0 74 -30 103.5t-104 29.5h-128z
M274.5 72q-6.5 0 -11.5 5t-5 11.5t5 11.5l65 64q5 5 11.5 5t11 -4.5t4.5 -11t-4 -11.5l-65 -65q-5 -5 -11.5 -5zM339 137h-220q-6 0 -11 5t-5 11.5t5 11t11 4.5h220q7 0 11.5 -4.5t4.5 -11t-4.5 -11.5t-11.5 -5zM119.5 215q-6.5 0 -11.5 4.5t-5 11t5 11.5l65 65q5 5 11.5 5
t11 -5t4.5 -11.5t-4 -11.5l-65 -64q-5 -5 -11.5 -5zM339 215h-220q-6 0 -11 4.5t-5 11t5 11.5t11 5h220q7 0 11.5 -5t4.5 -11.5t-4.5 -11t-11.5 -4.5z" />
    <glyph glyph-name="arrow-2" unicode="arrow&#x2d;&#x32;" horiz-adv-x="416" 
d="M321 209q-7 0 -11.5 4.5t-4.5 11.5t4 11l68 68l-68 68q-4 5 -4 11.5t4.5 11.5t11 5t11.5 -5l79 -79q5 -5 5 -11.5t-5 -11.5l-79 -79q-5 -5 -11 -5zM400 288h-384q-7 0 -11.5 5t-4.5 11.5t4.5 11t11.5 4.5h384q7 0 11.5 -4.5t4.5 -11t-4.5 -11.5t-11.5 -5zM95 -16
q-6 0 -11 5l-79 79q-5 5 -5 11.5t5 11.5l79 79q5 5 11.5 5t11 -5t4.5 -11.5t-4 -11.5l-68 -68l68 -68q4 -4 4 -11t-4 -11q-5 -5 -12 -5zM400 64h-384q-7 0 -11.5 4.5t-4.5 11t4.5 11.5t11.5 5h384q7 0 11.5 -5t4.5 -11.5t-4.5 -11t-11.5 -4.5z" />
    <glyph glyph-name="arrow-3" unicode="arrow&#x2d;&#x33;" horiz-adv-x="416" 
d="M174.5 289q-6.5 0 -11.5 4l-68 68l-68 -68q-4 -4 -11 -4t-11.5 4.5t-4.5 11t5 11.5l79 79q5 5 11.5 5t11.5 -5l79 -79q5 -5 5 -11.5t-5 -11t-11.5 -4.5zM95.5 -16q-6.5 0 -11.5 4.5t-5 11.5v384q0 7 5 11.5t11.5 4.5t11 -4.5t4.5 -11.5v-384q0 -7 -4.5 -11.5t-11 -4.5z
M320.5 -16q-6.5 0 -11.5 5l-79 79q-5 5 -5 11.5t4.5 11t11.5 4.5t11 -4l68 -68l68 68q5 4 11.5 4t11.5 -4.5t5 -11t-5 -11.5l-79 -79q-5 -5 -11.5 -5zM320.5 -16q-6.5 0 -11.5 4.5t-5 11.5v384q0 7 5 11.5t11.5 4.5t11 -4.5t4.5 -11.5v-384q0 -7 -4.5 -11.5t-11 -4.5z" />
    <glyph glyph-name="arrow-bottom" unicode="arrow&#x2d;bottom" horiz-adv-x="305" 
d="M152 48q-47 0 -78 54l-57 99q-31 53 -7.5 94t85.5 41h114q63 0 86.5 -40.5t-8.5 -94.5l-56 -99q-32 -54 -79 -54zM95 304q-43 0 -58 -25q-14 -24 8 -62l57 -99q22 -38 50.5 -38t50.5 38l57 99q21 38 7 62.5t-58 24.5h-114z" />
    <glyph glyph-name="arrow-circle-down" unicode="arrow&#x2d;circle&#x2d;down" 
d="M229 -37q-95 0 -162 67t-67 162t67 162t162 67t162.5 -67t67.5 -162t-67.5 -162t-162.5 -67zM229.5 389q-81.5 0 -139.5 -57.5t-58 -139.5t58 -139.5t139.5 -57.5t139.5 57.5t58 139.5t-58 139.5t-139.5 57.5zM229.5 128q-6.5 0 -11.5 4l-75 76q-5 4 -5 11t4.5 11.5
t11.5 4.5t11 -5l64 -64l64 64q5 5 11.5 5t11.5 -4.5t5 -11.5t-5 -11l-75 -76q-5 -4 -11.5 -4z" />
    <glyph glyph-name="arrow-circle-left" unicode="arrow&#x2d;circle&#x2d;left" 
d="M229 -37q-95 0 -162 67t-67 162t67 162t162 67t162.5 -67t67.5 -162t-67.5 -162t-162.5 -67zM229.5 389q-81.5 0 -139.5 -57.5t-58 -139.5t58 -139.5t139.5 -57.5t139.5 57.5t58 139.5t-58 139.5t-139.5 57.5zM256 101q-6 0 -11 4l-75 76q-5 4 -5 11t5 11l75 76
q5 4 11.5 4t11 -4.5t4.5 -11t-4 -11.5l-64 -64l64 -64q4 -5 4 -11.5t-4 -11.5q-5 -4 -12 -4z" />
    <glyph glyph-name="arrow-circle-right" unicode="arrow&#x2d;circle&#x2d;right" 
d="M229 -37q-95 0 -162 67t-67 162t67 162t162 67t162.5 -67t67.5 -162t-67.5 -162t-162.5 -67zM229.5 389q-81.5 0 -139.5 -57.5t-58 -139.5t58 -139.5t139.5 -57.5t139.5 57.5t58 139.5t-58 139.5t-139.5 57.5zM202.5 101q-6.5 0 -11.5 4.5t-5 11t5 11.5l64 64l-64 64
q-5 5 -5 11.5t5 11t11.5 4.5t11.5 -4l75 -76q5 -4 5 -11t-5 -11l-75 -76q-5 -4 -11.5 -4z" />
    <glyph glyph-name="arrow-circle-up" unicode="arrow&#x2d;circle&#x2d;up" 
d="M229 -37q-95 0 -162 67t-67 162t67 162t162 67t162.5 -67t67.5 -162t-67.5 -162t-162.5 -67zM229.5 389q-81.5 0 -139.5 -57.5t-58 -139.5t58 -139.5t139.5 -57.5t139.5 57.5t58 139.5t-58 139.5t-139.5 57.5zM304.5 149q-6.5 0 -11.5 5l-64 64l-64 -64q-4 -5 -11 -5
t-11.5 4.5t-4.5 11.5t5 11l75 76q5 4 11.5 4t11.5 -4l75 -76q5 -4 5 -11t-5 -11.5t-11.5 -4.5z" />
    <glyph glyph-name="arrow-down-1" unicode="arrow&#x2d;down&#x2d;&#x31;" horiz-adv-x="370" 
d="M185 90q-24 0 -41 17l-139 139q-5 4 -5 11t4.5 11.5t11.5 4.5t11 -5l139 -139q8 -7 19 -7t18 7l140 139q4 5 11 5t11.5 -4.5t4.5 -11.5t-5 -11l-139 -139q-17 -17 -41 -17z" />
    <glyph glyph-name="arrow-down-2" unicode="arrow&#x2d;down&#x2d;&#x32;" 
d="M229 -37q-95 0 -162 67t-67 162t67 162t162 67t162.5 -67t67.5 -162t-67.5 -162t-162.5 -67zM229.5 389q-81.5 0 -139.5 -57.5t-58 -139.5t58 -139.5t139.5 -57.5t139.5 57.5t58 139.5t-58 139.5t-139.5 57.5zM229.5 123q-6.5 0 -11.5 4.5t-5 11.5v128q0 6 5 11t11.5 5
t11 -5t4.5 -11v-128q0 -7 -4.5 -11.5t-11 -4.5zM229.5 101q-6.5 0 -11.5 5l-64 64q-5 5 -5 11.5t5 11t11.5 4.5t11.5 -4l52 -53l53 53q5 4 11.5 4t11 -4.5t4.5 -11t-4 -11.5l-64 -64q-5 -5 -11.5 -5z" />
    <glyph glyph-name="arrow-down" unicode="arrow&#x2d;down" horiz-adv-x="291" 
d="M145.5 -5q-6.5 0 -11.5 4l-129 130q-5 4 -5 11t4.5 11.5t11.5 4.5t11 -5l118 -118l119 118q4 5 11 5t11.5 -4.5t4.5 -11.5t-5 -11l-129 -130q-5 -4 -11.5 -4zM145.5 -2q-6.5 0 -11.5 5t-5 11v359q0 7 5 11.5t11.5 4.5t11 -4.5t4.5 -11.5v-359q0 -6 -4.5 -11t-11 -5z" />
    <glyph glyph-name="arrow-left-1" unicode="arrow&#x2d;left&#x2d;&#x31;" horiz-adv-x="288" 
d="M210 39q-27 0 -57 18l-99 57q-54 31 -54 78t54 78l99 57q54 31 94.5 7.5t40.5 -85.5v-114q0 -62 -41 -86q-16 -10 -37 -10zM210 312q-19 0 -41 -13l-99 -57q-38 -21 -38 -50t38 -50l99 -57q38 -22 62.5 -8t24.5 58v114q0 44 -25 58q-9 5 -21 5z" />
    <glyph glyph-name="arrow-left-2" unicode="arrow&#x2d;left&#x2d;&#x32;" horiz-adv-x="183" 
d="M167 7q-6 0 -11 5l-139 139q-17 17 -17 41t17 41l139 139q5 5 11.5 5t11 -4.5t4.5 -11.5t-4 -11l-139 -139q-8 -8 -8 -19t8 -19l139 -139q4 -4 4 -11t-4 -11q-5 -5 -12 -5z" />
    <glyph glyph-name="arrow-left-3" unicode="arrow&#x2d;left&#x2d;&#x33;" 
d="M229 -37q-95 0 -162 67t-67 162t67 162t162 67t162.5 -67t67.5 -162t-67.5 -162t-162.5 -67zM229.5 389q-81.5 0 -139.5 -57.5t-58 -139.5t58 -139.5t139.5 -57.5t139.5 57.5t58 139.5t-58 139.5t-139.5 57.5zM304 176h-128q-7 0 -11.5 4.5t-4.5 11.5t4.5 11.5t11.5 4.5
h128q7 0 11.5 -4.5t4.5 -11.5t-4.5 -11.5t-11.5 -4.5zM218.5 112q-6.5 0 -11.5 5l-64 64q-4 4 -4 11t4 11l64 64q5 5 11.5 5t11.5 -4.5t5 -11.5t-5 -11l-53 -53l53 -53q5 -4 5 -11t-5 -11.5t-11.5 -4.5z" />
    <glyph glyph-name="arrow-left" unicode="arrow&#x2d;left" horiz-adv-x="395" 
d="M145 47q-6 0 -11 4l-129 130q-5 4 -5 11t5 11l129 130q5 4 11.5 4t11 -4.5t4.5 -11t-4 -11.5l-118 -118l118 -118q4 -5 4 -11.5t-4 -11.5q-5 -4 -12 -4zM379 176h-359q-7 0 -11.5 4.5t-4.5 11.5t4.5 11.5t11.5 4.5h359q6 0 11 -4.5t5 -11.5t-5 -11.5t-11 -4.5z" />
    <glyph glyph-name="arrow-right-1" unicode="arrow&#x2d;right&#x2d;&#x31;" horiz-adv-x="395" 
d="M249.5 47q-6.5 0 -11.5 4.5t-5 11t5 11.5l118 118l-118 118q-5 5 -5 11.5t4.5 11t11.5 4.5t11 -4l130 -130q5 -4 5 -11t-5 -11l-130 -130q-4 -4 -10.5 -4zM375 176h-359q-7 0 -11.5 4.5t-4.5 11.5t4.5 11.5t11.5 4.5h359q7 0 11.5 -4.5t4.5 -11.5t-4.5 -11.5t-11.5 -4.5z
" />
    <glyph glyph-name="arrow-right-2" unicode="arrow&#x2d;right&#x2d;&#x32;" 
d="M229 -37q-95 0 -162 67t-67 162t67 162t162 67t162.5 -67t67.5 -162t-67.5 -162t-162.5 -67zM229.5 389q-81.5 0 -139.5 -57.5t-58 -139.5t58 -139.5t139.5 -57.5t139.5 57.5t58 139.5t-58 139.5t-139.5 57.5zM283 176h-128q-7 0 -11.5 4.5t-4.5 11.5t4.5 11.5t11.5 4.5
h128q6 0 11 -4.5t5 -11.5t-5 -11.5t-11 -4.5zM240 112q-7 0 -11.5 4.5t-4.5 11.5t5 11l52 53l-52 53q-5 4 -5 11t4.5 11.5t11.5 4.5t11 -5l64 -64q5 -4 5 -11t-5 -11l-64 -64q-4 -5 -11 -5z" />
    <glyph glyph-name="arrow-right-3" unicode="arrow&#x2d;right&#x2d;&#x33;" horiz-adv-x="183" 
d="M16 7q-7 0 -11.5 4.5t-4.5 11.5t5 11l139 139q7 8 7 19t-7 19l-139 139q-5 4 -5 11t4.5 11.5t11.5 4.5t11 -5l139 -139q17 -17 17 -41t-17 -41l-139 -139q-5 -5 -11 -5z" />
    <glyph glyph-name="arrow-right-4" unicode="arrow&#x2d;right&#x2d;&#x34;" horiz-adv-x="288" 
d="M78 39q-21 0 -37 10q-41 24 -41 86v114q0 62 41 86q40 23 94 -8l99 -57q54 -31 54 -78t-54 -78l-99 -57q-29 -18 -57 -18zM78 312q-12 0 -21 -5q-25 -14 -25 -58v-114q0 -44 24.5 -58t62.5 8l99 57q38 21 38 50t-38 50l-99 57q-22 13 -41 13z" />
    <glyph glyph-name="arrow-right" unicode="arrow&#x2d;right" 
d="M293 -37h-128q-87 0 -126 39t-39 126v128q0 87 39 126t126 39h128q87 0 126.5 -39t39.5 -126v-128q0 -87 -39.5 -126t-126.5 -39zM165 389q-73 0 -103 -29.5t-30 -103.5v-128q0 -74 30 -103.5t103 -29.5h128q74 0 104 29.5t30 103.5v128q0 74 -30 103.5t-104 29.5h-128z
M202.5 101q-6.5 0 -11.5 4.5t-5 11t5 11.5l64 64l-64 64q-5 5 -5 11.5t5 11t11.5 4.5t11.5 -4l75 -76q5 -4 5 -11t-5 -11l-75 -76q-5 -4 -11.5 -4z" />
    <glyph glyph-name="arrow-square-down" unicode="arrow&#x2d;square&#x2d;down" 
d="M293 -37h-128q-87 0 -126 39t-39 126v128q0 87 39 126t126 39h128q87 0 126.5 -39t39.5 -126v-128q0 -87 -39.5 -126t-126.5 -39zM165 389q-73 0 -103 -29.5t-30 -103.5v-128q0 -74 30 -103.5t103 -29.5h128q74 0 104 29.5t30 103.5v128q0 74 -30 103.5t-104 29.5h-128z
M229.5 130q-6.5 0 -11.5 5l-75 75q-5 5 -5 11.5t4.5 11t11.5 4.5t11 -4l64 -64l64 64q5 4 11.5 4t11.5 -4.5t5 -11t-5 -11.5l-75 -75q-5 -5 -11.5 -5z" />
    <glyph glyph-name="arrow-square-left" unicode="arrow&#x2d;square&#x2d;left" 
d="M293 -37h-128q-87 0 -126 39t-39 126v128q0 87 39 126t126 39h128q87 0 126.5 -39t39.5 -126v-128q0 -87 -39.5 -126t-126.5 -39zM165 389q-73 0 -103 -29.5t-30 -103.5v-128q0 -74 30 -103.5t103 -29.5h128q74 0 104 29.5t30 103.5v128q0 74 -30 103.5t-104 29.5h-128z
M256 101q-6 0 -11 4l-75 76q-5 4 -5 11t5 11l75 76q5 4 11.5 4t11 -4.5t4.5 -11t-4 -11.5l-64 -64l64 -64q4 -5 4 -11.5t-4 -11.5q-5 -4 -12 -4z" />
    <glyph glyph-name="arrow-square-up" unicode="arrow&#x2d;square&#x2d;up" 
d="M293 -37h-128q-87 0 -126 39t-39 126v128q0 87 39 126t126 39h128q87 0 126.5 -39t39.5 -126v-128q0 -87 -39.5 -126t-126.5 -39zM165 389q-73 0 -103 -29.5t-30 -103.5v-128q0 -74 30 -103.5t103 -29.5h128q74 0 104 29.5t30 103.5v128q0 74 -30 103.5t-104 29.5h-128z
M304.5 145q-6.5 0 -11.5 5l-64 64l-64 -64q-4 -5 -11 -5t-11.5 4.5t-4.5 11.5t5 11l75 75q5 5 11.5 5t11.5 -5l75 -75q5 -4 5 -11t-5 -11.5t-11.5 -4.5z" />
    <glyph glyph-name="arrow-swap-horizontal" unicode="arrow&#x2d;swap&#x2d;horizontal" horiz-adv-x="395" 
d="M272 5q-7 0 -11.5 4.5t-4.5 11.5t4 11l107 107q5 5 11.5 5t11.5 -4.5t5 -11.5t-5 -11l-107 -107q-5 -5 -11 -5zM379 112h-363q-7 0 -11.5 5t-4.5 11.5t4.5 11t11.5 4.5h363q6 0 11 -4.5t5 -11t-5 -11.5t-11 -5zM16 240q-7 0 -11.5 4.5t-4.5 11t5 11.5l107 107q4 5 11 5
t11.5 -5t4.5 -11.5t-5 -11.5l-107 -107q-4 -4 -11 -4zM379 240h-363q-7 0 -11.5 4.5t-4.5 11t4.5 11.5t11.5 5h363q6 0 11 -5t5 -11.5t-5 -11t-11 -4.5z" />
    <glyph glyph-name="arrow-swap" unicode="arrow&#x2d;swap" horiz-adv-x="373" 
d="M123 -5q-7 0 -11 4l-107 107q-5 5 -5 11.5t4.5 11t11.5 4.5t11 -4l107 -107q5 -5 5 -11.5t-5 -11.5q-5 -4 -11 -4zM122.5 -5q-6.5 0 -11 4.5t-4.5 11.5v362q0 7 4.5 11.5t11 4.5t11.5 -4.5t5 -11.5v-362q0 -7 -5 -11.5t-11.5 -4.5zM357.5 250q-6.5 0 -11.5 5l-107 107
q-4 5 -4 11.5t4.5 11t11 4.5t11.5 -4l107 -107q4 -5 4 -11.5t-4.5 -11.5t-11 -5zM250.5 -5q-6.5 0 -11.5 4.5t-5 11.5v362q0 7 5 11.5t11.5 4.5t11 -4.5t4.5 -11.5v-362q0 -7 -4.5 -11.5t-11 -4.5z" />
    <glyph glyph-name="arrow-up-1" unicode="arrow&#x2d;up&#x2d;&#x31;" 
d="M229 -37q-95 0 -162 67t-67 162t67 162t162 67t162.5 -67t67.5 -162t-67.5 -162t-162.5 -67zM229.5 389q-81.5 0 -139.5 -57.5t-58 -139.5t58 -139.5t139.5 -57.5t139.5 57.5t58 139.5t-58 139.5t-139.5 57.5zM229.5 101q-6.5 0 -11.5 5t-5 11v128q0 7 5 11.5t11.5 4.5
t11 -4.5t4.5 -11.5v-128q0 -6 -4.5 -11t-11 -5zM293.5 187q-6.5 0 -11.5 4l-53 53l-52 -53q-5 -4 -11.5 -4t-11.5 4.5t-5 11t5 11.5l64 64q5 5 11.5 5t11.5 -5l64 -64q4 -5 4 -11.5t-4.5 -11t-11 -4.5z" />
    <glyph glyph-name="arrow-up-2" unicode="arrow&#x2d;up&#x2d;&#x32;" horiz-adv-x="370" 
d="M354 111q-7 0 -11 5l-140 139q-7 7 -18 7t-19 -7l-139 -139q-4 -5 -11 -5t-11.5 4.5t-4.5 11.5t5 11l139 139q17 17 41 17t41 -17l139 -139q5 -4 5 -11t-5 -11q-5 -5 -11 -5z" />
    <glyph glyph-name="arrow-up-3" unicode="arrow&#x2d;up&#x2d;&#x33;" horiz-adv-x="291" 
d="M275 228q-7 0 -11 5l-119 118l-118 -118q-4 -5 -11 -5t-11.5 4.5t-4.5 11.5t5 11l129 130q5 4 11.5 4t11.5 -4l129 -130q5 -4 5 -11t-5 -11q-4 -5 -11 -5zM145.5 -5q-6.5 0 -11.5 4.5t-5 11.5v359q0 6 5 11t11.5 5t11 -5t4.5 -11v-359q0 -7 -4.5 -11.5t-11 -4.5z" />
    <glyph glyph-name="arrow-up" unicode="arrow&#x2d;up" horiz-adv-x="305" 
d="M209 48h-114q-62 0 -85.5 40.5t7.5 94.5l57 99q31 54 78 54t78 -54l57 -99q32 -54 8.5 -94.5t-86.5 -40.5zM152.5 304q-28.5 0 -50.5 -38l-57 -99q-22 -38 -7.5 -62.5t57.5 -24.5h114q44 0 58.5 24.5t-7.5 62.5l-57 99q-22 38 -50.5 38z" />
    <glyph glyph-name="back-square" unicode="back&#x2d;square" 
d="M293 -37h-128q-87 0 -126 39t-39 126v128q0 87 39 126t126 39h128q87 0 126.5 -39t39.5 -126v-128q0 -87 -39.5 -126t-126.5 -39zM165 389q-73 0 -103 -29.5t-30 -103.5v-128q0 -74 30 -103.5t103 -29.5h128q74 0 104 29.5t30 103.5v128q0 74 -30 103.5t-104 29.5h-128z
M270 104h-105q-6 0 -11 4.5t-5 11t5 11.5t11 5h105q21 0 35.5 14.5t14.5 35t-14.5 35t-35.5 14.5h-144q-7 0 -11.5 5t-4.5 11.5t4.5 11t11.5 4.5h144q34 0 58 -24t24 -57.5t-24 -57.5t-58 -24zM156.5 202q-6.5 0 -11.5 5l-34 33q-4 5 -4 11.5t4 11.5l34 34q4 4 11 4
t11.5 -4.5t4.5 -11t-5 -11.5l-22 -22l22 -22q5 -5 5 -11.5t-4.5 -11.5t-11 -5z" />
    <glyph glyph-name="convert" unicode="convert" horiz-adv-x="458" 
d="M228.5 -37q-94.5 0 -161.5 67t-67 162t67 162t162 67t162 -67t67 -162t-67.5 -162t-162 -67zM228.5 389q-81.5 0 -139 -58t-57.5 -139.5t57.5 -139t139 -57.5t139.5 57.5t58 139t-58 139.5t-139.5 58zM278 172q-7 0 -11 4l-175 175q-4 5 -4 11.5t4.5 11t11 4.5t11.5 -5
l147 -147v58q0 7 5 11.5t11 4.5q7 1 11.5 -4t4.5 -12v-96q0 -11 -10 -15q-3 -1 -6 -1zM354 6q-7 0 -11 5l-148 147v-58q0 -7 -4.5 -11.5t-11 -4.5t-11.5 4.5t-5 11.5l1 96q0 11 9 15q10 4 18 -3l174 -175q5 -5 5 -11.5t-5 -10.5q-4 -5 -11 -5z" />
    <glyph glyph-name="export-1" unicode="export&#x2d;&#x31;" horiz-adv-x="438" 
d="M289 -27h-139q-79 0 -114.5 35.5t-35.5 114.5v3q0 71 29 106.5t92 41.5q6 0 11.5 -4t6 -10.5t-3.5 -11.5t-11 -6q-50 -5 -71 -31.5t-21 -85.5v-2q0 -65 26 -91.5t92 -26.5h139q65 0 91 26.5t26 91.5v2q0 60 -21 86.5t-72 30.5q-7 1 -11.5 6t-3.5 11.5t6 10.5t11 4
q64 -6 93.5 -41.5t29.5 -107.5v-3q0 -78 -35.5 -113.5t-113.5 -35.5zM219.5 112q-6.5 0 -11.5 4.5t-5 11.5v243q0 6 5 11t11.5 5t11 -5t4.5 -11v-243q0 -7 -4.5 -11.5t-11 -4.5zM291 307q-7 0 -12 5l-60 60l-60 -60q-5 -5 -11.5 -5t-11 5t-4.5 11.5t4 11.5l72 71q4 5 11 5
t11 -5l72 -71q4 -5 4 -11.5t-4 -11.5q-5 -5 -11 -5z" />
    <glyph glyph-name="export-2" unicode="export&#x2d;&#x32;" 
d="M229 -37q-95 0 -162 67t-67 162t67 162t162 67q7 0 11.5 -4.5t4.5 -11t-4.5 -11.5t-11.5 -5q-81 0 -139 -57.5t-58 -139.5t58 -139.5t139.5 -57.5t139.5 57.5t58 139.5q0 7 4.5 11.5t11 4.5t11.5 -4.5t5 -11.5q0 -95 -67.5 -162t-162.5 -67zM250.5 197q-6.5 0 -11 5
t-4.5 11.5t4 11.5l175 175q5 4 11.5 4t11.5 -4.5t5 -11t-5 -11.5l-175 -175q-5 -5 -11.5 -5zM442.5 286q-6.5 0 -11 5t-4.5 11v87h-87q-7 0 -11.5 5t-4.5 11.5t4.5 11t11.5 4.5h103q6 0 11 -4.5t5 -11.5v-103q0 -6 -5 -11t-11.5 -5z" />
    <glyph glyph-name="export-3" unicode="export&#x2d;&#x33;" 
d="M250.5 197q-6.5 0 -11 5t-4.5 11.5t4 11.5l175 175q5 4 11.5 4t11.5 -4.5t5 -11t-5 -11.5l-175 -175q-5 -5 -11.5 -5zM442.5 287q-6.5 0 -11 4.5t-4.5 11.5v86h-87q-6 0 -11 5t-5 11.5t5 11t11 4.5h103q6 0 11 -4.5t5 -11.5v-102q0 -7 -5 -11.5t-11.5 -4.5zM293 -37h-128
q-87 0 -126 39t-39 126v128q0 87 39 126t126 39h43q7 0 11.5 -4.5t4.5 -11t-4.5 -11.5t-11.5 -5h-43q-73 0 -103 -29.5t-30 -103.5v-128q0 -74 30 -103.5t103 -29.5h128q74 0 104 29.5t30 103.5v43q0 6 4.5 11t11 5t11.5 -5t5 -11v-43q0 -87 -39.5 -126t-126.5 -39z" />
    <glyph glyph-name="export" unicode="export" horiz-adv-x="373" 
d="M238.5 293q-6.5 0 -11.5 5l-43 43l-43 -43q-5 -5 -11.5 -5t-11 5t-4.5 11.5t4 11.5l55 54q4 5 11 5t11 -5l55 -54q5 -5 5 -11.5t-5 -11.5t-11.5 -5zM184.5 129q-6.5 0 -11.5 5t-5 11v217q0 7 5 11.5t11.5 4.5t11 -4.5t4.5 -11.5v-217q0 -6 -4.5 -11t-11 -5zM186.5 5
q-82.5 0 -134.5 52.5t-52 134.5q0 7 4.5 11.5t11.5 4.5t11.5 -4.5t4.5 -11.5q0 -68 43 -111.5t111.5 -43.5t111.5 43.5t43 111.5q0 7 5 11.5t11.5 4.5t11 -4.5t4.5 -11.5q0 -82 -52 -134.5t-134.5 -52.5z" />
    <glyph glyph-name="forward-square" unicode="forward&#x2d;square" 
d="M293 -37h-128q-87 0 -126 39t-39 126v128q0 87 39 126t126 39h128q87 0 126.5 -39t39.5 -126v-128q0 -87 -39.5 -126t-126.5 -39zM165 389q-73 0 -103 -29.5t-30 -103.5v-128q0 -74 30 -103.5t103 -29.5h128q74 0 104 29.5t30 103.5v128q0 74 -30 103.5t-104 29.5h-128z
M293 104h-105q-33 0 -57 24t-24 57.5t24 57.5t57 24h145q6 0 11 -4.5t5 -11t-5 -11.5t-11 -5h-145q-20 0 -34.5 -14.5t-14.5 -35t14.5 -35t34.5 -14.5h105q7 0 11.5 -5t4.5 -11.5t-4.5 -11t-11.5 -4.5zM303 202q-7 0 -11.5 5t-4.5 11.5t4 11.5l22 22l-22 22q-4 5 -4 11.5
t4.5 11t11 4.5t11.5 -4l33 -34q5 -5 5 -11.5t-5 -11.5l-33 -33q-5 -5 -11 -5z" />
    <glyph glyph-name="frame" unicode="frame" horiz-adv-x="323" 
d="M161 200h-1h-4q-46 2 -77.5 33.5t-31.5 77.5q0 45 32.5 77.5t78.5 32.5t78.5 -32.5t32.5 -77.5q-1 -45 -31.5 -77t-75.5 -34h-1zM157.5 389q-32.5 0 -55.5 -23t-23 -55t22 -55t54 -24h7q31 2 52.5 24.5t22.5 54.5q0 32 -23.5 55t-56 23zM161 -33q-67 0 -115 32
q-46 30 -46 75.5t46 76.5q48 32 115.5 32t115.5 -32q46 -31 46 -76t-46 -76q-48 -32 -116 -32zM64 124q-32 -21 -32 -50q0 -28 32 -49q39 -26 97.5 -26t97.5 26q32 21 32 50q0 28 -32 49q-39 27 -97.5 27t-97.5 -27z" />
    <glyph glyph-name="import-1" unicode="import&#x2d;&#x31;" horiz-adv-x="438" 
d="M289 -27h-139q-79 0 -114.5 35.5t-35.5 114.5v3q0 71 29 106.5t92 41.5q6 0 11.5 -4t6 -10.5t-3.5 -11.5t-11 -6q-50 -5 -71 -31.5t-21 -85.5v-2q0 -65 26 -91.5t92 -26.5h139q65 0 91 26.5t26 91.5v2q0 60 -21 86.5t-72 30.5q-7 1 -11.5 6t-3.5 11.5t6 10.5t11 4
q64 -6 93.5 -41.5t29.5 -107.5v-3q0 -78 -35.5 -113.5t-113.5 -35.5zM219.5 115q-6.5 0 -11.5 4.5t-5 11.5v274q0 7 5 11.5t11.5 4.5t11 -4.5t4.5 -11.5v-274q0 -7 -4.5 -11.5t-11 -4.5zM219 91q-7 0 -11 4l-72 72q-4 4 -4 11t4.5 11.5t11 4.5t11.5 -5l60 -60l60 60
q5 5 11.5 5t11 -4.5t4.5 -11.5t-4 -11l-72 -72q-4 -4 -11 -4z" />
    <glyph glyph-name="import-2" unicode="import&#x2d;&#x32;" 
d="M267.5 214q-6.5 0 -11 5t-4.5 11.5t4 11.5l175 175q5 4 11.5 4t11.5 -4.5t5 -11t-5 -11.5l-175 -175q-5 -5 -11.5 -5zM354 197h-103q-7 0 -11.5 5t-4.5 11v103q0 7 4.5 11.5t11 4.5t11.5 -4.5t5 -11.5v-87h87q6 0 11 -4.5t5 -11t-5 -11.5t-11 -5zM293 -37h-128
q-87 0 -126 39t-39 126v128q0 87 39 126t126 39h43q7 0 11.5 -4.5t4.5 -11t-4.5 -11.5t-11.5 -5h-43q-73 0 -103 -29.5t-30 -103.5v-128q0 -74 30 -103.5t103 -29.5h128q74 0 104 29.5t30 103.5v43q0 6 4.5 11t11 5t11.5 -5t5 -11v-43q0 -87 -39.5 -126t-126.5 -39z" />
    <glyph glyph-name="import" unicode="import" horiz-adv-x="373" 
d="M184 128q-7 0 -11 5l-55 55q-4 4 -4 10.5t4.5 11.5t11 5t11.5 -5l43 -43l43 43q5 5 11.5 5t11.5 -5t5 -11.5t-5 -10.5l-55 -55q-4 -5 -11 -5zM184.5 130q-6.5 0 -11.5 4.5t-5 11.5v217q0 6 5 11t11.5 5t11 -5t4.5 -11v-217q0 -7 -4.5 -11.5t-11 -4.5zM186.5 1
q-82.5 0 -134.5 52.5t-52 134.5q0 7 4.5 11.5t11.5 4.5t11.5 -4.5t4.5 -11.5q0 -68 43 -111.5t111.5 -43.5t111.5 43.5t43 111.5q0 7 5 11.5t11.5 4.5t11 -4.5t4.5 -11.5q0 -82 -52 -134.5t-134.5 -52.5z" />
    <glyph glyph-name="login-1" unicode="login&#x2d;&#x31;" horiz-adv-x="373" 
d="M180 120q-7 0 -11.5 4.5t-4.5 11.5t5 11l43 44l-43 43q-5 5 -5 11.5t4.5 11t11 4.5t11.5 -4l55 -55q4 -5 4 -11.5t-4 -11.5l-55 -54q-4 -5 -11 -5zM233 175h-217q-7 0 -11.5 4.5t-4.5 11t4.5 11.5t11.5 5h217q7 0 11.5 -5t4.5 -11.5t-4.5 -11t-11.5 -4.5zM187 5
q-7 0 -11.5 5t-4.5 11.5t4.5 11t11.5 4.5q68 0 111 43.5t43 111.5t-43 111.5t-111 43.5q-7 0 -11.5 4.5t-4.5 11t4.5 11.5t11.5 5q82 0 134 -52.5t52 -134.5t-52 -134.5t-134 -52.5z" />
    <glyph glyph-name="login" unicode="login" horiz-adv-x="448" 
d="M298 -27h-2q-71 0 -107 29t-42 92q0 6 4 11.5t10.5 6t12 -4t5.5 -10.5q5 -50 31.5 -71t85.5 -21h3q65 0 91 26t26 91v140q0 65 -26 91t-91 26h-3q-59 0 -85.5 -21t-31.5 -73q0 -6 -5 -10.5t-12 -4t-11 6t-4 11.5q6 64 41.5 93.5t107.5 29.5h2q79 0 114.5 -35.5
t35.5 -113.5v-140q0 -78 -35.5 -113.5t-114.5 -35.5zM291 176h-275q-7 0 -11.5 4.5t-4.5 11.5t4.5 11.5t11.5 4.5h275q6 0 11 -4.5t5 -11.5t-5 -11.5t-11 -4.5zM243.5 105q-6.5 0 -11.5 4.5t-5 11t5 11.5l60 60l-60 60q-5 5 -5 11.5t5 11t11.5 4.5t11.5 -4l71 -72
q5 -4 5 -11t-5 -11l-71 -72q-5 -4 -11.5 -4z" />
    <glyph glyph-name="logout-1" unicode="logout&#x2d;&#x31;" horiz-adv-x="378" 
d="M307.5 120q-6.5 0 -11 4.5t-4.5 11.5t5 11l43 44l-43 43q-5 5 -5 11.5t4.5 11t11.5 4.5t11 -4l55 -55q4 -5 4 -11.5t-4 -11.5l-55 -54q-5 -5 -11.5 -5zM361 175h-217q-7 0 -11.5 4.5t-4.5 11t4.5 11.5t11.5 5h217q7 0 11.5 -5t4.5 -11.5t-4.5 -11t-11.5 -4.5zM187 5
q-83 0 -135 52.5t-52 134.5t52 134.5t135 52.5q6 0 11 -5t5 -11.5t-5 -11t-11 -4.5q-69 0 -112 -43.5t-43 -111.5t43 -111.5t112 -43.5q6 0 11 -4.5t5 -11t-5 -11.5t-11 -5z" />
    <glyph glyph-name="logout" unicode="logout" horiz-adv-x="437" 
d="M288 -27h-3q-71 0 -106.5 29t-41.5 92q-1 6 3.5 11.5t10.5 5.5q7 1 12 -3.5t6 -10.5q4 -50 30.5 -71t85.5 -21h3q65 0 91.5 26t26.5 91v140q0 65 -26.5 91t-91.5 26h-3q-59 0 -85.5 -21t-30.5 -73q-1 -6 -6 -10.5t-11.5 -4t-11 6t-3.5 11.5q5 64 40.5 93.5t107.5 29.5h3
q78 0 113.5 -35.5t35.5 -113.5v-140q0 -78 -35.5 -113.5t-113.5 -35.5zM283 176h-243q-7 0 -11.5 4.5t-4.5 11.5t4.5 11.5t11.5 4.5h243q6 0 11 -4.5t5 -11.5t-5 -11.5t-11 -4.5zM87 105q-6 0 -11 4l-71 72q-5 4 -5 11t5 11l71 72q5 4 11.5 4t11 -4.5t4.5 -11t-4 -11.5
l-60 -60l60 -60q4 -5 4 -11.5t-4 -11.5q-5 -4 -12 -4z" />
    <glyph glyph-name="receive-square-2" unicode="receive&#x2d;square&#x2d;&#x32;" 
d="M293 -37h-128q-87 0 -126 39t-39 126v128q0 87 39 126t126 39h128q87 0 126.5 -39t39.5 -126v-128q0 -87 -39.5 -126t-126.5 -39zM165 389q-73 0 -103 -29.5t-30 -103.5v-128q0 -74 30 -103.5t103 -29.5h128q74 0 104 29.5t30 103.5v128q0 74 -30 103.5t-104 29.5h-128z
M290 147h-91q-6 0 -11 5t-5 11.5t5 11t11 4.5h75v75q0 6 4.5 11t11 5t11.5 -5t5 -11v-91q0 -6 -5 -11t-11 -5zM289.5 147q-6.5 0 -11.5 5l-120 121q-5 4 -5 11t4.5 11.5t11.5 4.5t11 -5l121 -120q5 -5 5 -11.5t-5 -11.5t-11.5 -5zM229 59q-68 0 -133 22q-6 2 -9 8t-1 12t8 9
t12 1q60 -20 123.5 -20t122.5 20q7 2 13 -1t8 -9t-1 -12t-9 -8q-64 -22 -134 -22z" />
    <glyph glyph-name="receive-square" unicode="receive&#x2d;square" 
d="M293 -37h-128q-87 0 -126 39t-39 126v128q0 87 39 126t126 39h128q87 0 126.5 -39t39.5 -126v-128q0 -87 -39.5 -126t-126.5 -39zM165 389q-73 0 -103 -29.5t-30 -103.5v-128q0 -74 30 -103.5t103 -29.5h128q74 0 104 29.5t30 103.5v128q0 74 -30 103.5t-104 29.5h-128z
M229.5 122q-6.5 0 -11.5 5l-64 64q-5 5 -5 11.5t5 11t11.5 4.5t11.5 -4l52 -53l53 53q5 4 11.5 4t11 -4.5t4.5 -11t-4 -11.5l-64 -64q-5 -5 -11.5 -5zM229.5 122q-6.5 0 -11.5 5t-5 11v171q0 7 5 11.5t11.5 4.5t11 -4.5t4.5 -11.5v-171q0 -6 -4.5 -11t-11 -5zM229 59
q-68 0 -133 22q-6 2 -9 8t-1 12t8 9t12 1q123 -41 246 0q7 2 13 -1t8 -9t-1 -12t-9 -8q-64 -22 -134 -22z" />
    <glyph glyph-name="received" unicode="received" horiz-adv-x="395" 
d="M48 59q-7 0 -11.5 4.5t-4.5 11t5 11.5l298 299q5 4 11.5 4t11.5 -4.5t5 -11t-5 -11.5l-299 -299q-4 -4 -11 -4zM267 59h-219q-7 0 -11.5 4.5t-4.5 11.5v219q0 6 4.5 11t11.5 5t11.5 -5t4.5 -11v-203h203q7 0 11.5 -5t4.5 -11.5t-4.5 -11t-11.5 -4.5zM379 -37h-363
q-7 0 -11.5 4.5t-4.5 11t4.5 11.5t11.5 5h363q6 0 11 -5t5 -11.5t-5 -11t-11 -4.5z" />
    <glyph glyph-name="redo" unicode="redo" horiz-adv-x="379" 
d="M293 41h-170q-51 0 -87 36t-36 87t36 87t87 36h234q7 0 11.5 -5t4.5 -11.5t-4.5 -11t-11.5 -4.5h-234q-38 0 -64.5 -27t-26.5 -64t26.5 -64t64.5 -27h170q7 0 11.5 -4.5t4.5 -11t-4.5 -11.5t-11.5 -5zM308.5 201q-6.5 0 -11.5 5t-5 11.5t5 11.5l43 43l-43 43
q-5 5 -5 11.5t5 11.5t11.5 5t11.5 -5l54 -55q5 -4 5 -11t-5 -11l-54 -55q-5 -5 -11.5 -5z" />
    <glyph glyph-name="refresh-2" unicode="refresh&#x2d;&#x32;" 
d="M0 192q0 -7 4.5 -11.5t11.5 -4.5t11.5 4.5t4.5 11.5q0 82 57.5 139.5t139.5 57.5q107 0 182 -86h-63q-7 0 -11.5 -5t-4.5 -11.5t4.5 -11t11.5 -4.5h95q6 0 11 4.5t5 11.5v106q0 7 -5 11.5t-11.5 4.5t-11 -4.5t-4.5 -11.5v-60q-83 88 -198 88q-95 0 -162 -67t-67 -162z
M56 50q78 -87 173 -87t162.5 67t67.5 162q0 7 -5 11.5t-11.5 4.5t-11 -4.5t-4.5 -11.5q0 -82 -58 -139.5t-140 -57.5q-87 0 -158 86h65q7 0 11.5 5t4.5 11.5t-4.5 11t-11.5 4.5h-96q-7 0 -11.5 -4.5t-4.5 -11.5v-106q0 -7 4.5 -11.5t11 -4.5t11.5 4.5t5 11.5v59z" />
    <glyph glyph-name="refresh-circle" unicode="refresh&#x2d;circle" 
d="M229 -37q-95 0 -162 67t-67 162t67 162t162 67t162.5 -67t67.5 -162t-67.5 -162t-162.5 -67zM229.5 389q-81.5 0 -139.5 -57.5t-58 -139.5t58 -139.5t139.5 -57.5t139.5 57.5t58 139.5t-58 139.5t-139.5 57.5zM229 75q-48 0 -82 34q-9 10 -16 21q-9 13 4.5 21.5
t22.5 -4.5q5 -8 11 -15q25 -25 60 -25t60 25q20 19 24 48q1 6 6.5 10.5t12 3.5t10.5 -6.5t3 -12.5q-6 -38 -33 -66q-34 -34 -83 -34zM130 190q-2 0 -2 1q-7 0 -11 5.5t-3 12.5q5 38 33 66q34 34 82 34t83 -34q9 -10 16 -21q8 -13 -5.5 -21.5t-21.5 4.5q-6 9 -12 15
q-25 25 -60 25t-60 -25q-19 -19 -24 -48q-1 -14 -15 -14zM140.5 65q-6.5 0 -11.5 5t-5 11v57q0 7 5 11.5t11 4.5h57q7 0 11.5 -4.5t4.5 -11t-4.5 -11.5t-11.5 -5h-41v-41q0 -6 -4.5 -11t-11 -5zM318 230h-56q-7 0 -11.5 4.5t-4.5 11t4.5 11.5t11.5 5h40v41q0 6 5 11t11.5 5
t11 -5t4.5 -11v-57q0 -7 -4.5 -11.5t-11.5 -4.5z" />
    <glyph glyph-name="refresh-left-square" unicode="refresh&#x2d;left&#x2d;square" 
d="M229.5 64q-50.5 0 -86.5 36t-36 86q0 38 20 69q4 5 10.5 6.5t12 -2.5t7 -10.5t-2.5 -11.5q-15 -23 -15 -51q0 -37 26.5 -63.5t64 -26.5t64 26.5t26.5 64t-26.5 64t-63.5 26.5q-16 0 -31 -4q-7 -2 -12.5 1t-7.5 9.5t1 12t9 7.5q19 6 41 6q50 0 86 -36t36 -86.5t-36 -86.5
t-86.5 -36zM179 269q-6 0 -11 4t-5.5 10.5t4.5 11.5l35 41q5 5 11.5 5.5t11.5 -4t5.5 -11t-4.5 -11.5l-35 -41q-6 -5 -12 -5zM220 239q-5 0 -9 2l-42 31q-13 9 -3.5 22t22.5 4l42 -31q5 -4 6 -10.5t-3 -11.5q-5 -6 -13 -6zM293 -37h-128q-87 0 -126 39t-39 126v128
q0 87 39 126t126 39h128q87 0 126.5 -39t39.5 -126v-128q0 -87 -39.5 -126t-126.5 -39zM165 389q-73 0 -103 -29.5t-30 -103.5v-128q0 -74 30 -103.5t103 -29.5h128q74 0 104 29.5t30 103.5v128q0 74 -30 103.5t-104 29.5h-128z" />
    <glyph glyph-name="refresh-right-square" unicode="refresh&#x2d;right&#x2d;square" 
d="M293 -37h-128q-87 0 -126 39t-39 126v128q0 87 39 126t126 39h128q87 0 126.5 -39t39.5 -126v-128q0 -87 -39.5 -126t-126.5 -39zM165 389q-73 0 -103 -29.5t-30 -103.5v-128q0 -74 30 -103.5t103 -29.5h128q74 0 104 29.5t30 103.5v128q0 74 -30 103.5t-104 29.5h-128z
M229.5 64q-50.5 0 -86.5 36t-36 86.5t36 86.5t86 36q21 0 41 -6q6 -2 9 -7.5t1 -12t-7.5 -9.5t-12.5 -2q-14 5 -31 5q-37 0 -63.5 -26.5t-26.5 -64t26.5 -64t64 -26.5t64 26.5t26.5 63.5q0 28 -15 51q-4 5 -2.5 11.5t7 10t12 2.5t10.5 -7q20 -31 20 -68q0 -50 -36 -86
t-86.5 -36zM280 269q-7 0 -12 5l-36 41q-4 5 -3.5 11.5t5.5 11t11.5 4t10.5 -5.5l36 -41q4 -4 4 -11t-5 -11t-11 -4zM239 239q-8 0 -13 6q-10 13 3 23l42 30q12 9 22 -4q9 -12 -4 -22l-41 -30q-4 -3 -9 -3z" />
    <glyph glyph-name="refresh-square-2" unicode="refresh&#x2d;square&#x2d;&#x32;" 
d="M293 -37h-128q-87 0 -126 39t-39 126v128q0 87 39 126t126 39h128q87 0 126.5 -39t39.5 -126v-128q0 -87 -39.5 -126t-126.5 -39zM165 389q-73 0 -103 -29.5t-30 -103.5v-128q0 -74 30 -103.5t103 -29.5h128q74 0 104 29.5t30 103.5v128q0 74 -30 103.5t-104 29.5h-128z
M96 192q0 -7 4.5 -11.5t11.5 -4.5t11.5 4.5t4.5 11.5q0 42 29.5 71.5t71.5 29.5q47 0 83 -33h-17q-7 0 -11.5 -4.5t-4.5 -11.5t4.5 -11.5t11.5 -4.5h52q6 0 11 4.5t5 11.5v59q0 6 -5 11t-11.5 5t-11 -5t-4.5 -11v-16q-45 38 -102 38q-55 0 -94 -39t-39 -94zM141 96
q41 -37 88 -37q56 0 95 39t39 94q0 7 -5 11.5t-11.5 4.5t-11 -4.5t-4.5 -11.5q0 -42 -30 -71.5t-72 -29.5q-31 0 -60 23l9 10q7 0 11.5 4.5t4.5 11.5t-4.5 11.5t-11.5 4.5h-53q-7 0 -11.5 -4.5t-4.5 -11.5v-59q0 -6 4.5 -11t11.5 -5t11.5 5t4.5 11v15z" />
    <glyph glyph-name="refresh" unicode="refresh" 
d="M284 -30q-13 0 -16 12q-2 6 1.5 12t10.5 7q65 17 106 70.5t41 120.5q0 82 -58 140t-140 58q-106 0 -181 -87h63q6 0 11 -5t5 -11.5t-5 -11t-11 -4.5h-95h-4q-3 1 -5 3q-3 2 -5 5t-2 6v2v97q0 7 4.5 11.5t11.5 4.5t11.5 -4.5t4.5 -11.5v-51q82 88 197 88q95 0 162.5 -67
t67.5 -162q0 -78 -48 -140t-123 -82h-4zM214 -37h-1q-34 3 -67 15q-10 4 -10 15q0 3 1 6q2 6 8.5 8.5t12.5 0.5q27 -11 57 -13q6 0 10.5 -5t4.5 -11v-1q0 -6 -5 -10.5t-11 -4.5zM97 9q-6 0 -10 3q-28 23 -47 51q-3 4 -3 8q0 9 7 14q5 3 12 2t10 -6l1 -1q17 -24 40 -42
q6 -5 6 -13q0 -6 -4 -10q-5 -6 -12 -6zM25 113q-12 0 -15 11q-10 33 -10 68q0 7 4.5 11.5t11.5 4.5t11.5 -4.5t4.5 -11.5q0 -30 9 -58v-5q0 -12 -11 -15q-2 -1 -5 -1z" />
    <glyph glyph-name="repeat-circle" unicode="repeat&#x2d;circle" 
d="M325.5 182q-6.5 0 -11.5 4.5t-5 11.5v38q0 7 -5 12.5t-13 5.5h-158q-6 0 -11 4.5t-5 11t5 11.5t11 5h158q21 0 35.5 -15t14.5 -35v-38q0 -7 -4.5 -11.5t-11 -4.5zM169.5 218q-6.5 0 -11.5 5l-36 36q-5 4 -5 11t5 11l36 36q5 5 11.5 5t11 -4.5t4.5 -11.5t-4 -11l-25 -25
l25 -25q4 -4 4 -11t-4.5 -11.5t-11 -4.5zM325 98h-158q-20 0 -35 14.5t-15 35.5v38q0 6 5 11t11.5 5t11 -5t4.5 -11v-38q0 -7 5.5 -12.5t12.5 -5.5h158q7 0 11.5 -5t4.5 -11.5t-4.5 -11t-11.5 -4.5zM289 62q-6 0 -11 4.5t-5 11.5t5 11l25 25l-25 25q-5 5 -5 11.5t5 11
t11.5 4.5t11.5 -5l36 -36q4 -4 4 -11t-4 -11l-36 -36q-5 -5 -12 -5zM229 -37q-95 0 -162 67t-67 162t67 162t162 67t162.5 -67t67.5 -162t-67.5 -162t-162.5 -67zM229.5 389q-81.5 0 -139.5 -57.5t-58 -139.5t58 -139.5t139.5 -57.5t139.5 57.5t58 139.5t-58 139.5
t-139.5 57.5z" />
    <glyph glyph-name="repeat" unicode="repeat" horiz-adv-x="391" 
d="M375.5 187q-6.5 0 -11.5 5t-5 11v71q0 20 -14 34t-34 14h-295q-7 0 -11.5 5t-4.5 11.5t4.5 11t11.5 4.5h295q33 0 56.5 -23.5t23.5 -56.5v-71q0 -6 -4.5 -11t-11 -5zM83 255q-6 0 -11 4l-67 68q-5 4 -5 11t5 11l67 68q5 4 11.5 4t11 -4.5t4.5 -11t-4 -11.5l-56 -56
l56 -56q4 -5 4 -11.5t-4 -11.5q-5 -4 -12 -4zM375 30h-295q-33 0 -56.5 23.5t-23.5 56.5v71q0 6 4.5 11t11.5 5t11.5 -5t4.5 -11v-71q0 -20 14 -34t34 -14h295q7 0 11.5 -4.5t4.5 -11t-4.5 -11.5t-11.5 -5zM308 -37q-7 0 -11.5 4.5t-4.5 11t5 11.5l56 56l-56 56
q-5 5 -5 11.5t4.5 11t11 4.5t11.5 -4l68 -68q4 -4 4 -11t-4 -11l-68 -68q-4 -4 -11 -4z" />
    <glyph glyph-name="rotate-left" unicode="rotate&#x2d;left" 
d="M224 -37h-96q-66 0 -97 30.5t-31 97.5v96q0 66 31 97t97 31h96q66 0 97 -31t31 -97v-96q0 -67 -31 -97.5t-97 -30.5zM128 283q-53 0 -74.5 -21.5t-21.5 -74.5v-96q0 -53 21.5 -74.5t74.5 -21.5h96q53 0 74.5 21.5t21.5 74.5v96q0 53 -21.5 74.5t-74.5 21.5h-96z
M442.5 240q-6.5 0 -11 4.5t-4.5 11.5q0 47 -29.5 83t-73.5 47l5 -10q9 -14 -5 -22t-22 6l-23 37q-4 8 0 16q5 8 14 8q69 0 117.5 -48.5t48.5 -116.5q0 -7 -5 -11.5t-11.5 -4.5z" />
    <glyph glyph-name="rotate-right" unicode="rotate&#x2d;right" 
d="M331 -37h-96q-67 0 -97.5 30.5t-30.5 97.5v96q0 66 30.5 97t97.5 31h96q66 0 97 -31t31 -97v-96q0 -67 -31 -97.5t-97 -30.5zM235 283q-53 0 -74.5 -21.5t-21.5 -74.5v-96q0 -53 21.5 -74.5t74.5 -21.5h96q53 0 74.5 21.5t21.5 74.5v96q0 53 -21.5 74.5t-74.5 21.5h-96z
M16 240q-7 0 -11.5 4.5t-4.5 11.5q0 68 48.5 116.5t116.5 48.5q10 0 14.5 -8t-0.5 -16l-22 -37q-4 -6 -10.5 -7.5t-12 2t-7 10t1.5 11.5l6 10q-45 -11 -74 -47t-29 -83q0 -7 -4.5 -11.5t-11.5 -4.5z" />
    <glyph glyph-name="send-sqaure-2" unicode="send&#x2d;sqaure&#x2d;&#x32;" 
d="M293 -37h-128q-87 0 -126 39t-39 126v128q0 87 39 126t126 39h128q87 0 126.5 -39t39.5 -126v-128q0 -87 -39.5 -126t-126.5 -39zM165 389q-73 0 -103 -29.5t-30 -103.5v-128q0 -74 30 -103.5t103 -29.5h128q74 0 104 29.5t30 103.5v128q0 74 -30 103.5t-104 29.5h-128z
M289.5 177q-6.5 0 -11 5t-4.5 11v75h-75q-6 0 -11 4.5t-5 11.5t5 11.5t11 4.5h91q6 0 11 -4.5t5 -11.5v-91q0 -6 -5 -11t-11.5 -5zM169 147q-7 0 -11.5 5t-4.5 11.5t5 11.5l120 120q5 5 11.5 5t11.5 -4.5t5 -11.5t-5 -11l-121 -121q-4 -5 -11 -5zM229 59q-68 0 -133 22
q-6 2 -9 8t-1 12t8 9t12 1q60 -20 123.5 -20t122.5 20q7 2 13 -1t8 -9t-1 -12t-9 -8q-64 -22 -134 -22z" />
    <glyph glyph-name="send-square" unicode="send&#x2d;square" 
d="M293 -37h-128q-87 0 -126 39t-39 126v128q0 87 39 126t126 39h128q87 0 126.5 -39t39.5 -126v-128q0 -87 -39.5 -126t-126.5 -39zM165 389q-73 0 -103 -29.5t-30 -103.5v-128q0 -74 30 -103.5t103 -29.5h128q74 0 104 29.5t30 103.5v128q0 74 -30 103.5t-104 29.5h-128z
M293.5 229q-6.5 0 -11.5 5l-53 53l-52 -53q-5 -5 -11.5 -5t-11.5 4.5t-5 11.5t5 11l64 64q5 5 11.5 5t11.5 -5l64 -64q4 -4 4 -11t-4.5 -11.5t-11 -4.5zM229.5 122q-6.5 0 -11.5 5t-5 11v171q0 7 5 11.5t11.5 4.5t11 -4.5t4.5 -11.5v-171q0 -6 -4.5 -11t-11 -5zM229 59
q-68 0 -133 22q-6 2 -9 8t-1 12t8 9t12 1q60 -20 123.5 -20t122.5 20q7 2 13 -1t8 -9t-1 -12t-9 -8q-64 -22 -134 -22z" />
    <glyph glyph-name="send" unicode="send" horiz-adv-x="414" 
d="M66 -16q-30 0 -48 18q-41 41 10 143l19 37q1 4 1 10t-1 10l-19 37q-51 103 -10 143q41 42 143 -10l183 -91q70 -35 70 -89t-70 -89l-183 -91q-56 -28 -95 -28zM66 368q-17 0 -26 -8q-24 -25 17 -107l18 -37q12 -24 0 -48l-18 -37q-41 -82 -17 -106q25 -25 107 16l183 91
q52 26 52 60t-53 60l-182 91q-49 25 -81 25zM182 176h-115q-6 0 -11 4.5t-5 11.5t5 11.5t11 4.5h115q7 0 11.5 -4.5t4.5 -11.5t-4.5 -11.5t-11.5 -4.5z" />
    <glyph glyph-name="undo" unicode="undo" horiz-adv-x="379" 
d="M256 41h-170q-7 0 -11.5 5t-4.5 11.5t4.5 11t11.5 4.5h170q38 0 64.5 27t26.5 64t-26.5 64t-64.5 27h-234q-7 0 -11.5 4.5t-4.5 11t4.5 11.5t11.5 5h234q51 0 87 -36t36 -87t-36 -87t-87 -36zM71 201q-7 0 -12 5l-54 55q-5 4 -5 11t5 11l54 55q5 5 11.5 5t11.5 -5
t5 -11.5t-5 -11.5l-43 -43l43 -43q5 -5 5 -11.5t-5 -11.5t-11 -5z" />
    <glyph glyph-name="aquarius" unicode="aquarius" horiz-adv-x="331" 
d="M165 91q-6 0 -11 4.5t-5 11t5 11.5t11 5q56 0 95 39t39 94t-39 94t-94.5 39t-94.5 -39t-39 -94q0 -7 -4.5 -11.5t-11.5 -4.5t-11.5 4.5t-4.5 11.5q0 68 48.5 116.5t117 48.5t117 -48.5t48.5 -116.5t-48.5 -116.5t-117.5 -48.5zM165.5 -37q-6.5 0 -11.5 4.5t-5 11.5v128
q0 6 5 11t11.5 5t11 -5t4.5 -11v-128q0 -7 -4.5 -11.5t-11 -4.5zM229 27h-128q-6 0 -11 4.5t-5 11t5 11.5t11 5h128q7 0 11.5 -5t4.5 -11.5t-4.5 -11t-11.5 -4.5z" />
    <glyph glyph-name="gemini-2" unicode="gemini&#x2d;&#x32;" horiz-adv-x="501" 
d="M250.5 -37q-6.5 0 -11 4.5t-4.5 11.5v405q0 7 4.5 11.5t11 4.5t11.5 -4.5t5 -11.5v-405q0 -7 -5 -11.5t-11.5 -4.5zM321 319q-7 0 -11 5l-59 59l-59 -59q-5 -5 -11.5 -5t-11.5 4.5t-5 11.5t5 11l70 71q5 4 11.5 4t11.5 -4l70 -71q5 -4 5 -11t-5 -11q-4 -5 -11 -5z
M101.5 283q-6.5 0 -11.5 4l-31 32l-32 -32q-4 -4 -11 -4t-11.5 4.5t-4.5 11t5 11.5l42 43q5 4 11.5 4t11.5 -4l43 -43q4 -5 4 -11.5t-4.5 -11t-11 -4.5zM485.5 283q-6.5 0 -11.5 4l-31 32l-32 -32q-4 -4 -11 -4t-11.5 4.5t-4.5 11t5 11.5l42 43q5 4 11.5 4t11.5 -4l43 -43
q4 -5 4 -11.5t-4.5 -11t-11 -4.5zM315 69h-128q-71 0 -107.5 37t-36.5 107v106q0 7 4.5 11.5t11 4.5t11.5 -4.5t5 -11.5v-106q0 -57 27 -84.5t85 -27.5h128q57 0 84.5 27.5t27.5 84.5v106q0 7 4.5 11.5t11 4.5t11.5 -4.5t5 -11.5v-106q0 -70 -37 -107t-107 -37zM315 5h-128
q-7 0 -11.5 5t-4.5 11.5t4.5 11t11.5 4.5h128q6 0 11 -4.5t5 -11t-5 -11.5t-11 -5z" />
    <glyph glyph-name="gemini" unicode="gemini" 
d="M229.5 330q-118.5 0 -221.5 61q-14 8 -6 22t22 6q95 -57 205.5 -57t204.5 57q6 3 12.5 1.5t9.5 -7.5q9 -14 -5 -22q-103 -61 -221.5 -61zM443 -37q-5 0 -9 2q-94 57 -204.5 57t-205.5 -57q-5 -3 -11.5 -1.5t-10.5 7.5q-8 14 6 22q102 61 221.5 61t221.5 -61q14 -8 5 -22
q-4 -8 -13 -8zM87 -3q-4 0 -8 2q-13 7 -6 21q43 80 43.5 169.5t-41.5 169.5l-3 5q-3 6 -1 12.5t8 9.5t12.5 1t9.5 -8l2 -5q46 -87 45.5 -185t-47.5 -184q-4 -8 -14 -8zM372 -3q-10 0 -14 8q-47 86 -47.5 184t45.5 185l2 5q3 6 9.5 8t12.5 -1t8 -9.5t-2 -12.5l-2 -5
q-42 -80 -41.5 -169.5t43.5 -169.5q7 -14 -7 -21q-3 -2 -7 -2z" />
    <glyph glyph-name="man" unicode="man" horiz-adv-x="437" 
d="M181 -27q-75 0 -128 53.5t-53 128.5t53 128t128 53t128.5 -53t53.5 -128t-53.5 -128.5t-128.5 -53.5zM181.5 304q-61.5 0 -105.5 -44t-44 -105.5t44 -105.5t105.5 -44t105.5 44t44 105.5t-44 105.5t-105.5 44zM304 261q-7 0 -11.5 5t-4.5 11.5t5 11.5l117 117q5 5 11.5 5
t11 -5t4.5 -11.5t-4 -11.5l-118 -117q-4 -5 -11 -5zM421.5 240q-6.5 0 -11.5 4.5t-5 11.5v123h-122q-7 0 -11.5 4.5t-4.5 11t4.5 11.5t11.5 5h138q7 0 11.5 -5t4.5 -11v-139q0 -7 -4.5 -11.5t-11 -4.5z" />
    <glyph glyph-name="sagittarius" unicode="sagittarius" horiz-adv-x="416" 
d="M400 176q-7 0 -11.5 4.5t-4.5 11.5v176h-176q-7 0 -11.5 4.5t-4.5 11.5t4.5 11.5t11.5 4.5h192q7 0 11.5 -4.5t4.5 -11.5v-192q0 -7 -4.5 -11.5t-11.5 -4.5zM16 -16q-7 0 -11.5 4.5t-4.5 11.5t5 11l384 384q4 5 11 5t11.5 -4.5t4.5 -11.5t-5 -11l-384 -384q-4 -5 -11 -5z
M323.5 61q-6.5 0 -11.5 4l-231 231q-4 5 -4 11.5t4.5 11t11 4.5t11.5 -4l230 -231q5 -5 5 -11.5t-4.5 -11t-11 -4.5z" />
    <glyph glyph-name="woman" unicode="woman" horiz-adv-x="331" 
d="M165.5 91q-68.5 0 -117 48.5t-48.5 116.5t48.5 116.5t117 48.5t117 -48.5t48.5 -116.5t-48.5 -116.5t-117 -48.5zM165.5 389q-55.5 0 -94.5 -39t-39 -94t39 -94t94.5 -39t94.5 39t39 94t-39 94t-94.5 39zM165.5 -37q-6.5 0 -11.5 4.5t-5 11.5v128q0 6 5 11t11.5 5t11 -5
t4.5 -11v-128q0 -7 -4.5 -11.5t-11 -4.5zM229 27h-128q-6 0 -11 4.5t-5 11t5 11.5t11 5h128q7 0 11.5 -5t4.5 -11.5t-4.5 -11t-11.5 -4.5z" />
    <glyph glyph-name="bank" unicode="bank" horiz-adv-x="501" 
d="M443 197h-384q-16 0 -27 11t-11 27v70q0 11 7 21t17 14l192 77q14 5 28 0l192 -77q10 -4 16.5 -14t6.5 -21v-70q0 -16 -11 -27t-26 -11zM251 387h-2l-192 -77q-4 -1 -4 -5v-70q0 -6 6 -6h384q5 0 5 6v70q0 4 -3 5l-192 77h-2zM464 -37h-427q-6 0 -11 4.5t-5 11.5v64
q0 15 11 26t27 11h384q15 0 26 -11t11 -26v-64q0 -7 -4.5 -11.5t-11.5 -4.5zM53 -5h395v48q0 5 -5 5h-384q-6 0 -6 -5v-48zM80 48q-7 0 -11.5 4.5t-4.5 11.5v149q0 7 4.5 11.5t11.5 4.5t11.5 -4.5t4.5 -11.5v-149q0 -7 -4.5 -11.5t-11.5 -4.5zM165.5 48q-6.5 0 -11.5 4.5
t-5 11.5v149q0 7 5 11.5t11.5 4.5t11 -4.5t4.5 -11.5v-149q0 -7 -4.5 -11.5t-11 -4.5zM250.5 48q-6.5 0 -11 4.5t-4.5 11.5v149q0 7 4.5 11.5t11 4.5t11.5 -4.5t5 -11.5v-149q0 -7 -5 -11.5t-11.5 -4.5zM336 48q-7 0 -11.5 4.5t-4.5 11.5v149q0 7 4.5 11.5t11.5 4.5
t11.5 -4.5t4.5 -11.5v-149q0 -7 -4.5 -11.5t-11.5 -4.5zM421.5 48q-6.5 0 -11.5 4.5t-5 11.5v149q0 7 5 11.5t11.5 4.5t11 -4.5t4.5 -11.5v-149q0 -7 -4.5 -11.5t-11 -4.5zM485 -37h-469q-7 0 -11.5 4.5t-4.5 11t4.5 11.5t11.5 5h469q7 0 11.5 -5t4.5 -11.5t-4.5 -11
t-11.5 -4.5zM251 251q-20 0 -34 14t-14 34t14 34t34 14t34 -14t14 -34t-14 -34t-34 -14zM250.5 315q-6.5 0 -11 -5t-4.5 -11.5t4.5 -11t11 -4.5t11.5 4.5t5 11t-5 11.5t-11.5 5z" />
    <glyph glyph-name="building-3" unicode="building&#x2d;&#x33;" 
d="M443 -37h-427q-7 0 -11.5 4.5t-4.5 11t4.5 11.5t11.5 5h427q6 0 11 -5t5 -11.5t-5 -11t-11 -4.5zM38 -38q-7 0 -11.5 5t-4.5 11l-1 319q0 31 26 49l86 57q32 22 65 0l85 -57q26 -17 26 -49v-318q0 -7 -4.5 -11.5t-11.5 -4.5zM165 381q-8 0 -14 -5l-86 -57q-12 -7 -12 -22
l1 -303l224 1l-1 302q0 15 -11 22l-86 57q-6 5 -15 5zM399.5 -38q-6.5 0 -11 5t-4.5 11v86q0 7 4.5 11.5t11 4.5t11.5 -4.5t5 -11.5v-86q0 -6 -5 -11t-11.5 -5zM400 48q-24 0 -41.5 17t-17.5 42v42q0 25 17.5 42t41.5 17t41.5 -17t17.5 -42v-42q0 -25 -17.5 -42t-41.5 -17z
M400 176q-11 0 -19 -8t-8 -19v-42q0 -11 8 -19t19 -8t19 8t8 19v42q0 11 -8 19t-19 8zM293 133h-256q-6 0 -11 5t-5 11.5t5 11t11 4.5h256q7 0 11.5 -4.5t4.5 -11t-4.5 -11.5t-11.5 -5zM165.5 -37q-6.5 0 -11.5 4.5t-5 11.5v80q0 6 5 11t11.5 5t11 -5t4.5 -11v-80
q0 -7 -4.5 -11.5t-11 -4.5zM165 208q-20 0 -34 14t-14 34t14 34t34 14t34 -14t14 -34t-14 -34t-34 -14zM165.5 272q-6.5 0 -11.5 -4.5t-5 -11.5t5 -11.5t11.5 -4.5t11 4.5t4.5 11.5t-4.5 11.5t-11 4.5z" />
    <glyph glyph-name="building-4" unicode="building&#x2d;&#x34;" horiz-adv-x="501" 
d="M485 -37h-469q-7 0 -11.5 4.5t-4.5 11t4.5 11.5t11.5 5h469q7 0 11.5 -5t4.5 -11.5t-4.5 -11t-11.5 -4.5zM416.5 -38q-6.5 0 -11 5t-4.5 11v96q0 6 4.5 11t11 5t11.5 -5t5 -11v-96q0 -6 -5 -11t-11.5 -5zM417 58q-26 0 -44.5 18t-18.5 45v48q0 26 18.5 44.5t44.5 18.5
t44.5 -18.5t18.5 -44.5v-48q0 -27 -18.5 -45t-44.5 -18zM417 200q-13 0 -22 -9t-9 -22v-49q0 -12 9 -21.5t22 -9.5t22 9.5t9 21.5v49q0 13 -9 22t-22 9zM299.5 -37q-6.5 0 -11 4.5t-4.5 11.5v340q0 26 -11.5 37.5t-36.5 11.5h-133q-25 0 -36.5 -11.5t-11.5 -37.5v-340
q0 -7 -4.5 -11.5t-11 -4.5t-11.5 4.5t-5 11.5v340q0 39 21 60t59 21h133q39 0 59.5 -21t20.5 -60v-340q0 -7 -5 -11.5t-11.5 -4.5zM224 256h-106q-6 0 -11 4.5t-5 11.5t5 11.5t11 4.5h106q7 0 11.5 -4.5t4.5 -11.5t-4.5 -11.5t-11.5 -4.5zM224 176h-106q-6 0 -11 4.5
t-5 11.5t5 11.5t11 4.5h106q7 0 11.5 -4.5t4.5 -11.5t-4.5 -11.5t-11.5 -4.5zM170.5 -37q-6.5 0 -11 4.5t-4.5 11.5v80q0 6 4.5 11t11 5t11.5 -5t5 -11v-80q0 -7 -5 -11.5t-11.5 -4.5z" />
    <glyph glyph-name="building" unicode="building" 
d="M241 -37h-180q-25 0 -43 17.5t-18 42.5v316q0 51 34 72q35 22 82 -1l95 -46q19 -10 32.5 -31.5t13.5 -42.5v-311q0 -7 -5 -11.5t-11 -4.5zM71 389q-11 0 -20 -5q-19 -12 -19 -45v-316q0 -12 8.5 -20t20.5 -8h164v295q0 12 -8.5 25.5t-20.5 19.5l-94 46q-17 8 -31 8z
M375 -37h-134q-7 0 -11.5 4.5t-4.5 11.5v247q0 7 6 12t13 3l10 -2l140 -31q63 -14 65 -77v-4v-81q0 -83 -84 -83zM257 -5h118q28 0 40 11.5t12 39.5v82q-1 22 -10 33t-30 16l-130 29v-211zM165 240h-74q-6 0 -11 4.5t-5 11.5t5 11.5t11 4.5h74q7 0 11.5 -4.5t4.5 -11.5
t-4.5 -11.5t-11.5 -4.5zM165 155h-74q-6 0 -11 4.5t-5 11t5 11.5t11 5h74q7 0 11.5 -5t4.5 -11.5t-4.5 -11t-11.5 -4.5zM298.5 69q-26.5 0 -45 19t-18.5 45v91q0 7 6 12t13 3l96 -21q13 -3 13 -16v-68q0 -27 -19 -46t-45.5 -19zM267 204v-71q0 -13 9 -22.5t22.5 -9.5t23 9.5
t9.5 22.5v56zM395 69q-27 0 -45.5 19t-18.5 45v69q0 8 6 12q6 5 13 4l43 -10q64 -14 65 -77v-1q-1 -26 -19.5 -43.5t-43.5 -17.5zM363 182v-49q0 -13 9 -22.5t23 -9.5q12 0 21.5 8.5t9.5 21.5q0 20 -9.5 30.5t-29.5 15.5z" />
    <glyph glyph-name="buildings-2" unicode="buildings&#x2d;&#x32;" 
d="M116 48h-54q-30 0 -46 16t-16 46v249q0 30 16 46t46 16h92q29 0 45 -16t16 -46v-39q0 -7 -4.5 -11.5t-11 -4.5t-11.5 4.5t-5 11.5v39q0 17 -6.5 23.5t-22.5 6.5h-92q-16 0 -23 -6.5t-7 -23.5v-249q0 -16 7 -23t23 -7h54q7 0 11.5 -4.5t4.5 -11.5t-4.5 -11.5t-11.5 -4.5z
M292 -37h-124q-32 0 -50 17.5t-18 49.5v238q0 33 18 50.5t50 17.5h124q33 0 50.5 -17.5t17.5 -50.5v-238q0 -32 -17.5 -49.5t-50.5 -17.5zM168 304q-19 0 -27.5 -8t-8.5 -28v-238q0 -19 8.5 -27t27.5 -8h124q20 0 28 8t8 27v238q0 20 -8 28t-28 8h-124zM397 48h-53
q-7 0 -11.5 4.5t-4.5 11.5t4.5 11.5t11.5 4.5h53q16 0 23 7t7 23v249q0 17 -7 23.5t-23 6.5h-92q-16 0 -23 -6.5t-7 -23.5v-39q0 -7 -4.5 -11.5t-11 -4.5t-11.5 4.5t-5 11.5v39q0 30 16.5 46t45.5 16h92q29 0 45.5 -16t16.5 -46v-249q0 -30 -16.5 -46t-45.5 -16zM272 197
h-85q-7 0 -11.5 5t-4.5 11.5t4.5 11t11.5 4.5h85q7 0 11.5 -4.5t4.5 -11t-4.5 -11.5t-11.5 -5zM272 133h-85q-7 0 -11.5 5t-4.5 11.5t4.5 11t11.5 4.5h85q7 0 11.5 -4.5t4.5 -11t-4.5 -11.5t-11.5 -5zM229.5 -37q-6.5 0 -11.5 4.5t-5 11.5v64q0 6 5 11t11.5 5t11 -5t4.5 -11
v-64q0 -7 -4.5 -11.5t-11 -4.5z" />
    <glyph glyph-name="buildings" unicode="buildings" 
d="M251 -37h-171q-39 0 -59.5 20.5t-20.5 59.5v170q0 39 20.5 59.5t59.5 20.5h107q6 0 11 -4.5t5 -11.5v-234q0 -26 11 -37t37 -11q6 0 11 -5t5 -11.5t-5 -11t-11 -4.5zM80 261q-25 0 -36.5 -11t-11.5 -37v-170q0 -26 11.5 -37t36.5 -11h102q-11 19 -11 48v218h-91zM187 261
h-107q-7 0 -11.5 5t-4.5 11v43q0 24 17 41.5t42 17.5h66q8 0 13 -7q4 -6 2 -13q-1 -7 -1 -18v-64q0 -6 -5 -11t-11 -5zM96 293h75v48v6h-48q-11 0 -19 -8t-8 -19v-27zM272 155q-7 0 -11.5 4.5t-4.5 11.5v106q0 7 4.5 11.5t11.5 4.5t11.5 -4.5t4.5 -11.5v-106
q0 -7 -4.5 -11.5t-11.5 -4.5zM357.5 155q-6.5 0 -11.5 4.5t-5 11.5v106q0 7 5 11.5t11.5 4.5t11 -4.5t4.5 -11.5v-106q0 -7 -4.5 -11.5t-11 -4.5zM357 -37h-85q-7 0 -11.5 4.5t-4.5 11.5v85q0 15 11 26t26 11h43q15 0 26 -11t11 -26v-85q0 -7 -4.5 -11.5t-11.5 -4.5zM288 -5
h53v69q0 5 -5 5h-43q-5 0 -5 -5v-69zM101.5 69q-6.5 0 -11.5 5t-5 11v86q0 6 5 11t11.5 5t11 -5t4.5 -11v-86q0 -6 -4.5 -11t-11 -5zM379 -37h-128q-39 0 -59.5 20.5t-20.5 59.5v298q0 39 20.5 59.5t59.5 20.5h128q38 0 59 -20.5t21 -59.5v-298q0 -39 -21 -59.5t-59 -20.5z
M251 389q-26 0 -37 -11t-11 -37v-298q0 -26 11 -37t37 -11h128q25 0 36.5 11t11.5 37v298q0 26 -11.5 37t-36.5 11h-128z" />
    <glyph glyph-name="buliding" unicode="buliding" 
d="M443 -37h-427q-7 0 -11.5 4.5t-4.5 11t4.5 11.5t11.5 5h427q6 0 11 -5t5 -11.5t-5 -11t-11 -4.5zM421 -37h-384q-6 0 -11 4.5t-5 11.5v341q0 48 26.5 74.5t75.5 26.5h213q48 0 74.5 -26.5t26.5 -74.5v-341q0 -7 -4.5 -11.5t-11.5 -4.5zM53 -5h352v325q0 36 -16.5 52.5
t-52.5 16.5h-213q-36 0 -53 -16.5t-17 -52.5v-325zM187 80h-64q-7 0 -11.5 4.5t-4.5 11.5t4.5 11.5t11.5 4.5h64q6 0 11 -4.5t5 -11.5t-5 -11.5t-11 -4.5zM336 80h-64q-7 0 -11.5 4.5t-4.5 11.5t4.5 11.5t11.5 4.5h64q7 0 11.5 -4.5t4.5 -11.5t-4.5 -11.5t-11.5 -4.5z
M187 176h-64q-7 0 -11.5 4.5t-4.5 11.5t4.5 11.5t11.5 4.5h64q6 0 11 -4.5t5 -11.5t-5 -11.5t-11 -4.5zM336 176h-64q-7 0 -11.5 4.5t-4.5 11.5t4.5 11.5t11.5 4.5h64q7 0 11.5 -4.5t4.5 -11.5t-4.5 -11.5t-11.5 -4.5zM187 272h-64q-7 0 -11.5 4.5t-4.5 11.5t4.5 11.5
t11.5 4.5h64q6 0 11 -4.5t5 -11.5t-5 -11.5t-11 -4.5zM336 272h-64q-7 0 -11.5 4.5t-4.5 11.5t4.5 11.5t11.5 4.5h64q7 0 11.5 -4.5t4.5 -11.5t-4.5 -11.5t-11.5 -4.5z" />
    <glyph glyph-name="courthouse" unicode="courthouse" 
d="M443 -37h-427q-7 0 -11.5 4.5t-4.5 11t4.5 11.5t11.5 5h427q6 0 11 -5t5 -11.5t-5 -11t-11 -4.5zM282.5 315q-30.5 0 -59.5 12q-10 4 -10 15v64q0 8 7.5 13t14.5 1q23 -9 47.5 -9t47.5 9q8 4 15 -1t7 -13v-64q0 -11 -10 -15q-29 -12 -59.5 -12zM245 353q38 -12 75 0v31
q-37 -10 -75 0v-31zM229.5 261q-6.5 0 -11.5 5t-5 11v64q0 7 5 11.5t11.5 4.5t11 -4.5t4.5 -11.5v-64q0 -6 -4.5 -11t-11 -5zM400 -37h-341q-7 0 -11.5 4.5t-4.5 11.5v234q0 39 20.5 59.5t59.5 20.5h213q39 0 59.5 -20.5t20.5 -59.5v-234q0 -7 -4.5 -11.5t-11.5 -4.5zM75 -5
h309v218q0 26 -11.5 37t-36.5 11h-213q-26 0 -37 -11t-11 -37v-218zM388 176h-317q-7 0 -11.5 4.5t-4.5 11.5t4.5 11.5t11.5 4.5h317q6 0 11 -4.5t5 -11.5t-5 -11.5t-11 -4.5zM160 192v-213h-32v213h32zM245 192v-213h-32v213h32zM330 192v-213h-32v213h32z" />
    <glyph glyph-name="hospital" unicode="hospital" 
d="M443 -37h-427q-7 0 -11.5 4.5t-4.5 11t4.5 11.5t11.5 5h427q6 0 11 -5t5 -11.5t-5 -11t-11 -4.5zM421 -37h-384q-6 0 -11 4.5t-5 11.5v341q0 48 26.5 74.5t75.5 26.5h213q48 0 74.5 -26.5t26.5 -74.5v-341q0 -7 -4.5 -11.5t-11.5 -4.5zM53 -5h352v325q0 36 -16.5 52.5
t-52.5 16.5h-213q-36 0 -53 -16.5t-17 -52.5v-325zM293 -37h-128q-6 0 -11 4.5t-5 11.5v129q0 15 11 25.5t25 10.5h88q15 0 26 -10.5t11 -25.5v-129q-1 -7 -5.5 -11.5t-11.5 -4.5zM181 -5h96v113q0 4 -4 4h-88q-4 0 -4 -4v-113zM229.5 197q-6.5 0 -11.5 5t-5 11v107
q0 7 5 11.5t11.5 4.5t11 -4.5t4.5 -11.5v-107q0 -6 -4.5 -11t-11 -5zM283 251h-107q-7 0 -11.5 4.5t-4.5 11t4.5 11.5t11.5 5h107q6 0 11 -5t5 -11.5t-5 -11t-11 -4.5z" />
    <glyph glyph-name="house-2" unicode="house&#x2d;&#x32;" 
d="M443 -37h-427q-7 0 -11.5 4.5t-4.5 11t4.5 11.5t11.5 5h427q6 0 11 -5t5 -11.5t-5 -11t-11 -4.5zM52 -21h-32l1 256q0 29 23 46l149 117q16 12 36 12t36 -12l150 -116q22 -18 22 -47v-256h-32v256q0 13 -10 21l-149 116q-16 13 -33 0l-149 -116q-11 -8 -11 -21zM336 -37
h-213q-7 0 -11.5 4.5t-4.5 11.5v202q0 20 14 34t34 14h149q20 0 34 -14t14 -34v-202q0 -7 -4.5 -11.5t-11.5 -4.5zM139 -5h181v186q0 7 -4.5 11.5t-11.5 4.5h-149q-7 0 -11.5 -4.5t-4.5 -11.5v-186zM186.5 53q-6.5 0 -11 5t-4.5 11v32q0 7 4.5 11.5t11 4.5t11.5 -4.5
t5 -11.5v-32q0 -6 -5 -11t-11.5 -5zM261 272h-64q-6 0 -11 4.5t-5 11.5t5 11.5t11 4.5h64q7 0 11.5 -4.5t4.5 -11.5t-4.5 -11.5t-11.5 -4.5z" />
    <glyph glyph-name="house" unicode="house" 
d="M443 -37h-427q-7 0 -11.5 4.5t-4.5 11t4.5 11.5t11.5 5h427q6 0 11 -5t5 -11.5t-5 -11t-11 -4.5zM52 -21h-32l1 256q0 29 23 46l149 117q16 12 36 12t36 -12l150 -116q22 -18 22 -47v-256h-32v256q0 13 -10 21l-149 116q-16 13 -33 0l-149 -116q-11 -8 -11 -21zM283 -37
h-107q-7 0 -11.5 4.5t-4.5 11.5v74q0 20 14 34t34 14h43q20 0 34 -14t14 -34v-74q0 -7 -5 -11.5t-11 -4.5zM192 -5h75v58q0 7 -5 11.5t-11 4.5h-43q-7 0 -11.5 -4.5t-4.5 -11.5v-58zM176 139h-43q-15 0 -26 11t-11 26v32q0 15 11 26t26 11h43q15 0 26 -11t11 -26v-32
q0 -15 -11 -26t-26 -11zM133 213q-5 0 -5 -5v-32q0 -5 5 -5h43q5 0 5 5v32q0 5 -5 5h-43zM325 139h-42q-16 0 -27 11t-11 26v32q0 15 11 26t27 11h42q16 0 27 -11t11 -26v-32q0 -15 -11 -26t-27 -11zM283 213q-6 0 -6 -5v-32q0 -5 6 -5h42q6 0 6 5v32q0 5 -6 5h-42z
M378.5 283q-6.5 0 -11 4.5t-4.5 10.5l-1 49h-78q-6 0 -11 4.5t-5 11t5 11.5t11 5h94q7 0 11.5 -5t4.5 -11l1 -64q0 -7 -5 -11.5t-11.5 -4.5z" />
    <glyph glyph-name="activity" unicode="activity" 
d="M293 -37h-128q-87 0 -126 39t-39 126v128q0 87 39 126t126 39h128q87 0 126.5 -39t39.5 -126v-128q0 -87 -39.5 -126t-126.5 -39zM165 389q-73 0 -103 -29.5t-30 -103.5v-128q0 -74 30 -103.5t103 -29.5h128q74 0 104 29.5t30 103.5v128q0 74 -30 103.5t-104 29.5h-128z
M130 123q-6 0 -10 3q-13 10 -3 23l51 66q9 12 24.5 14t27.5 -8l39 -30q2 -2 4 -2t4 3l49 63q4 5 11 6t12 -3q13 -10 3 -22l-50 -64q-10 -13 -25 -14q-15 -2 -27 8l-39 30q-2 2 -5 1q-2 0 -3 -2l-51 -66q-4 -6 -12 -6z" />
    <glyph glyph-name="chart-1" unicode="chart&#x2d;&#x31;" 
d="M443 -37h-427q-7 0 -11.5 4.5t-4.5 11t4.5 11.5t11.5 5h427q6 0 11 -5t5 -11.5t-5 -11t-11 -4.5zM277 -37h-96q-6 0 -11 4.5t-5 11.5v384q0 27 14.5 42.5t40.5 15.5h19q26 0 40 -15.5t14 -42.5v-384q0 -7 -4.5 -11.5t-11.5 -4.5zM197 -5h64v368q0 16 -6 21t-16 5h-19
q-7 0 -11 -1t-8 -7.5t-4 -17.5v-368zM123 -37h-86q-6 0 -11 4.5t-5 11.5v256q0 27 13.5 42.5t36.5 15.5h18q23 0 36.5 -15.5t13.5 -42.5v-256q0 -7 -5 -11.5t-11 -4.5zM53 -5h54v240q0 12 -4 18.5t-7 7t-7 0.5h-18q-4 0 -7 -0.5t-7 -7t-4 -18.5v-240zM421 -37h-85
q-7 0 -11.5 4.5t-4.5 11.5v149q0 28 13.5 43.5t36.5 15.5h17q24 0 37 -15.5t13 -43.5v-149q0 -7 -4.5 -11.5t-11.5 -4.5zM352 -5h53v133q0 12 -3.5 18.5t-6.5 7.5t-8 1h-17q-5 0 -8 -1t-6.5 -7.5t-3.5 -18.5v-133z" />
    <glyph glyph-name="chart-2" unicode="chart&#x2d;&#x32;" 
d="M293 -37h-128q-87 0 -126 39t-39 126v128q0 87 39 126t126 39h128q87 0 126.5 -39t39.5 -126v-128q0 -87 -39.5 -126t-126.5 -39zM165 389q-73 0 -103 -29.5t-30 -103.5v-128q0 -74 30 -103.5t103 -29.5h128q74 0 104 29.5t30 103.5v128q0 74 -30 103.5t-104 29.5h-128z
M304 37q-24 0 -41.5 17.5t-17.5 41.5v192q0 24 17.5 41.5t41.5 17.5t41.5 -17.5t17.5 -41.5v-192q0 -24 -17.5 -41.5t-41.5 -17.5zM304 315q-11 0 -19 -8t-8 -19v-192q0 -11 8 -19t19 -8t19 8t8 19v192q0 11 -8 19t-19 8zM154.5 37q-24.5 0 -41.5 17.5t-17 41.5v75
q0 24 17 41t41.5 17t41.5 -17t17 -41v-75q0 -24 -17 -41.5t-41.5 -17.5zM155 197q-11 0 -19 -7.5t-8 -18.5v-75q0 -11 8 -19t19 -8t18.5 8t7.5 19v75q0 11 -7.5 18.5t-18.5 7.5z" />
    <glyph glyph-name="chart-21" unicode="chart&#x2d;&#x32;&#x31;" horiz-adv-x="416" 
d="M400 -37h-384q-7 0 -11.5 4.5t-4.5 11t4.5 11.5t11.5 5h384q7 0 11.5 -5t4.5 -11.5t-4.5 -11t-11.5 -4.5zM71 27h-34q-15 0 -26 11t-11 26v184q0 15 11 26t26 11h34q16 0 27 -11t11 -26v-184q0 -15 -11 -26t-27 -11zM37 253q-5 0 -5 -5v-184q0 -5 5 -5h34q6 0 6 5v184
q0 5 -6 5h-34zM225 27h-34q-15 0 -26 11t-11 26v252q0 15 11 26t26 11h34q15 0 26 -11t11 -26v-252q0 -15 -11 -26t-26 -11zM191 321q-5 0 -5 -5v-252q0 -5 5 -5h34q5 0 5 5v252q0 5 -5 5h-34zM379 27h-34q-16 0 -27 11t-11 26v320q0 15 11 26t27 11h34q15 0 26 -11t11 -26
v-320q0 -15 -11 -26t-26 -11zM345 389q-6 0 -6 -5v-320q0 -5 6 -5h34q5 0 5 5v320q0 5 -5 5h-34z" />
    <glyph glyph-name="chart-fail" unicode="chart&#x2d;fail" 
d="M341 -11q-7 0 -11.5 4.5t-4.5 11.5t5 11l75 76q5 4 11.5 4t11 -4.5t4.5 -11t-4 -11.5l-76 -75q-4 -5 -11 -5zM416 -11q-6 0 -11 5l-75 75q-5 5 -5 11.5t4.5 11t11.5 4.5t11 -4l76 -76q4 -4 4 -11t-4 -11q-5 -5 -12 -5zM122.5 144q-6.5 0 -11 4.5t-4.5 11.5v64
q0 7 4.5 11.5t11 4.5t11.5 -4.5t5 -11.5v-64q0 -7 -5 -11.5t-11.5 -4.5zM229.5 144q-6.5 0 -11.5 4.5t-5 11.5v64q0 7 5 11.5t11.5 4.5t11 -4.5t4.5 -11.5v-64q0 -7 -4.5 -11.5t-11 -4.5zM336 144q-7 0 -11.5 4.5t-4.5 11.5v64q0 7 4.5 11.5t11.5 4.5t11.5 -4.5t4.5 -11.5
v-64q0 -7 -4.5 -11.5t-11.5 -4.5zM251 -37h-86q-87 0 -126 39t-39 126v128q0 87 39 126t126 39h128q87 0 126.5 -39t39.5 -126v-85q0 -7 -5 -11.5t-11.5 -4.5t-11 4.5t-4.5 11.5v85q0 74 -30 103.5t-104 29.5h-128q-73 0 -103 -29.5t-30 -103.5v-128q0 -74 30 -103.5
t103 -29.5h86q6 0 11 -5t5 -11.5t-5 -11t-11 -4.5z" />
    <glyph glyph-name="chart-success" unicode="chart&#x2d;success" 
d="M251 -37h-86q-87 0 -126 39t-39 126v128q0 87 39 126t126 39h128q87 0 126.5 -39t39.5 -126v-85q0 -7 -5 -11.5t-11.5 -4.5t-11 4.5t-4.5 11.5v85q0 74 -30 103.5t-104 29.5h-128q-73 0 -103 -29.5t-30 -103.5v-128q0 -74 30 -103.5t103 -29.5h86q6 0 11 -5t5 -11.5
t-5 -11t-11 -4.5zM251 -37h-86q-87 0 -126 39t-39 126v128q0 87 39 126t126 39h128q87 0 126.5 -39t39.5 -126v-85q0 -7 -5 -11.5t-11.5 -4.5t-11 4.5t-4.5 11.5v85q0 74 -30 103.5t-104 29.5h-128q-73 0 -103 -29.5t-30 -103.5v-128q0 -74 30 -103.5t103 -29.5h86
q6 0 11 -5t5 -11.5t-5 -11t-11 -4.5zM122.5 135q-6.5 0 -11 4.5t-4.5 11.5v68q0 7 4.5 11.5t11 4.5t11.5 -4.5t5 -11.5v-68q0 -7 -5 -11.5t-11.5 -4.5zM336 135q-7 0 -11.5 4.5t-4.5 11.5v68q0 7 4.5 11.5t11.5 4.5t11.5 -4.5t4.5 -11.5v-68q0 -7 -4.5 -11.5t-11.5 -4.5z
M251 -37h-86q-87 0 -126 39t-39 126v128q0 87 39 126t126 39h128q87 0 126.5 -39t39.5 -126v-85q0 -7 -5 -11.5t-11.5 -4.5t-11 4.5t-4.5 11.5v85q0 74 -30 103.5t-104 29.5h-128q-73 0 -103 -29.5t-30 -103.5v-128q0 -74 30 -103.5t103 -29.5h86q6 0 11 -5t5 -11.5t-5 -11
t-11 -4.5zM348 -16q-6 0 -11 5l-34 33q-4 5 -4 11.5t4.5 11t11 5t11.5 -4.5l22 -22l61 73q11 12 23 1q12 -10 2 -22l-73 -85q-5 -6 -12 -6h-1zM229.5 144q-6.5 0 -11.5 4.5t-5 11.5v64q0 7 5 11.5t11.5 4.5t11 -4.5t4.5 -11.5v-64q0 -7 -4.5 -11.5t-11 -4.5z" />
    <glyph glyph-name="chart" unicode="chart" 
d="M229 -37q-95 0 -162 67t-67 162q0 77 46 138q10 13 23 3.5t3 -22.5q-40 -53 -40 -119q0 -82 58 -139.5t139.5 -57.5t139.5 57.5t58 139.5t-58 139.5t-140 57.5q-6 0 -11 5t-5 11.5t5 11t11 4.5q95 0 162.5 -67t67.5 -162t-67.5 -162t-162.5 -67zM229.5 27
q-68.5 0 -117 48.5t-48.5 116.5q0 7 4.5 11.5t11.5 4.5t11.5 -4.5t4.5 -11.5q0 -55 39 -94t94.5 -39t94.5 39t39 94t-39 94t-95 39q-6 0 -11 5t-5 11.5t5 11t11 4.5q69 0 117.5 -48.5t48.5 -116.5t-48.5 -116.5t-117 -48.5zM229 91q-6 0 -11 4.5t-5 11t5 11.5t11 5
q29 0 49.5 20t20.5 49t-20.5 49t-49.5 20q-6 0 -11 5t-5 11.5t5 11t11 4.5q42 0 72 -29.5t30 -71.5t-30 -71.5t-72 -29.5z" />
    <glyph glyph-name="diagram" unicode="diagram" 
d="M443 -37h-363q-33 0 -56.5 23.5t-23.5 56.5v362q0 7 4.5 11.5t11.5 4.5t11.5 -4.5t4.5 -11.5v-362q0 -20 14 -34t34 -14h363q6 0 11 -5t5 -11.5t-5 -11t-11 -4.5zM80 69q-6 0 -10 4q-12 11 -2 23l98 114q17 20 42 21q26 0 44 -17l20 -21q8 -8 20 -8q11 1 19 10l98 114
q10 12 22.5 1.5t1.5 -22.5l-98 -114q-16 -20 -42 -21q-26 0 -44 17l-20 21q-8 8 -19.5 7.5t-19.5 -9.5l-98 -114q-5 -6 -12 -6z" />
    <glyph glyph-name="favorite-chart" unicode="favorite&#x2d;chart" 
d="M251 -37h-86q-87 0 -126 39t-39 126v128q0 87 39 126t126 39h128q87 0 126.5 -39t39.5 -126v-85q0 -7 -5 -11.5t-11.5 -4.5t-11 4.5t-4.5 11.5v85q0 74 -30 103.5t-104 29.5h-128q-73 0 -103 -29.5t-30 -103.5v-128q0 -74 30 -103.5t103 -29.5h86q6 0 11 -5t5 -11.5
t-5 -11t-11 -4.5zM130 123q-6 0 -10 3q-13 10 -3 23l51 66q9 12 24.5 14t27.5 -8l39 -30q2 -2 4 -2t4 3l49 63q10 13 23 3t3 -22l-50 -64q-10 -13 -25 -14q-15 -2 -27 8l-39 30q-2 2 -4 1q-2 0 -4 -2l-51 -66q-4 -6 -12 -6zM406 -37q-14 0 -29 9l-5 3q-1 1 -3.5 1t-4.5 -1
l-5 -3q-29 -17 -47 -4q-19 14 -11 47l1 4q1 4 -2 7l-8 7q-20 21 -13 42t35 25l8 2q3 1 5 4l6 12q13 26 35 26t35 -26l6 -12q2 -3 6 -4l8 -2q28 -4 34.5 -25t-13.5 -41l-7 -8q-3 -3 -2 -7l1 -4q7 -33 -12 -46q-7 -6 -18 -6zM368 112q-4 -4 -6 -9l-6 -12q-9 -18 -29 -21l-8 -1
q-8 -2 -9 -4q0 -3 5 -9l8 -7q15 -16 10 -37l-1 -4q-2 -9 -1 -14q0 1 1.5 1t4.5 1.5t6 3.5l5 3q20 12 40 0l6 -3q7 -5 12 -5v1t-0.5 4.5t-1.5 7.5l-1 4q-4 21 11 37l7 7q6 6 6 9q-1 2 -9 4l-9 1q-19 3 -28 22l-6 11q-4 8 -7 9z" />
    <glyph glyph-name="graph" unicode="graph" horiz-adv-x="446" 
d="M364 176h-71q-80 0 -80 90v61q0 51 26 70q27 20 86 3q40 -11 70.5 -42t42.5 -70q17 -59 -4 -87q-19 -25 -70 -25zM278 376q-13 0 -20 -5q-12 -9 -12 -44v-62q0 -33 11.5 -45t36.5 -12h70q35 0 45 12q11 15 -2 58q-9 32 -34 57t-56 34q-24 7 -39 7zM210 -37q-18 0 -35 2
q-65 11 -113.5 59t-58.5 114q-14 84 34 153.5t131 86.5q6 2 11.5 -2t7 -10.5t-2 -12t-10.5 -6.5q-70 -15 -110.5 -74t-28.5 -130q9 -56 49.5 -96.5t95.5 -49.5q72 -11 131 29.5t74 110.5q1 7 6.5 10.5t12 2.5t10 -6.5t2.5 -12.5q-15 -74 -73.5 -121t-132.5 -47z" />
    <glyph glyph-name="hashtag" unicode="hashtag" horiz-adv-x="437" 
d="M133 -16h-1q-7 1 -11 6t-3 12l42 384q1 6 6 10t11.5 3.5t11 -5.5t3.5 -12l-43 -384q-2 -14 -16 -14zM261 -16h-1q-7 1 -11 6t-3 12l42 384q1 6 6 10t11.5 3.5t11 -5.5t3.5 -12l-43 -384q-2 -14 -16 -14zM421 240h-384q-6 0 -11 4.5t-5 11.5t5 11.5t11 4.5h384
q7 0 11.5 -4.5t4.5 -11.5t-4.5 -11.5t-11.5 -4.5zM400 112h-384q-7 0 -11.5 4.5t-4.5 11.5t4.5 11.5t11.5 4.5h384q7 0 11.5 -4.5t4.5 -11.5t-4.5 -11.5t-11.5 -4.5z" />
    <glyph glyph-name="health" unicode="health" horiz-adv-x="460" 
d="M293 -37h-128q-87 0 -126 39t-39 126v128q0 87 39 126t126 39h128q87 0 126.5 -39t39.5 -126v-128q0 -87 -39.5 -126t-126.5 -39zM165 389q-73 0 -103 -29.5t-30 -103.5v-128q0 -74 30 -103.5t103 -29.5h128q74 0 104 29.5t30 103.5v128q0 74 -30 103.5t-104 29.5h-128z
M218.5 63q-16.5 0 -24.5 20l-25 62q-2 6 -10 11t-15 5h-128q-6 0 -11 4.5t-5 11.5t5 11.5t11 4.5h128h1q16 0 32 -10.5t22 -26.5l20 -49l44 112q7 18 23 19t25 -17l22 -42q3 -5 10.5 -9.5t13.5 -4.5h87q6 0 11 -4.5t5 -11t-5 -11.5t-11 -5h-87q-15 0 -30 9t-22 22l-17 32
l-44 -113q-9 -20 -25.5 -20z" />
    <glyph glyph-name="home-hashtag" unicode="home&#x2d;hashtag" 
d="M353 -37h-247q-44 0 -75 31t-31 75v158q0 22 12 46t29 37l115 90q26 20 62.5 21t63.5 -18l131 -92q19 -14 32.5 -39t13.5 -48v-155q0 -44 -31 -75t-75 -31zM176 375l-115 -90q-12 -9 -20.5 -26.5t-8.5 -31.5v-158q0 -31 21.5 -52.5t52.5 -21.5h247q30 0 52 21.5t22 52.5
v155q0 15 -9.5 33.5t-22.5 26.5l-132 93q-18 13 -44 12t-43 -14zM261 48h-64q-33 0 -56.5 23.5t-23.5 56.5v64q0 33 23.5 56.5t56.5 23.5h64q33 0 56.5 -23.5t23.5 -56.5v-64q0 -33 -23.5 -56.5t-56.5 -23.5zM197 240q-20 0 -34 -14t-14 -34v-64q0 -20 14 -34t34 -14h64
q20 0 34 14t14 34v64q0 20 -14 34t-34 14h-64zM229.5 48q-6.5 0 -11.5 4.5t-5 11.5v192q0 7 5 11.5t11.5 4.5t11 -4.5t4.5 -11.5v-192q0 -7 -4.5 -11.5t-11 -4.5zM325 144h-192q-6 0 -11 4.5t-5 11.5t5 11.5t11 4.5h192q7 0 11.5 -4.5t4.5 -11.5t-4.5 -11.5t-11.5 -4.5z" />
    <glyph glyph-name="home-trend-down" unicode="home&#x2d;trend&#x2d;down" 
d="M353 -37h-247q-44 0 -75 31t-31 75v158q0 22 12 46t29 37l115 90q26 20 62.5 21t63.5 -18l131 -92q19 -14 32.5 -39t13.5 -48v-155q0 -44 -31 -75t-75 -31zM176 375l-115 -90q-12 -9 -20.5 -26.5t-8.5 -31.5v-158q0 -31 21.5 -52.5t52.5 -21.5h247q30 0 52 21.5t22 52.5
v155q0 15 -9.5 33.5t-22.5 26.5l-132 93q-18 13 -44 12t-43 -14zM325.5 80q-6.5 0 -11.5 5l-76 75l-23 -35q-4 -6 -11.5 -6.5t-12.5 4.5l-69 68q-4 5 -4 11.5t4.5 11.5t11 5t11.5 -5l54 -54l24 35q4 6 11.5 6.5t12.5 -4.5l90 -90q4 -4 4 -11t-4.5 -11.5t-11 -4.5zM325 80
h-42q-7 0 -11.5 4.5t-4.5 11.5t4.5 11.5t11.5 4.5h26v27q0 6 5 11t11.5 5t11 -5t4.5 -11v-43q0 -7 -4.5 -11.5t-11.5 -4.5z" />
    <glyph glyph-name="home-trend-up" unicode="home&#x2d;trend&#x2d;up" 
d="M353 -37h-247q-44 0 -75 31t-31 75v158q0 22 12 46t29 37l115 90q26 20 62.5 21t63.5 -18l131 -92q19 -14 32.5 -39t13.5 -48v-155q0 -44 -31 -75t-75 -31zM176 375l-115 -90q-12 -9 -20.5 -26.5t-8.5 -31.5v-158q0 -31 21.5 -52.5t52.5 -21.5h247q30 0 52 21.5t22 52.5
v155q0 15 -9.5 33.5t-22.5 26.5l-132 93q-18 13 -44 12t-43 -14zM133.5 80q-6.5 0 -11.5 4.5t-5 11.5t5 11l68 69q6 5 13 4.5t12 -7.5l23 -35l76 76q4 5 11 5t11.5 -5t4.5 -11.5t-5 -11.5l-89 -89q-6 -6 -13 -5t-12 7l-23 35l-54 -54q-5 -5 -11.5 -5zM325.5 144
q-6.5 0 -11.5 4.5t-5 11.5v27h-26q-7 0 -11.5 4.5t-4.5 11t4.5 11.5t11.5 5h42q7 0 11.5 -5t4.5 -11v-43q0 -7 -4.5 -11.5t-11 -4.5z" />
    <glyph glyph-name="personalcard" unicode="personalcard" 
d="M336 -16h-213q-71 0 -97 26t-26 97v170q0 71 26 97t97 26h213q71 0 97 -26t26 -97v-170q0 -71 -26 -97t-97 -26zM123 368q-58 0 -74.5 -17t-16.5 -74v-170q0 -57 16.5 -74t74.5 -17h213q57 0 74 17t17 74v170q0 57 -17 74t-74 17h-213zM379 261h-107q-7 0 -11.5 5
t-4.5 11.5t4.5 11t11.5 4.5h107q6 0 11 -4.5t5 -11t-5 -11.5t-11 -5zM379 176h-86q-6 0 -11 4.5t-5 11.5t5 11.5t11 4.5h86q6 0 11 -4.5t5 -11.5t-5 -11.5t-11 -4.5zM379 91h-43q-7 0 -11.5 4.5t-4.5 11t4.5 11.5t11.5 5h43q6 0 11 -5t5 -11.5t-5 -11t-11 -4.5zM154.5 191
q-22.5 0 -38.5 16t-16 38.5t16 38.5t38.5 16t38.5 -16t16 -38.5t-16 -38.5t-38.5 -16zM154.5 268q-9.5 0 -16 -6.5t-6.5 -16t6.5 -16t16 -6.5t16 6.5t6.5 16t-6.5 16t-16 6.5zM229 84q-6 0 -10.5 4t-5.5 10q-1 17 -13.5 29.5t-30.5 14.5q-15 1 -29 0q-18 -2 -30.5 -14
t-13.5 -30q-1 -6 -6 -10.5t-11.5 -4t-11 6t-3.5 11.5q3 29 23.5 49.5t49.5 23.5q17 1 35 0q29 -3 49.5 -23.5t23.5 -49.5q1 -6 -3.5 -11.5t-10.5 -5.5h-2z" />
    <glyph glyph-name="presention-chart" unicode="presention&#x2d;chart" 
d="M359 69h-260q-37 0 -57.5 20.5t-20.5 57.5v258q0 7 5 11.5t11 4.5h384q7 0 11.5 -4.5t4.5 -11.5v-258q0 -37 -20 -57.5t-58 -20.5zM53 389v-242q0 -24 11 -35t35 -11h260q24 0 35 11t11 35v242h-352zM443 389h-427q-7 0 -11.5 5t-4.5 11.5t4.5 11t11.5 4.5h427
q6 0 11 -4.5t5 -11t-5 -11.5t-11 -5zM144 -37q-10 0 -14 8q-3 6 -1 12.5t8 9.5l76 38v54q0 7 5 11.5t11.5 4.5t11 -4.5t4.5 -11.5v-64q0 -9 -9 -14l-85 -43q-3 -1 -7 -1zM315 -37q-4 0 -7 1l-86 43q-14 7 -7 22q7 14 22 7l85 -43q14 -7 7 -21q-4 -9 -14 -9zM133 197
q-7 0 -12 6q-10 12 2 23l67 56q10 8 22 6t18 -13l23 -37l62 52q12 10 22.5 -2.5t-1.5 -22.5l-68 -56q-9 -8 -21 -6t-19 13l-22 37l-62 -52q-5 -4 -11 -4z" />
    <glyph glyph-name="status-up" unicode="status&#x2d;up" 
d="M120.5 45q-6.5 0 -11.5 4.5t-5 11.5v44q0 7 5 11.5t11.5 4.5t11 -4.5t4.5 -11.5v-44q0 -7 -4.5 -11.5t-11 -4.5zM229.5 45q-6.5 0 -11.5 4.5t-5 11.5v88q0 7 5 11.5t11.5 4.5t11 -4.5t4.5 -11.5v-88q0 -7 -4.5 -11.5t-11 -4.5zM338.5 45q-6.5 0 -11 4.5t-4.5 11.5v132
q0 7 4.5 11.5t11 4.5t11.5 -4.5t5 -11.5v-132q0 -7 -5 -11.5t-11.5 -4.5zM120 167q-12 0 -15 12q-2 6 1.5 12t9.5 7q120 30 201 124l9 12q11 12 23 1.5t2 -22.5l-10 -12q-87 -101 -217 -134h-4zM338.5 245q-6.5 0 -11 4.5t-4.5 11.5v46h-47q-6 0 -11 5t-5 11.5t5 11t11 4.5
h63q6 0 11 -4.5t5 -11.5v-62q0 -7 -5 -11.5t-11.5 -4.5zM293 -37h-128q-87 0 -126 39t-39 126v128q0 87 39 126t126 39h128q87 0 126.5 -39t39.5 -126v-128q0 -87 -39.5 -126t-126.5 -39zM165 389q-73 0 -103 -29.5t-30 -103.5v-128q0 -74 30 -103.5t103 -29.5h128
q74 0 104 29.5t30 103.5v128q0 74 -30 103.5t-104 29.5h-128z" />
    <glyph glyph-name="trend-down" unicode="trend&#x2d;down" 
d="M325.5 123q-6.5 0 -11.5 4l-76 76l-23 -35q-4 -6 -11.5 -7t-12.5 5l-69 68q-4 5 -4 11.5t4.5 11t11 4.5t11.5 -4l54 -55l24 35q4 6 11 7q8 1 13 -4l90 -90q4 -5 4 -11.5t-4.5 -11t-11 -4.5zM325 123h-42q-7 0 -11.5 4.5t-4.5 11t4.5 11.5t11.5 5h26v26q0 7 5 11.5
t11.5 4.5t11 -4.5t4.5 -11.5v-42q0 -7 -4.5 -11.5t-11.5 -4.5zM293 -37h-128q-87 0 -126 39t-39 126v128q0 87 39 126t126 39h128q87 0 126.5 -39t39.5 -126v-128q0 -87 -39.5 -126t-126.5 -39zM165 389q-73 0 -103 -29.5t-30 -103.5v-128q0 -74 30 -103.5t103 -29.5h128
q74 0 104 29.5t30 103.5v128q0 74 -30 103.5t-104 29.5h-128z" />
    <glyph glyph-name="trend-up" unicode="trend&#x2d;up" 
d="M133.5 123q-6.5 0 -11.5 4.5t-5 11t5 11.5l68 68q6 6 13 5t12 -7l23 -35l76 76q4 4 11 4t11.5 -4.5t4.5 -11t-5 -11.5l-89 -90q-6 -5 -13 -4.5t-12 7.5l-23 35l-54 -55q-5 -4 -11.5 -4zM325.5 187q-6.5 0 -11.5 4.5t-5 11.5v26h-26q-7 0 -11.5 5t-4.5 11.5t4.5 11
t11.5 4.5h42q7 0 11.5 -4.5t4.5 -11.5v-42q0 -7 -4.5 -11.5t-11 -4.5zM293 -37h-128q-87 0 -126 39t-39 126v128q0 87 39 126t126 39h128q87 0 126.5 -39t39.5 -126v-128q0 -87 -39.5 -126t-126.5 -39zM165 389q-73 0 -103 -29.5t-30 -103.5v-128q0 -74 30 -103.5t103 -29.5
h128q74 0 104 29.5t30 103.5v128q0 74 -30 103.5t-104 29.5h-128z" />
    <glyph glyph-name="call-add" unicode="call&#x2d;add" horiz-adv-x="458" 
d="M346 -37q-36 0 -76 17q-38 16 -77 43q-37 28 -72 62q-33 34 -61 72q-28 39 -43 76q-17 39 -17 75q0 25 9 48t28 41q25 24 56 24q12 0 24 -5q13 -6 20 -17l50 -70q6 -9 10 -18q4 -10 4 -19q0 -12 -7 -24q-4 -8 -14 -18l-14 -15v-1q6 -10 18 -24t30 -33q20 -20 33 -30
q15 -13 24 -18v-1l16 15q9 10 19 15q19 12 41 2q9 -3 18 -10l71 -50q12 -8 17 -20t5 -23q0 -16 -7 -30q-7 -15 -17 -26q-18 -20 -40.5 -29t-47.5 -9zM93 389q-18 0 -33 -15q-15 -14 -21 -30q-7 -16 -7 -36q0 -30 14 -63q15 -35 40 -70q26 -35 58 -67t68 -59q35 -25 70 -40
q58 -24 99 -7q16 6 29 21q7 8 12 18q4 8 4 16q0 6 -2 11q-2 3 -6 6l-71 51q-6 4 -12 6q-8 3 -14 0q-5 -3 -12 -10l-16 -16q-14 -13 -31 -6l-6 2q-13 7 -30 22q-14 11 -35 32q-14 14 -32 34q-15 18 -22 31l-2 6q-2 6 -2 10q0 12 8 20l16 17q6 6 10 12q2 4 2 7t-2 7
q-1 4 -6 11l-50 70q-3 5 -8 7t-10 2zM271 128l-3 -15l5 15q-1 1 -2 0zM411 304h-107q-7 0 -11.5 4.5t-4.5 11.5t4.5 11.5t11.5 4.5h107q6 0 11 -4.5t5 -11.5t-5 -11.5t-11 -4.5zM357.5 251q-6.5 0 -11.5 4.5t-5 11.5v106q0 7 5 11.5t11.5 4.5t11 -4.5t4.5 -11.5v-106
q0 -7 -4.5 -11.5t-11 -4.5z" />
    <glyph glyph-name="call-calling" unicode="call&#x2d;calling" 
d="M346 -37q-36 0 -76 17q-38 16 -77 43q-38 28 -72 62q-33 33 -61 71q-28 39 -43 76q-17 40 -17 76q0 25 9 48t28 41q25 24 56 24q12 0 24 -5q13 -6 20 -17l50 -70q6 -9 10 -18q4 -10 4 -19q0 -12 -7 -24q-4 -8 -14 -18l-14 -15v-1q6 -10 18 -24q17 -20 30 -33
q20 -20 33 -30q15 -13 24 -18v-1l16 15q9 10 19 15q19 12 41 2q9 -3 18 -10l71 -50q12 -8 17 -20t5 -23q0 -16 -7 -30q-7 -15 -17 -26q-18 -20 -40.5 -29t-47.5 -9zM93 389q-18 0 -33 -15q-15 -13 -21 -30q-7 -16 -7 -36q0 -30 14 -63q15 -35 40 -70q26 -35 58 -67t68 -59
q35 -25 70 -40q58 -24 99 -7q16 6 29 21q7 8 12 18q4 8 4 16q0 6 -2 11q-2 3 -6 6l-71 51q-6 4 -12 6q-8 3 -14 0q-5 -3 -12 -10l-16 -16q-14 -13 -31 -6l-6 2q-13 7 -30 22q-16 13 -35 32q-16 16 -32 34q-15 18 -22 31l-2 6q-2 6 -2 11q0 11 8 19l16 17q6 6 10 12q2 4 2 7
t-2 7q-2 5 -6 11l-50 70q-3 5 -8 7t-10 2zM271 128l-3 -15l5 15q-1 1 -2 0zM368 240q-7 0 -11.5 4.5t-4.5 11.5q0 15 -20 37t-39 22q-6 0 -11 4.5t-5 11t5 11.5t11 5q32 0 61.5 -31.5t29.5 -59.5q0 -7 -4.5 -11.5t-11.5 -4.5zM442.5 240q-6.5 0 -11 4.5t-4.5 11.5
q0 55 -39 94t-95 39q-6 0 -11 5t-5 11.5t5 11t11 4.5q69 0 117.5 -48.5t48.5 -116.5q0 -7 -5 -11.5t-11.5 -4.5z" />
    <glyph glyph-name="call-incoming" unicode="call&#x2d;incoming" horiz-adv-x="458" 
d="M346 -37q-36 0 -76 17q-38 16 -77 43q-38 28 -72 62q-33 33 -61 71q-28 39 -43 76q-17 40 -17 76q0 25 9 48t28 41q25 24 56 24q12 0 24 -5q13 -6 20 -17l50 -70q6 -9 10 -18q4 -10 4 -19q0 -12 -7 -24q-4 -8 -14 -18l-14 -15v-1q6 -10 18 -24q17 -20 30 -33
q20 -20 33 -30q15 -13 24 -18v-1l16 15q9 10 19 15q19 12 41 2q9 -3 18 -10l71 -50q12 -8 17 -20t5 -23q0 -16 -7 -30q-7 -15 -17 -26q-18 -20 -40.5 -29t-47.5 -9zM93 389q-18 0 -33 -15q-15 -13 -21 -30q-7 -16 -7 -36q0 -30 14 -63q15 -35 40 -70q26 -35 58 -67t68 -59
q35 -25 70 -40q58 -24 99 -7q16 6 29 21q7 8 12 18q4 8 4 16q0 6 -2 11q-2 3 -6 6l-71 51q-6 4 -12 6q-8 3 -14 0q-5 -3 -12 -10l-16 -16q-14 -13 -31 -6l-6 2q-13 7 -30 22q-16 13 -35 32q-16 16 -32 34q-15 18 -22 31l-2 6q-2 6 -2 11q0 11 8 19l16 17q6 6 10 12q2 4 2 7
t-2 7q-2 5 -6 11l-50 70q-3 5 -8 7t-10 2zM271 128l-3 -15l5 15q-1 1 -2 0zM421 266h-102q-7 0 -11.5 4.5t-4.5 11.5v102q0 7 4.5 11.5t11 4.5t11.5 -4.5t5 -11.5v-86h86q7 0 11.5 -5t4.5 -11.5t-4.5 -11t-11.5 -4.5z" />
    <glyph glyph-name="call-minus" unicode="call&#x2d;minus" horiz-adv-x="458" 
d="M346 -37q-36 0 -76 17q-38 16 -77 43q-37 28 -72 62q-33 34 -61 72q-28 39 -43 76q-17 39 -17 75q0 25 9 48t28 41q25 24 56 24q12 0 24 -5q13 -6 20 -17l50 -70q6 -9 10 -18q4 -10 4 -19q0 -12 -7 -24q-4 -8 -14 -18l-14 -15v-1q6 -10 18 -24t30 -33q20 -20 33 -30
q15 -13 24 -18v-1l16 15q9 10 19 15q19 12 41 2q9 -3 18 -10l71 -50q12 -8 17 -20t5 -23q0 -16 -7 -30q-7 -15 -17 -26q-18 -20 -40.5 -29t-47.5 -9zM93 389q-18 0 -33 -15q-15 -14 -21 -30q-7 -16 -7 -36q0 -30 14 -63q15 -35 40 -70q26 -35 58 -67t68 -59q35 -25 70 -40
q58 -24 99 -7q16 6 29 21q7 8 12 18q4 8 4 16q0 6 -2 11q-2 3 -6 6l-71 51q-6 4 -12 6q-8 3 -14 0q-5 -3 -12 -10l-16 -16q-14 -13 -31 -6l-6 2q-13 7 -30 22q-14 11 -35 32q-14 14 -32 34q-15 18 -22 31l-2 6q-2 6 -2 10q0 12 8 20l16 17q6 6 10 12q2 4 2 7t-2 7
q-1 4 -6 11l-50 70q-3 5 -8 7t-10 2zM271 128l-3 -15l5 15q-1 1 -2 0zM411 304h-107q-7 0 -11.5 4.5t-4.5 11.5t4.5 11.5t11.5 4.5h107q6 0 11 -4.5t5 -11.5t-5 -11.5t-11 -4.5z" />
    <glyph glyph-name="call-outgoing" unicode="call&#x2d;outgoing" horiz-adv-x="458" 
d="M346 -37q-36 0 -76 17q-38 16 -77 43q-38 28 -72 62q-33 33 -61 71q-28 39 -43 76q-17 40 -17 76q0 25 9 48t28 41q25 24 56 24q12 0 24 -5q13 -6 20 -17l50 -70q6 -9 10 -18q4 -10 4 -19q0 -12 -7 -24q-4 -8 -14 -18l-14 -15v-1q6 -10 18 -24q17 -20 30 -33
q20 -20 33 -30q15 -13 24 -18v-1l16 15q9 10 19 15q19 12 41 2q9 -3 18 -10l71 -50q12 -8 17 -20t5 -23q0 -16 -7 -30q-7 -15 -17 -26q-18 -20 -40.5 -29t-47.5 -9zM93 389q-18 0 -33 -15q-15 -13 -21 -30q-7 -16 -7 -36q0 -30 14 -63q15 -35 40 -70q26 -35 58 -67t68 -59
q35 -25 70 -40q58 -24 99 -7q16 6 29 21q7 8 12 18q4 8 4 16q0 6 -2 11q-2 3 -6 6l-71 51q-6 4 -12 6q-8 3 -14 0q-5 -3 -12 -10l-16 -16q-14 -13 -31 -6l-6 2q-13 7 -30 22q-16 13 -35 32q-16 16 -32 34q-15 18 -22 31l-2 6q-2 6 -2 11q0 11 8 19l16 17q6 6 10 12q2 4 2 7
t-2 7q-2 5 -6 11l-50 70q-3 5 -8 7t-10 2zM271 128l-3 -15l5 15q-1 1 -2 0zM400 244q-7 0 -11.5 5t-4.5 11v87h-86q-7 0 -11.5 4.5t-4.5 11t4.5 11.5t11.5 5h102q7 0 11.5 -5t4.5 -11v-103q0 -6 -4.5 -11t-11.5 -5z" />
    <glyph glyph-name="call-received" unicode="call&#x2d;received" horiz-adv-x="458" 
d="M346 -37q-36 0 -76 17q-38 16 -77 43q-37 28 -72 62q-33 34 -61 72q-28 39 -43 76q-17 39 -17 75q0 25 9 48t28 41q25 24 56 24q12 0 24 -5q13 -6 20 -17l50 -70q6 -9 10 -18q4 -10 4 -19q0 -12 -7 -24q-4 -8 -14 -18l-14 -15v-1q6 -10 18 -24t30 -33q20 -20 33 -30
q15 -13 24 -18v-1l16 15q9 10 19 15q19 12 41 2q9 -3 18 -10l71 -50q12 -8 17 -20t5 -23q0 -16 -7 -30q-7 -15 -17 -26q-18 -20 -40.5 -29t-47.5 -9zM93 389q-18 0 -33 -15q-15 -14 -21 -30q-7 -16 -7 -36q0 -30 14 -63q15 -35 40 -70q26 -35 58 -67t68 -59q35 -25 70 -40
q58 -24 99 -7q16 6 29 21q7 8 12 18q4 8 4 16q0 6 -2 11q-2 3 -6 6l-71 51q-6 4 -12 6q-8 3 -14 0q-5 -3 -12 -10l-16 -16q-14 -13 -31 -6l-6 2q-13 7 -30 22q-14 11 -35 32q-14 14 -32 34q-15 18 -22 31l-2 6q-2 6 -2 10q0 12 8 20l16 17q6 6 10 12q2 4 2 7t-2 7
q-1 4 -6 11l-50 70q-3 5 -8 7t-10 2zM271 128l-3 -15l5 15q-1 1 -2 0zM336 262q-7 0 -11 5l-43 42q-5 5 -5 11.5t5 11.5t11.5 5t11.5 -5l31 -31l74 73q5 5 11.5 5t11 -4.5t4.5 -11.5t-4 -11l-86 -86q-5 -4 -11 -4z" />
    <glyph glyph-name="call-remove" unicode="call&#x2d;remove" horiz-adv-x="458" 
d="M346 -37q-36 0 -76 17q-38 16 -77 43q-37 28 -72 62q-33 34 -61 72q-28 39 -43 76q-17 39 -17 75q0 25 9 48t28 41q25 24 56 24q12 0 24 -5q13 -6 20 -17l50 -70q6 -9 10 -18q4 -10 4 -19q0 -12 -7 -24q-4 -8 -14 -18l-14 -15v-1q6 -10 18 -24t30 -33q20 -20 33 -30
q15 -13 24 -18v-1l16 15q9 10 19 15q19 12 41 2q9 -3 18 -10l71 -50q12 -8 17 -20t5 -23q0 -16 -7 -30q-7 -15 -17 -26q-18 -20 -40.5 -29t-47.5 -9zM93 389q-18 0 -33 -15q-15 -14 -21 -30q-7 -16 -7 -36q0 -30 14 -63q15 -35 40 -70q26 -35 58 -67t68 -59q35 -25 70 -40
q58 -24 99 -7q16 6 29 21q7 8 12 18q4 8 4 16q0 6 -2 11q-2 3 -6 6l-71 51q-6 4 -12 6q-8 3 -14 0q-5 -3 -12 -10l-16 -16q-14 -13 -31 -6l-6 2q-13 7 -30 22q-14 11 -35 32q-14 14 -32 34q-15 18 -22 31l-2 6q-2 6 -2 10q0 12 8 20l16 17q6 6 10 12q2 4 2 7t-2 7
q-1 4 -6 11l-50 70q-3 5 -8 7t-10 2zM271 128l-3 -15l5 15q-1 1 -2 0zM319.5 266q-6.5 0 -11 5t-4.5 11.5t4 11.5l76 75q4 5 11 5t11.5 -5t4.5 -11.5t-5 -11.5l-75 -75q-5 -5 -11.5 -5zM395 266q-7 0 -11 5l-76 75q-4 5 -4 11.5t4.5 11.5t11 5t11.5 -5l75 -75q5 -5 5 -11.5
t-5 -11.5t-11 -5z" />
    <glyph glyph-name="call-slash" unicode="call&#x2d;slash" 
d="M346 -37q-36 0 -76 17q-38 16 -77 43l-9 8q-13 9 -3 22t22 3l9 -7q35 -25 70 -40q58 -25 99 -8q17 7 29 22q8 7 12 18q4 8 4 16q0 5 -2 11q-1 3 -6 6l-71 50q-6 5 -12 7q-8 3 -14 -1q-5 -2 -12 -9l-16 -16q-13 -13 -31 -7l-1.5 1l-1.5 1l-1.5 0.5l-1.5 0.5q-6 3 -16 10
q-12 9 -3 22t22 4q7 -5 12 -8v-1l16 16q9 9 19 14q19 12 41 3q9 -4 18 -10l71 -51q12 -8 17 -20t5 -23q0 -15 -7 -30q-7 -14 -17 -26q-18 -20 -41 -29q-22 -9 -47 -9zM271 128l-3 -15l5 15q-1 1 -2 0zM133 80q-7 0 -12 5q-34 35 -61 72q-28 39 -43 76q-17 39 -17 75
q0 25 9 48t28 41q25 24 56 24q12 0 24 -5q13 -6 20 -17l50 -70q6 -9 10 -18q4 -10 4 -19q0 -12 -7 -24q-4 -8 -14 -18l-14 -15v-1q6 -10 18 -24t30 -33q11 -12 -0.5 -23t-22.5 1q-14 14 -32 34q-15 18 -21 30q-1 2 -1 3l-2 3q-2 7 -2 11q0 12 8 20l16 16q7 7 10 12q2 4 2 8
q0 2 -1 6q-2 5 -7 12l-50 70q-3 5 -8 7t-10 2q-18 0 -33 -15q-15 -14 -21 -30q-7 -16 -7 -36q0 -30 14 -63q15 -35 40 -70q26 -35 58 -67q5 -5 5 -11.5t-5 -11.5t-11 -5zM16 -37q-7 0 -11.5 4.5t-4.5 11t5 11.5l426 427q5 4 11.5 4t11.5 -4.5t5 -11t-5 -11.5l-427 -427
q-4 -4 -11 -4z" />
    <glyph glyph-name="call" unicode="call" horiz-adv-x="458" 
d="M346 -37q-36 0 -76 17q-38 16 -77 43q-38 28 -72 62q-33 33 -61 71q-28 39 -43 76q-17 40 -17 76q0 25 9 48t28 41q25 24 56 24q12 0 24 -5q13 -6 20 -17l50 -70q6 -9 10 -18q4 -10 4 -19q0 -12 -7 -24q-4 -8 -14 -18l-14 -15v-1q6 -10 18 -24q17 -20 30 -33
q20 -20 33 -30q15 -13 24 -18v-1l16 15q9 10 19 15q19 12 41 2q9 -3 18 -10l71 -50q12 -8 17 -20t5 -23q0 -16 -7 -30q-7 -15 -17 -26q-18 -20 -40.5 -29t-47.5 -9zM93 389q-18 0 -33 -15q-15 -13 -21 -30q-7 -16 -7 -36q0 -30 14 -63q15 -35 40 -70q26 -35 58 -67t68 -59
q35 -25 70 -40q58 -24 99 -7q16 6 29 21q7 8 12 18q4 8 4 16q0 6 -2 11q-2 3 -6 6l-71 51q-6 4 -12 6q-8 3 -14 0q-5 -3 -12 -10l-16 -16q-14 -13 -31 -6l-6 2q-13 7 -30 22q-16 13 -35 32q-16 16 -32 34q-15 18 -22 31l-2 6q-2 6 -2 11q0 11 8 19l16 17q6 6 10 12q2 4 2 7
t-2 7q-2 5 -6 11l-50 70q-3 5 -8 7t-10 2zM271 128l-3 -15l5 15q-1 1 -2 0z" />
    <glyph glyph-name="airplane-square" unicode="airplane&#x2d;square" 
d="M282 25q-8 0 -14 3q-3 2 -3 3l-36 30l-35 -30l-3 -3q-14 -6 -26 0q-14 5 -18 19l-7 20q-6 19 7 33l36 35v31l-64 -28q-18 -7 -31 2q-13 8 -13 27v19q0 13 7.5 24.5t19.5 16.5l81 35v41q0 16 9 31t23 21q15 7 29 0t23 -22t9 -30v-41l81 -35q12 -4 19.5 -16t7.5 -25v-19
q0 -19 -13.5 -27.5t-30.5 -1.5l-64 27v-31l35 -35q14 -14 7 -32l-6 -20q-5 -14 -18 -19q-6 -3 -12 -3zM229.5 92q11.5 0 19.5 -6l33 -29l6 20l-35 35q-9 9 -9 22v39q0 16 11.5 23.5t25.5 1.5l71 -30v18q0 9 -7 12l-85 36q-16 7 -16 25v44q0 6 -4.5 13.5t-9.5 10.5
q-6 -3 -10.5 -10.5t-4.5 -13.5v-44q0 -18 -16 -25l-84 -36q-8 -3 -8 -12v-18l71 30q14 6 25 -2q12 -7 12 -23v-39q0 -13 -9 -22l-36 -36l7 -18l32 27q9 7 20.5 7zM273 264v-1v1zM293 -37h-128q-87 0 -126 39t-39 126v128q0 87 39 126t126 39h128q87 0 126.5 -39t39.5 -126
v-128q0 -87 -39.5 -126t-126.5 -39zM165 389q-73 0 -103 -29.5t-30 -103.5v-128q0 -74 30 -103.5t103 -29.5h128q74 0 104 29.5t30 103.5v128q0 74 -30 103.5t-104 29.5h-128z" />
    <glyph glyph-name="airplane" unicode="airplane" horiz-adv-x="416" 
d="M135 -33q-7 0 -14 3q-16 6 -21 23l-9 28q-8 22 9 38l48 49q2 1 2 4v53l-98 -42q-20 -9 -36 1.5t-16 32.5v27q0 16 10 30.5t24 20.5l115 50v61q0 19 12 38.5t30 28.5q17 9 34 0q18 -9 30 -28.5t12 -38.5v-61l116 -50q14 -6 23.5 -20.5t9.5 -30.5v-27q0 -22 -16 -32.5
t-36 -2.5l-97 42v-52q0 -2 1 -4l49 -49q16 -16 9 -38l-10 -28q-5 -17 -21 -23t-31 1q-2 1 -3 2l-50 42q-3 3 -6 0l-50 -42q-1 -1 -3 -2q-7 -4 -17 -4zM156 200q8 0 14 -4q12 -8 12 -23v-61q0 -16 -11 -27l-49 -48q-2 -3 -1 -6l9 -28q1 -2 3 -4h3l48 40q10 9 24 9t24 -9
l48 -40q1 0 3 1t3 3l9 28q1 3 -1 6l-48 48q-11 11 -11 27v61q0 15 11 22.5t26 1.5l105 -45q4 -2 5.5 -1t1.5 6v27q0 6 -4.5 13t-9.5 9l-119 51q-16 7 -16 25v64q0 10 -7 22t-17 16q-3 2 -6 0q-9 -4 -16 -16t-7 -22v-64q0 -18 -16 -25l-119 -51q-6 -3 -10.5 -9.5t-4.5 -12.5
v-27q0 -5 1.5 -6t6.5 1l104 45q6 3 12 3z" />
    <glyph glyph-name="bus" unicode="bus" horiz-adv-x="373" 
d="M291 -37h-209q-34 0 -58 24t-24 58v294q0 34 24 58t58 24h209q34 0 58 -24t24 -58v-294q0 -34 -24 -58t-58 -24zM82 389q-21 0 -35.5 -14.5t-14.5 -35.5v-294q0 -21 14.5 -35.5t35.5 -14.5h209q21 0 35.5 14.5t14.5 35.5v294q0 21 -14.5 35.5t-35.5 14.5h-209zM325 155
h-277q-20 0 -34 14t-14 34v42q0 20 14 34t34 14h277q20 0 34 -14t14 -34v-42q0 -20 -14 -34t-34 -14zM48 261q-7 0 -11.5 -4.5t-4.5 -11.5v-42q0 -7 4.5 -11.5t11.5 -4.5h277q7 0 11.5 4.5t4.5 11.5v42q0 7 -4.5 11.5t-11.5 4.5h-277zM101.5 48q-11.5 0 -18.5 8q-2 1 -4 4
l-2 4t-2 6v4.5v5.5q1 3 2 5q1 3 2 4q2 3 4 4q7 8 18.5 8t18.5 -8l4 -4q1 -1 2 -4q1 -2 2 -5v-5.5v-4.5q-1 -4 -2 -6l-2 -4l-4 -4q-7 -8 -18.5 -8zM272 48q-11 0 -19 8q-8 7 -8 18.5t8 18.5q8 8 19 8t19 -8q8 -7 8 -18.5t-8 -18.5q-8 -8 -19 -8zM240 325h-107q-6 0 -11 5
t-5 11.5t5 11t11 4.5h107q7 0 11.5 -4.5t4.5 -11t-4.5 -11.5t-11.5 -5z" />
    <glyph glyph-name="car" unicode="car" 
d="M400 197h-341q-8 0 -13 6t-3 14l24 115q7 34 25.5 53t61.5 19h150q44 0 62.5 -19t25.5 -53l24 -115q1 -8 -3 -14q-5 -6 -13 -6zM78 229h302l-20 96q-5 25 -15.5 36t-40.5 11h-150q-29 0 -39.5 -11t-15.5 -36zM399 -37h-40q-16 0 -26 6t-13 11.5t-6 15.5l-5 12
q-4 13 -7.5 16t-17.5 3h-109q-14 0 -18 -3.5t-8 -15.5l-4 -12q-3 -10 -6 -15.5t-13 -11.5t-26 -6h-40q-27 0 -45 19q-17 19 -15 45l12 130q2 15 5 26t11 22.5t24.5 17.5t40.5 6h272q46 0 62 -19.5t20 -52.5l11 -130q3 -26 -14 -45q-18 -19 -45 -19zM175 59h109
q26 0 37.5 -10t18.5 -30l4 -13q3 -9 5 -10.5t10 -1.5h40q13 0 21 9t7 20l-12 130q-2 25 -10.5 34.5t-38.5 9.5h-273q-30 0 -38.5 -9.5t-10.5 -34.5l-12 -130q-1 -11 7 -20t21 -9h40q8 0 10 1.5t5 9.5l4 13q4 12 7.5 19t16 14.5t32.5 7.5zM59 261h-22q-6 0 -11 5t-5 11.5
t5 11t11 4.5h22q6 0 11 -4.5t5 -11t-5 -11.5t-11 -5zM421 261h-21q-7 0 -11.5 5t-4.5 11.5t4.5 11t11.5 4.5h21q7 0 11.5 -4.5t4.5 -11t-4.5 -11.5t-11.5 -5zM229.5 325q-6.5 0 -11.5 5t-5 11v43q0 7 5 11.5t11.5 4.5t11 -4.5t4.5 -11.5v-43q0 -6 -4.5 -11t-11 -5zM261 325
h-64q-6 0 -11 5t-5 11.5t5 11t11 4.5h64q7 0 11.5 -4.5t4.5 -11t-4.5 -11.5t-11.5 -5zM165 112h-64q-6 0 -11 4.5t-5 11.5t5 11.5t11 4.5h64q7 0 11.5 -4.5t4.5 -11.5t-4.5 -11.5t-11.5 -4.5zM357 112h-64q-6 0 -11 4.5t-5 11.5t5 11.5t11 4.5h64q7 0 11.5 -4.5t4.5 -11.5
t-4.5 -11.5t-11.5 -4.5z" />
    <glyph glyph-name="driving" unicode="driving" 
d="M353 263h-247q-8 0 -13 6t-3 13l18 84q5 25 19.5 40t47.5 15h109q33 0 47.5 -15t19.5 -40l18 -84q1 -7 -4 -13q-4 -6 -12 -6zM125 295h208l-13 64q-4 17 -10.5 23.5t-25.5 6.5h-109q-19 0 -26 -6.5t-10 -23.5zM352 93h-29q-27 0 -37 27l-3 9q-2 8 -4 9t-10 1h-79
q-8 0 -10 -1t-5 -9l-3 -9q-9 -27 -37 -27h-29q-21 0 -35 15q-14 16 -12 36l8 94q3 27 16 42t48 15h197q35 0 48 -15t15 -42l9 -94q2 -21 -12 -36t-36 -15zM319 125h4h29q8 0 12 5q4 4 4 11l-9 94q-1 12 -2.5 16.5t-8 8t-20.5 3.5h-197q-20 0 -25 -5.5t-6 -22.5l-9 -94
q-1 -7 4 -11q5 -5 12 -5h29h5l1 5l4 9q3 9 5.5 14.5t13 11.5t25.5 6h79q21 0 30.5 -8t14.5 -23l3 -10q1 -4 2 -5zM106 309h-16q-6 0 -11 5t-5 11.5t5 11t11 4.5h16q6 0 11 -4.5t5 -11t-5 -11.5t-11 -5zM369 309h-16q-6 0 -11 5t-5 11.5t5 11t11 4.5h16q6 0 11 -4.5t5 -11
t-5 -11.5t-11 -5zM183 201h-47q-6 0 -11 4.5t-5 11.5t5 11.5t11 4.5h47q6 0 11 -4.5t5 -11.5t-4.5 -11.5t-11.5 -4.5zM322 201h-46q-7 0 -11.5 4.5t-4.5 11.5t4.5 11.5t11.5 4.5h46q7 0 11.5 -4.5t4.5 -11.5t-4.5 -11.5t-11.5 -4.5zM229.5 48q-6.5 0 -11.5 4.5t-5 11.5v21
q0 7 5 11.5t11.5 4.5t11 -4.5t4.5 -11.5v-21q0 -7 -4.5 -11.5t-11 -4.5zM229.5 -37q-6.5 0 -11.5 4.5t-5 11.5v21q0 7 5 11.5t11.5 4.5t11 -4.5t4.5 -11.5v-21q0 -7 -4.5 -11.5t-11 -4.5zM16 -37h-4q-6 2 -9.5 7.5t-2.5 12.5l22 85q1 6 7 9.5t12.5 2t10 -7t1.5 -12.5
l-21 -85q-4 -12 -16 -12zM443 -37q-13 0 -16 12l-21 85q-2 7 1.5 12.5t10 7t12 -2t7.5 -9.5l21 -85q2 -7 -1.5 -12.5t-9.5 -7.5h-4z" />
    <glyph glyph-name="gas-station" unicode="gas&#x2d;station" horiz-adv-x="458" 
d="M347 -37h-299q-7 0 -11.5 4.5t-4.5 11.5v362q0 36 22 58t58 22h171q36 0 58 -22t22 -58v-362q0 -7 -5 -11.5t-11 -4.5zM64 -5h267v346q0 23 -13 35.5t-35 12.5h-171q-23 0 -35.5 -12.5t-12.5 -35.5v-346zM379 -37h-363q-7 0 -11.5 4.5t-4.5 11t4.5 11.5t11.5 5h363
q6 0 11 -5t5 -11.5t-5 -11t-11 -4.5zM242 219h-90q-26 0 -41 15t-15 41v26q0 26 15 41.5t41 15.5h90q26 0 41.5 -15.5t15.5 -41.5v-26q0 -26 -15.5 -41t-41.5 -15zM152 325q-24 0 -24 -24v-26q0 -25 24 -25h91q24 0 24 25v26q0 24 -24 24h-91zM176 155h-64q-7 0 -11.5 4.5
t-4.5 11t4.5 11.5t11.5 5h64q7 0 11.5 -5t4.5 -11.5t-4.5 -11t-11.5 -4.5zM347 90q-7 0 -11.5 5t-4.5 11.5t4.5 11t11.5 4.5l80 1v102l-34 17q-14 7 -8 21q8 14 22 8l43 -22q8 -4 8 -14v-128q0 -7 -4.5 -11.5t-11.5 -4.5z" />
    <glyph glyph-name="ship" unicode="ship" horiz-adv-x="445" 
d="M273 -37h-101q-61 0 -105 35t-57 94l-9 40q-4 20 6 39.5t30 27.5l148 59q18 8 37.5 8t37.5 -8l148 -59q19 -8 29.5 -27.5t5.5 -39.5l-8 -40q-14 -59 -57.5 -94t-104.5 -35zM222 234q-13 0 -26 -5l-148 -60q-8 -3 -13 -12t-3 -18l9 -40q11 -48 46 -76t84 -28h102
q49 0 84 28t46 76l9 40q2 9 -3 18t-13 12l-148 60q-13 5 -26 5zM222.5 -37q-6.5 0 -11.5 4.5t-5 11.5v256q0 6 5 11t11.5 5t11 -5t4.5 -11v-256q0 -7 -4.5 -11.5t-11 -4.5zM372 180q-3 0 -6 1l-118 47q-26 11 -52 0l-117 -47q-8 -3 -15 2t-7 13v81q0 33 23.5 56.5t56.5 23.5
h170q34 0 57 -23.5t23 -56.5v-81q0 -8 -7 -13q-3 -3 -8 -3zM222 266q20 0 38 -8l96 -38v57q0 20 -14.5 34t-33.5 14h-171q-20 0 -34 -14t-14 -34v-57l96 38q18 8 37 8zM276 325h-107q-7 0 -11.5 5t-4.5 11v43q0 15 11 26t26 11h64q16 0 27 -11t11 -26v-43q0 -6 -5 -11
t-11 -5zM185 357h75v27q0 5 -6 5h-64q-5 0 -5 -5v-27z" />
    <glyph glyph-name="smart-car" unicode="smart&#x2d;car" horiz-adv-x="458" 
d="M304 139h-256q-8 0 -13 6q-4 6 -3 13l18 86q6 27 20.5 42t49.5 15h112q34 0 49 -15t20 -42l19 -86q1 -7 -4 -13t-12 -6zM67 171h217l-14 67q-4 18 -11 24.5t-27 6.5h-113q-19 0 -26.5 -6.5t-11.5 -24.5zM303 -37h-30q-29 0 -38 27l-3 10q-3 8 -5 9t-10 1h-82q-9 0 -11 -1
t-4 -9l-3 -10q-9 -28 -38 -28h-30q-22 0 -37 16q-14 16 -12 37l9 97q3 28 16 43.5t49 15.5h204q35 0 48.5 -15.5t16.5 -43.5l9 -97q2 -21 -13 -37q-14 -15 -36 -15zM268 -5h5h30q8 0 13 5q4 6 4 12l-9 98q-1 9 -2 13t-4 8.5t-9.5 6t-17.5 1.5h-204q-21 0 -26 -6t-7 -23
l-9 -98q-1 -7 4 -12t13 -5h30h6q0 1 1 5l4 10q3 9 6 14.5t13 11.5t26 6h82q16 0 26 -6t13 -11t7 -15l3 -10q0 -4 2 -5zM48 187h-16q-7 0 -11.5 4.5t-4.5 11t4.5 11.5t11.5 5h16q6 0 11 -5t5 -11.5t-5 -11t-11 -4.5zM320 187h-16q-7 0 -11.5 4.5t-4.5 11t4.5 11.5t11.5 5h16
q6 0 11 -5t5 -11.5t-5 -11t-11 -4.5zM128 75h-48q-7 0 -11.5 4.5t-4.5 11t4.5 11.5t11.5 5h48q6 0 11 -5t5 -11.5t-5 -11t-11 -4.5zM272 75h-48q-7 0 -11.5 4.5t-4.5 11t4.5 11.5t11.5 5h48q6 0 11 -5t5 -11.5t-5 -11t-11 -4.5zM372 246q-3 0 -6 1q-15 6 -8 21q6 15 -6 34
q-13 19 -29 18h-1q-6 0 -10.5 4.5t-5 11t4.5 11.5t11 5q34 1 56 -32t9 -65q-4 -9 -15 -9zM439 224q-2 0 -5 1q-6 2 -9.5 7.5t-1.5 12.5q13 46 -18 92.5t-79 51.5q-6 1 -10 6t-3.5 12t6 11t11.5 3q29 -4 56 -21.5t46 -44.5q39 -59 22 -119q-3 -12 -15 -12z" />
    <glyph glyph-name="archive-book" unicode="archive&#x2d;book" horiz-adv-x="416" 
d="M293 -37h-170q-59 0 -91 32t-32 90v214q0 58 32 90t91 32h170q59 0 91 -32t32 -90v-214q0 -58 -32 -90t-91 -32zM123 389q-91 0 -91 -90v-214q0 -90 91 -90h170q91 0 91 90v214q0 90 -91 90h-170zM144 211q-6 0 -11 2q-16 7 -16 24v168q0 7 5 11.5t11 4.5h150
q6 0 11 -4.5t5 -11.5v-167q0 -18 -16 -25t-29 5l-46 42l-46 -42q-8 -7 -18 -7zM208 294q10 0 18 -7l41 -37v139h-118v-139l41 37q8 7 18 7zM325 133h-90q-7 0 -11.5 5t-4.5 11.5t4.5 11t11.5 4.5h90q7 0 11.5 -4.5t4.5 -11t-4.5 -11.5t-11.5 -5zM325 48h-181q-7 0 -11.5 4.5
t-4.5 11.5t4.5 11.5t11.5 4.5h181q7 0 11.5 -4.5t4.5 -11.5t-4.5 -11.5t-11.5 -4.5z" />
    <glyph glyph-name="bill" unicode="bill" 
d="M229.5 -27q-27.5 0 -49.5 17l-111 83q-33 25 -33 66v271h387v-271q0 -41 -33 -66l-111 -83q-22 -17 -49.5 -17zM68 379v-240q0 -25 20 -40l111 -83q13 -11 30 -11t31 11l111 83q20 15 20 40v240h-323zM443 379h-427q-7 0 -11.5 4.5t-4.5 11t4.5 11.5t11.5 5h427
q6 0 11 -5t5 -11.5t-5 -11t-11 -4.5zM315 261h-171q-7 0 -11.5 5t-4.5 11.5t4.5 11t11.5 4.5h171q6 0 11 -4.5t5 -11t-5 -11.5t-11 -5zM315 155h-171q-7 0 -11.5 4.5t-4.5 11t4.5 11.5t11.5 5h171q6 0 11 -5t5 -11.5t-5 -11t-11 -4.5z" />
    <glyph glyph-name="clipboard-close" unicode="clipboard&#x2d;close" horiz-adv-x="416" 
d="M251 87q-7 0 -12 5l-84 84q-5 5 -5 11.5t5 11.5t11.5 5t11.5 -5l84 -84q5 -5 5 -11.5t-5 -11.5t-11 -5zM165.5 86q-6.5 0 -11.5 5t-5 11.5t5 11.5l84 84q5 5 11.5 5t11.5 -4.5t5 -11.5t-5 -11l-84 -85q-5 -5 -11.5 -5zM251 304h-86q-11 0 -18 1t-18 6t-16.5 18t-5.5 33.5
t5.5 33.5t16.5 18t18 6t18 1h86q11 0 18 -1t18 -6t16.5 -18t5.5 -33q0 -12 -1 -19t-6 -18t-18 -16.5t-33 -5.5zM165 389q-17 0 -21.5 -3.5t-4.5 -22.5t4.5 -23t21.5 -4h86q19 0 22.5 4.5t3.5 22.5q0 19 -4.5 22.5t-21.5 3.5h-86zM272 -37h-128q-84 0 -114 35t-30 109v128
q0 73 28.5 106.5t93.5 36.5q7 0 11.5 -4t5 -11t-4 -11.5t-10.5 -5.5q-50 -3 -71 -25t-21 -86v-128q0 -63 21.5 -87.5t90.5 -24.5h128q69 0 90.5 24.5t21.5 87.5v128q0 64 -21 86t-71 25q-6 1 -10.5 6t-4 11.5t5.5 11t11 3.5q65 -3 93.5 -36.5t28.5 -106.5v-128
q0 -74 -30 -109t-114 -35z" />
    <glyph glyph-name="clipboard-export" unicode="clipboard&#x2d;export" horiz-adv-x="416" 
d="M251 304h-86q-11 0 -18 1t-18 6t-16.5 18t-5.5 33.5t5.5 33.5t16.5 18t18 6t18 1h86q11 0 18 -1t18 -6t16.5 -18t5.5 -33q0 -12 -1 -19t-6 -18t-18 -16.5t-33 -5.5zM165 389q-17 0 -21.5 -3.5t-4.5 -22.5t4.5 -23t21.5 -4h86q19 0 22.5 4.5t3.5 22.5q0 19 -4.5 22.5
t-21.5 3.5h-86zM251 -37h-107q-84 0 -114 35t-30 109v128q0 73 28.5 106.5t93.5 36.5q6 0 11 -4.5t5.5 -11t-4 -11t-10.5 -5.5q-50 -3 -71 -25t-21 -86v-128q0 -63 21.5 -87.5t90.5 -24.5h107q6 0 11 -5t5 -11.5t-5 -11t-11 -4.5zM400 112q-7 0 -11.5 4.5t-4.5 11.5v107
q0 64 -21 86t-71 25q-6 1 -10.5 6t-4 11.5t5.5 11t11 3.5q65 -3 93.5 -36.5t28.5 -106.5v-107q0 -6 -4.5 -11t-11.5 -5zM272 27q-7 0 -11.5 4.5t-4.5 11.5v64q0 6 4.5 11t11.5 5h64q7 0 11.5 -5t4.5 -11.5t-4.5 -11t-11.5 -4.5h-48v-48q0 -7 -4.5 -11.5t-11.5 -4.5zM400 -37
q-7 0 -11 4l-127 128q-5 4 -5 10.5t4.5 11.5t11.5 5t11 -5l127 -127q5 -5 5 -11.5t-4.5 -11t-11.5 -4.5z" />
    <glyph glyph-name="clipboard-import" unicode="clipboard&#x2d;import" horiz-adv-x="416" 
d="M251 304h-86q-11 0 -18 1t-18 6t-16.5 18t-5.5 33.5t5.5 33.5t16.5 18t18 6t18 1h86q11 0 18 -1t18 -6t16.5 -18t5.5 -33q0 -12 -1 -19t-6 -18t-18 -16.5t-33 -5.5zM165 389q-17 0 -21.5 -3.5t-4.5 -22.5t4.5 -23t21.5 -4h86q19 0 22.5 4.5t3.5 22.5q0 19 -4.5 22.5
t-21.5 3.5h-86zM251 -37h-107q-84 0 -114 35t-30 109v128q0 73 28.5 106.5t93.5 36.5q6 0 11 -4t5.5 -11t-4 -11.5t-10.5 -5.5q-50 -3 -71 -25t-21 -86v-128q0 -63 21.5 -87.5t90.5 -24.5h107q6 0 11 -5t5 -11.5t-5 -11t-11 -4.5zM400 112q-7 0 -11.5 4.5t-4.5 11.5v107
q0 64 -21 86t-71 25q-6 1 -10.5 6t-4 11.5t5.5 11t11 3.5q65 -3 93.5 -36.5t28.5 -106.5v-107q0 -6 -4.5 -11t-11.5 -5zM400 -37h-64q-7 0 -11.5 4.5t-4.5 11t4.5 11.5t11.5 5h48v48q0 6 4.5 11t11.5 5t11.5 -5t4.5 -11v-64q0 -7 -4.5 -11.5t-11.5 -4.5zM399 -36q-6 0 -11 4
l-127 127q-5 5 -5 11.5t4.5 11.5t11.5 5t11 -5l127 -127q5 -5 5 -11.5t-5 -11.5q-5 -4 -11 -4z" />
    <glyph glyph-name="clipboard-text" unicode="clipboard&#x2d;text" horiz-adv-x="416" 
d="M272 172h-149q-7 0 -11.5 4.5t-4.5 11t4.5 11.5t11.5 5h149q7 0 11.5 -5t4.5 -11.5t-4.5 -11t-11.5 -4.5zM216 86h-93q-7 0 -11.5 5t-4.5 11.5t4.5 11t11.5 4.5h93q7 0 11.5 -4.5t4.5 -11t-4.5 -11.5t-11.5 -5zM251 304h-86q-11 0 -18 1t-18 6t-16.5 18t-5.5 33.5
t5.5 33.5t16.5 18t18 6t18 1h86q11 0 18 -1t18 -6t16.5 -18t5.5 -33q0 -12 -1 -19t-6 -18t-18 -16.5t-33 -5.5zM165 389q-17 0 -21.5 -3.5t-4.5 -22.5t4.5 -23t21.5 -4h86q19 0 22.5 4.5t3.5 22.5q0 19 -4.5 22.5t-21.5 3.5h-86zM272 -37h-128q-84 0 -114 35t-30 109v128
q0 73 28.5 106.5t93.5 36.5q6 0 11 -4t5.5 -11t-4 -11.5t-10.5 -5.5q-50 -3 -71 -25t-21 -86v-128q0 -63 21.5 -87.5t90.5 -24.5h128q69 0 90.5 24.5t21.5 87.5v128q0 64 -21 86t-71 25q-6 1 -10.5 6t-4 11.5t5.5 11t11 3.5q65 -3 93.5 -36.5t28.5 -106.5v-128
q0 -74 -30 -109t-114 -35z" />
    <glyph glyph-name="clipboard-tick" unicode="clipboard&#x2d;tick" horiz-adv-x="416" 
d="M183 86q-7 0 -12 5l-32 32q-4 5 -4 11.5t4.5 11t11 4.5t11.5 -4l21 -21l74 74q4 5 11 5t11.5 -5t4.5 -11.5t-5 -11.5l-85 -85q-4 -5 -11 -5zM251 304h-86q-11 0 -18 1t-18 6t-16.5 18t-5.5 33.5t5.5 33.5t16.5 18t18 6t18 1h86q11 0 18 -1t18 -6t16.5 -18t5.5 -33
q0 -12 -1 -19t-6 -18t-18 -16.5t-33 -5.5zM165 389q-17 0 -21.5 -3.5t-4.5 -22.5t4.5 -23t21.5 -4h86q19 0 22.5 4.5t3.5 22.5q0 19 -4.5 22.5t-21.5 3.5h-86zM272 -37h-128q-84 0 -114 35t-30 109v128q0 73 28.5 106.5t93.5 36.5q6 0 11 -4t5.5 -11t-4 -11.5t-10.5 -5.5
q-50 -3 -71 -25t-21 -86v-128q0 -63 21.5 -87.5t90.5 -24.5h128q69 0 90.5 24.5t21.5 87.5v128q0 64 -21 86t-71 25q-6 1 -10.5 6t-4 11.5t5 11t11.5 3.5q65 -3 93.5 -36.5t28.5 -106.5v-128q0 -74 -30 -109t-114 -35z" />
    <glyph glyph-name="copyright" unicode="copyright" 
d="M229 -37q-95 0 -162 67t-67 162t67 162t162 67t162.5 -67t67.5 -162t-67.5 -162t-162.5 -67zM229.5 389q-81.5 0 -139.5 -57.5t-58 -139.5t58 -139.5t139.5 -57.5t139.5 57.5t58 139.5t-58 139.5t-139.5 57.5zM234 91q-41 0 -71 29.5t-30 71.5t30 71.5t71 29.5
q39 0 67 -25q5 -4 5.5 -11t-4 -12t-11 -5t-11.5 4q-19 17 -46 17q-28 0 -48.5 -20.5t-20.5 -49t20.5 -49t48.5 -20.5q27 0 46 18q5 4 11.5 3.5t11 -5.5t4 -11.5t-5.5 -10.5q-29 -25 -67 -25z" />
    <glyph glyph-name="creative-commons" unicode="creative&#x2d;commons" 
d="M229 -37q-95 0 -162 67t-67 162t67 162t162 67t162.5 -67t67.5 -162t-67.5 -162t-162.5 -67zM229.5 389q-81.5 0 -139.5 -57.5t-58 -139.5t58 -139.5t139.5 -57.5t139.5 57.5t58 139.5t-58 139.5t-139.5 57.5zM165 115q-32 0 -54.5 22.5t-22.5 54.5t22.5 54.5t54.5 22.5
q29 0 51 -19q5 -4 5.5 -11t-4 -12t-11 -5t-11.5 4q-13 11 -30 11q-19 0 -32 -13t-13 -32t13 -32t32 -13q17 0 30 11q12 10 23 -1q4 -5 3.5 -12t-5.5 -11q-22 -19 -51 -19zM314 115q-32 0 -54.5 22.5t-22.5 54.5t22.5 54.5t54.5 22.5q29 0 51 -19q5 -4 5.5 -11t-3.5 -12
t-11 -5t-12 4q-13 11 -30 11q-18 0 -31.5 -13t-13.5 -32t13.5 -32t31.5 -13q17 0 30 11q12 10 23 -1q4 -5 3.5 -12t-5.5 -11q-22 -19 -51 -19z" />
    <glyph glyph-name="document-cloud" unicode="document&#x2d;cloud" 
d="M165 -37q-87 0 -126 39t-39 126v128q0 87 39 126t126 39h107q7 0 11.5 -4.5t4.5 -11t-4.5 -11.5t-11.5 -5h-107q-73 0 -103 -29.5t-30 -103.5v-128q0 -74 30 -103.5t103 -29.5q7 0 11.5 -5t4.5 -11.5t-4.5 -11t-11.5 -4.5zM442.5 155q-6.5 0 -11 4.5t-4.5 11.5v64
q0 6 4.5 11t11 5t11.5 -5t5 -11v-64q0 -7 -5 -11.5t-11.5 -4.5zM443 219h-86q-54 0 -77.5 23t-23.5 78v85q0 11 10 15q9 4 17 -3l171 -171q8 -8 3.5 -17.5t-14.5 -9.5zM288 367v-47q0 -41 14 -55t55 -14h47zM386 -37h-1h-118q-25 1 -39.5 17.5t-14.5 38.5q0 16 9 30.5
t26 20.5q-8 42 20 70q16 18 40 24t47 -1q41 -13 53 -58q36 -11 47 -49q14 -45 -20 -75q-21 -18 -49 -18zM268 42q-23 -2 -23 -23q0 -23 23 -24h117q18 1 29 10q19 17 11 42.5t-32 28.5q-12 1 -14 13q-6 35 -34 43q-14 5 -29 1t-25 -15q-20 -21 -8 -54q2 -7 -1 -13t-9 -8
q-3 -1 -5 -1z" />
    <glyph glyph-name="document-copy" unicode="document&#x2d;copy" 
d="M217 -37h-82q-70 0 -102.5 32.5t-32.5 102.5v81q0 70 32.5 103t102.5 33h64q7 0 11.5 -5t4.5 -11.5t-4.5 -11t-11.5 -4.5h-64q-57 0 -80 -23.5t-23 -80.5v-81q0 -57 23 -80t80 -23h82q57 0 80 23t23 80v64q0 7 4.5 11.5t11.5 4.5t11.5 -4.5t4.5 -11.5v-64
q0 -70 -32.5 -102.5t-102.5 -32.5zM336 146h-68q-45 0 -65 19.5t-20 64.5v69q0 11 10 14q10 5 18 -3l136 -137q8 -7 4 -17t-15 -10zM215 260v-30q0 -31 10.5 -41.5t42.5 -10.5h29zM306 389h-85q-7 0 -11.5 5t-4.5 11.5t4.5 11t11.5 4.5h85q7 0 11.5 -4.5t4.5 -11t-4.5 -11.5
t-11.5 -5zM122.5 325q-6.5 0 -11 5t-4.5 11q0 33 23.5 56.5t56.5 23.5h56q6 0 11 -4.5t5 -11t-5 -11.5t-11 -5h-56q-20 0 -34 -14t-14 -34q0 -6 -5 -11t-11.5 -5zM383 69q-7 0 -11.5 5t-4.5 11.5t4.5 11t11.5 4.5q18 0 31 13t13 31v132q0 7 4.5 11.5t11 4.5t11.5 -4.5
t5 -11.5v-132q0 -31 -22.5 -53.5t-53.5 -22.5zM443 261h-64q-43 0 -61.5 19t-18.5 61v64q0 11 9 15q10 4 18 -3l128 -128q8 -8 3 -18q-3 -10 -14 -10zM331 367v-26q0 -29 9 -38.5t39 -9.5h25z" />
    </font>
</defs>
</svg>
