<svg width="48" height="48" viewBox="0 0 48 48" fill="none" xmlns="http://www.w3.org/2000/svg">
<path d="M7.89975 4.99988C10.7376 8.01919 12.1565 11.9407 12.1565 16.7644C12.1565 23.9999 5.99999 29.5381 4.96949 33.4999C4.28249 36.1411 3.95932 39.3077 3.99999 42.9999" stroke="black" stroke-width="4" stroke-linecap="round"/>
<path d="M39.257 4.99988C36.4191 8.01919 35.0002 11.9407 35.0002 16.7644C35.0002 23.9999 41.1567 29.5381 42.1872 33.4999C42.8742 36.1411 43.1974 39.3077 43.1567 42.9999" stroke="black" stroke-width="4" stroke-linecap="round"/>
<path d="M6.24463 30.8368C12.7698 34.9666 18.6954 37.0316 24.0216 37.0316C29.3477 37.0316 34.9804 34.9666 40.9197 30.8368" stroke="black" stroke-width="4" stroke-linecap="round"/>
<path d="M24 30.9999C25.3807 30.9999 26.5 29.8806 26.5 28.4999C26.5 27.1192 25.3807 25.9999 24 25.9999C22.6193 25.9999 21.5 27.1192 21.5 28.4999C21.5 29.8806 22.6193 30.9999 24 30.9999Z" fill="black"/>
</svg>
