<svg width="48" height="48" viewBox="0 0 48 48" fill="none" xmlns="http://www.w3.org/2000/svg">
<path d="M28.4165 21.8466C28.2998 24.4327 28.9576 26.2456 30.3899 27.2851C32.5385 28.8445 37.8372 29.0273 42.0342 21.8466C46.2313 14.6658 42.1598 10.7653 40.6133 10.1148C39.5823 9.68111 38.546 9.51854 37.5044 9.62707" stroke="black" stroke-width="4.42105" stroke-linecap="round"/>
<path d="M31.0138 28.0061C29.7932 29.4196 29.6591 31.1176 30.6115 33.1C32.0401 36.0735 35.6988 35.5388 37.5277 38.0157C38.747 39.6671 39.2088 41.3285 38.9132 43" stroke="black" stroke-width="4.42105" stroke-linecap="round"/>
<path fill-rule="evenodd" clip-rule="evenodd" d="M8.50483 23.6397C10.7646 26.661 16.1667 27.0552 22.5005 24.6307C25.065 23.649 27.7822 22.2053 30.5054 20.2867C32.5582 18.8405 34.0456 17.3644 35.0924 15.92C38.8638 10.7161 36.9164 5.92228 35.0924 4.40641C33.1161 2.76405 29.3224 2.08894 22.5005 5.03351C21.2782 5.56109 19.9587 6.20487 18.535 6.98011C15.7379 8.50319 13.4341 10.2233 11.6627 12C7.50019 16.1749 6.27782 20.6623 8.50483 23.6397Z" stroke="black" stroke-width="4.42105"/>
<path d="M16.2456 8.83917C16.6847 11.789 17.917 14.3681 19.9424 16.5765C21.9678 18.7849 24.3888 20.1951 28.0005 21.5" stroke="black" stroke-width="4.42105" stroke-linecap="round"/>
<path d="M9.98149 24.9998C4.15571 30.6503 2.58552 34.9286 5.27092 37.8347C9.29902 42.1937 13.0878 36.6267 18.1666 36.6267C21.5524 36.6267 24.1636 38.7511 26 42.9998" stroke="black" stroke-width="4.42105" stroke-linecap="round"/>
<path d="M35.0919 15.92C34.0451 17.3644 32.5577 18.8404 30.5049 20.2867C27.7817 22.2053 25.0645 23.649 22.5 24.6307" stroke="black" stroke-width="4.42105" stroke-linecap="round"/>
<path d="M22.4999 5.03345C21.2776 5.56103 19.9581 6.20481 18.5344 6.98004C15.7374 8.50312 13.4335 10.2232 11.6621 11.9999" stroke="black" stroke-width="4.42105" stroke-linecap="round"/>
</svg>
