<svg width="48" height="48" viewBox="0 0 48 48" fill="none" xmlns="http://www.w3.org/2000/svg">
<path d="M39.8277 21.786L21.9682 39.6455C18.5539 43.0598 12.9368 42.9784 9.42207 39.4637C5.90735 35.949 5.82594 30.3319 9.24024 26.9176L27.0997 9.0581" stroke="black" stroke-width="4" stroke-linecap="round"/>
<path d="M8.73389 27.424L34.878 26.7357" stroke="black" stroke-width="4" stroke-linecap="round"/>
<path d="M29.3925 20.907C30.1736 20.126 30.1736 18.8596 29.3925 18.0786C28.6115 17.2975 27.3452 17.2975 26.5641 18.0786C25.7831 18.8596 25.7831 20.126 26.5641 20.907C27.3452 21.6881 28.6115 21.6881 29.3925 20.907Z" fill="black"/>
<path d="M23.7353 23.7356C24.5164 22.9546 24.5164 21.6882 23.7353 20.9072C22.9543 20.1261 21.6879 20.1261 20.9069 20.9072C20.1258 21.6882 20.1258 22.9546 20.9069 23.7356C21.6879 24.5167 22.9543 24.5167 23.7353 23.7356Z" fill="black"/>
<path d="M23.5645 5.52258L43.3634 25.3216" stroke="black" stroke-width="4" stroke-linecap="round"/>
</svg>
