<svg width="48" height="48" viewBox="0 0 48 48" fill="none" xmlns="http://www.w3.org/2000/svg">
<path d="M14.5397 20.0186C12.8522 17.9434 11.2675 17.4979 9.78564 18.6821C7.5629 20.4583 6.92453 26.6495 8.71324 32.1086C10.502 37.5676 13.9801 45.0017 21.0016 45.0017C28.0231 45.0017 29.684 37.5222 32.5485 33.0001C35.413 28.478 36.9285 24.1152 34.1208 18.6821" stroke="black" stroke-width="4" stroke-linecap="round" stroke-linejoin="round"/>
<path d="M11 18.0368C9.29707 15.4428 7.96374 13.4305 6.99996 12.0002C5.5543 9.85462 9.25107 7.08162 11 8.96806C12.1659 10.2257 13.7148 12.078 15.6466 14.5249" stroke="black" stroke-width="4" stroke-linecap="round"/>
<path d="M15.0236 25.6396C14.5391 19.5759 14.9333 15.6276 16.2062 13.7947C18.1155 11.0454 21.6631 10.0031 25.0035 10.0031C26.9924 10.0031 28.8087 10.8502 30.4525 12.5444" stroke="black" stroke-width="4" stroke-linecap="round" stroke-linejoin="round"/>
<path fill-rule="evenodd" clip-rule="evenodd" d="M40.9998 12.6128C41.5853 14.6492 40.6289 16.5096 37.6839 16.931C34.7388 17.3523 32.5308 18.8332 30.9383 20.079C29.3458 21.3248 26.4978 25.1046 25.9356 27.0023C25.3733 28.9 22.1597 27.1547 21.2966 26.397C20.4335 25.6394 19.5851 23.9806 21.2966 22.2457C23.0081 20.5107 22.6378 20.1645 22.6378 18.4052C22.6378 16.6458 31.9998 10.8263 37.2724 10.294C38.4444 10.2257 40.4143 10.5763 40.9998 12.6128Z" stroke="black" stroke-width="4"/>
<path d="M23.0083 4.00012V9.26282" stroke="black" stroke-width="4" stroke-linecap="round"/>
<path d="M20.3066 10.7178C17.2888 6.92532 14.8555 4.80867 13.0068 4.3678" stroke="black" stroke-width="4" stroke-linecap="round"/>
<path d="M17.0039 7.02892L17.9944 2.96155" stroke="black" stroke-width="4" stroke-linecap="round"/>
<path d="M35.6128 10.7174C35.2905 11.8219 35.2905 12.8575 35.6128 13.8241C35.935 14.7908 36.6255 15.8263 37.6842 16.9308" stroke="black" stroke-width="4" stroke-linecap="round"/>
</svg>
