<svg width="48" height="48" viewBox="0 0 48 48" fill="none" xmlns="http://www.w3.org/2000/svg">
<path d="M16.9875 4.00024C17.108 10.2503 16.7846 14.5866 16.0172 17.0094C14.8662 20.6435 6.08203 30.7631 6.08203 36.1022C6.08203 41.4414 12.3865 44.3894 15.7908 42.3789" stroke="black" stroke-width="4" stroke-linecap="round"/>
<path d="M32.0015 4.00024C31.7768 10.2503 32.0481 14.5866 32.8154 17.0094C33.9664 20.6435 42.9585 29.4499 42.9585 35.2927C42.9585 41.1354 36.4461 44.3894 33.0418 42.3789" stroke="black" stroke-width="4" stroke-linecap="round"/>
<path d="M13.0059 34.8339C14.7153 33.8617 16.2019 33.8617 17.4657 34.8339C19.3614 36.2922 19.9562 40.0002 24.0084 40.0002C28.0607 40.0002 30.0472 35.8429 32.0001 34.8339C33.3021 34.1612 34.6354 34.1612 36.0001 34.8339" stroke="black" stroke-width="4" stroke-linecap="round"/>
<path d="M20.2852 22.1458C19.4914 23.0003 18.6514 23.9533 18.0381 25.614C17.5732 26.8728 17.4803 27.6029 17.416 28.4242" stroke="black" stroke-width="4" stroke-linecap="round"/>
</svg>
