<svg width="48" height="48" viewBox="0 0 48 48" fill="none" xmlns="http://www.w3.org/2000/svg">
<path d="M4.99951 32.3137L20.0344 5.94293C20.9585 3.98114 22.6272 3.00024 25.0406 3.00024C28.6608 3.00024 31.0177 7.9865 31.0177 7.9865C31.0177 7.9865 32.345 8.18426 34.9995 8.57977C30.9893 8.64538 28.6704 9.45221 28.0429 11.0002C27.1017 13.3223 30.4988 15.7311 31.0177 19.0041C31.5366 22.2771 29.4668 27.8053 24.4887 30.5672C21.1699 32.4085 17.0267 32.8862 12.0588 32.0002L5.95893 43.0002" stroke="black" stroke-width="4" stroke-linecap="round" stroke-linejoin="round"/>
<path fill-rule="evenodd" clip-rule="evenodd" d="M14.9424 26.9782C17.5213 22.3287 19.2169 19.3432 20.0293 18.0218C21.2478 16.0397 26.2745 16.6373 24.4685 21.5845C23.2645 24.8827 20.0891 26.6806 14.9424 26.9782Z" stroke="black" stroke-width="4" stroke-linejoin="round"/>
<path fill-rule="evenodd" clip-rule="evenodd" d="M32.9688 32.9838C34.1109 30.2473 35.7785 28.589 37.9716 28.009C40.1647 27.4289 42.1648 27.782 43.972 29.0684C42.8465 31.6643 41.1782 33.3286 38.967 34.0611C36.7559 34.7936 34.7565 34.4345 32.9688 32.9838Z" stroke="black" stroke-width="4" stroke-linejoin="round"/>
<path fill-rule="evenodd" clip-rule="evenodd" d="M26.9863 35.1143C27.7431 37.8361 29.7478 39.6565 33.0003 40.5753C36.2528 41.4942 38.9305 40.9692 41.0335 39.0005C38.4327 35.97 36.089 34.3065 34.0025 34.0101C31.916 33.7136 29.5773 34.0817 26.9863 35.1143Z" stroke="black" stroke-width="4" stroke-linejoin="round"/>
</svg>
