<svg width="48" height="48" viewBox="0 0 48 48" fill="none" xmlns="http://www.w3.org/2000/svg">
<path d="M8.00005 4C12.0026 7.33659 14.0039 10.6715 14.0039 14.0046C14.0039 19.0043 10 21.2436 8.00005 24C6.00005 26.7564 5.00537 29.9311 5.00537 34.0033C5.00537 36.718 6.0036 40.0503 8.00005 44" stroke="black" stroke-width="4" stroke-linecap="square"/>
<path d="M40.0039 4C36.0013 7.33659 34 10.6715 34 14.0046C34 19.0043 38.0039 21.2436 40.0039 24C42.0039 26.7564 42.9985 29.9311 42.9985 34.0033C42.9985 36.718 42.0003 40.0503 40.0039 44" stroke="black" stroke-width="4" stroke-linecap="square"/>
<path d="M14.0039 29.1826C16.5255 28.941 18.6192 29.3014 20.2853 30.2639C22.7843 31.7076 23.9917 33.3597 24 34.9573C24.0056 36.0224 24.0056 39.0367 24 44.0001" stroke="black" stroke-width="4" stroke-linecap="square"/>
<path d="M34.0044 29.1826C31.4828 28.941 29.3891 29.3014 27.723 30.2639C25.224 31.7076 24.0166 33.3597 24.0083 34.9573" stroke="black" stroke-width="4" stroke-linecap="square"/>
</svg>
