<svg width="48" height="48" viewBox="0 0 48 48" fill="none" xmlns="http://www.w3.org/2000/svg">
<path d="M15.9999 43.9998C14.5378 39.651 14.066 35.9843 14.5844 32.9998C15.1028 30.0152 16.7149 28.0645 19.4206 27.1475C17.4073 33.2544 18.2323 37.7161 21.8957 40.5327C27.3907 44.7575 40.6331 42.8146 41.3506 28.5229C42.0681 14.2313 35.1943 3.91248 25.0297 3.91248C14.8652 3.91248 13.3457 14.9136 20.5045 18.647C14.1706 20.0275 10.1513 22.861 8.44657 27.1475C6.74181 31.4341 6.60909 37.0515 8.04843 43.9998" stroke="black" stroke-width="4" stroke-linecap="round" stroke-linejoin="round"/>
<path d="M30.5992 14.9999C27.7018 16.7272 26.6518 18.3092 27.4489 19.7459C28.2461 21.1827 30.0542 21.1827 32.8733 19.7459" stroke="black" stroke-width="4" stroke-linecap="round" stroke-linejoin="round"/>
<path d="M33.2467 26.2403C29.5062 25.4782 27.257 25.7541 26.4991 27.068C25.3622 29.0388 30.3696 31.8941 32.1848 32.2509" stroke="black" stroke-width="4" stroke-linecap="round" stroke-linejoin="round"/>
</svg>
