<svg width="48" height="48" viewBox="0 0 48 48" fill="none" xmlns="http://www.w3.org/2000/svg">
<g clip-path="url(#clip0_27_131371)">
<path fill-rule="evenodd" clip-rule="evenodd" d="M18.2379 24.4746C20.0937 25.774 20.5678 27.1488 21.8463 28.0441C23.2461 29.0242 24.7936 29.5446 26.0154 29.0594C28.3224 28.1433 29.9913 25.1508 32.0269 22.2437C35.9866 16.5887 35.9801 7.85888 32.2871 5.273C28.5941 2.68713 20.4439 5.70557 16.4842 11.3606C14.5493 14.124 12.0151 17.8057 12.1677 19.3632C12.2962 20.6745 12.7371 21.405 14.1254 22.6378C15.5137 23.8706 16.2574 23.0878 18.2379 24.4746Z" stroke="black" stroke-width="4"/>
<path d="M13.6175 22.3169C10.0769 26.2145 9.60934 29.1762 12.2147 31.2019C14.8201 33.2276 18.0918 32.2293 22.0296 28.2071" stroke="black" stroke-width="4" stroke-linecap="round"/>
<path d="M12.2386 31.2274C9.14181 34.6146 8.57222 37.7734 10.5299 40.7039C13.4663 45.0997 19.2838 44.8594 22.124 41.5828C24.9642 38.3062 30.3082 30.1868 36.183 31.8559C42.0578 33.525 41.0605 39.9438 37.122 40.6182" stroke="black" stroke-width="4" stroke-linecap="round"/>
</g>
<defs>
<clipPath id="clip0_27_131371">
<rect width="48" height="48" fill="white"/>
</clipPath>
</defs>
</svg>
