<svg width="48" height="48" viewBox="0 0 48 48" fill="none" xmlns="http://www.w3.org/2000/svg">
<path d="M8.99951 33.3135L24.0344 6.94269C24.9585 4.9809 26.6272 4 29.0406 4C32.6608 4 35.0177 8.98626 35.0177 8.98626C35.0177 8.98626 36.345 9.18401 38.9995 9.57953C34.9893 9.64514 32.6704 10.452 32.0429 12C31.1017 14.3221 34.4988 16.7308 35.0177 20.0039C35.5366 23.2769 33.4668 28.8051 28.4887 31.567C25.1699 33.4083 21.0267 33.8859 16.0588 33L9.95893 44" stroke="black" stroke-width="4" stroke-linecap="round" stroke-linejoin="round"/>
<path fill-rule="evenodd" clip-rule="evenodd" d="M18.9424 27.978C21.5213 23.3284 23.2169 20.3429 24.0293 19.0215C25.2478 17.0394 30.2745 17.637 28.4685 22.5843C27.2645 25.8824 24.0891 27.6803 18.9424 27.978Z" stroke="black" stroke-width="4" stroke-linejoin="round"/>
</svg>
