<svg width="48" height="48" viewBox="0 0 48 48" fill="none" xmlns="http://www.w3.org/2000/svg">
<path fill-rule="evenodd" clip-rule="evenodd" d="M13.1167 5H14.0022C18.6682 5.68989 19.9336 8.33825 23.9998 8.33825C28.066 8.33825 29.3309 5.69005 33.9973 5H34.4998C39.7465 5 43.9998 9.25329 43.9998 14.5V15.1259C43.9998 18.0287 40.9086 21.3433 39.9998 24.4829C39.0345 27.8174 38.3732 30.5425 38.1791 33.3943C37.7243 40.0751 35.4465 43 32.9998 43C29.346 43 26.1012 28.0251 24.0622 28.0251C22.0232 28.0251 17.9771 43 14.9998 43C13.1828 43 10.8288 41.9254 9.94505 33.3943C9.59342 30 9.00073 27.9407 7.99979 24.4829C7.12001 21.4437 4.1515 17.8111 3.99979 14.5511C3.76549 9.51593 7.65733 5.24419 12.6925 5.00988C12.8338 5.00331 12.9753 5.00002 13.1167 5Z" stroke="black" stroke-width="4"/>
<path d="M15.4814 12.4634L31.9995 17.7887" stroke="black" stroke-width="4" stroke-linecap="round"/>
<path d="M15.4814 17.7886L31.9995 12.4632" stroke="black" stroke-width="4" stroke-linecap="round"/>
</svg>
