<svg width="48" height="48" viewBox="0 0 48 48" fill="none" xmlns="http://www.w3.org/2000/svg">
<g clip-path="url(#clip0_8674_3367)">
<path d="M40.8505 43.9203L39.2762 43.6054C36.9266 43.1355 35.856 39.9985 36.6027 37.7217C38.5571 31.7627 37.1246 24.1114 36.3326 20.809C36.0869 19.7843 35.2752 19.0151 34.2529 18.7596L31.9902 18.1939C30.9153 17.9252 30.0761 17.0859 29.8074 16.0111L29.2417 13.7483C28.9861 12.726 28.217 11.9143 27.1922 11.6686C23.8899 10.8767 16.2385 9.44416 10.2795 11.3986C8.00278 12.1453 4.86576 11.0746 4.39585 8.72509L4.08097 7.15072" stroke="black" stroke-width="4" stroke-linecap="round" stroke-linejoin="round"/>
<path d="M6 11L38 43" stroke="black" stroke-width="4" stroke-linecap="round" stroke-linejoin="round"/>
<path d="M12 36L43 5" stroke="black" stroke-width="4" stroke-linecap="round" stroke-linejoin="round"/>
</g>
<defs>
<clipPath id="clip0_8674_3367">
<rect width="48" height="48" fill="white"/>
</clipPath>
</defs>
</svg>
