<svg width="48" height="48" viewBox="0 0 48 48" fill="none" xmlns="http://www.w3.org/2000/svg">
<path d="M29 14C31.7614 14 34 11.7614 34 9C34 6.23858 31.7614 4 29 4C26.2386 4 24 6.23858 24 9C24 11.7614 26.2386 14 29 14Z" stroke="black" stroke-width="4" stroke-miterlimit="2"/>
<path d="M41 24C42.6569 24 44 22.6569 44 21C44 19.3431 42.6569 18 41 18C39.3431 18 38 19.3431 38 21C38 22.6569 39.3431 24 41 24Z" fill="black"/>
<path d="M16 24L13.73 35.26C13.52 36.57 12.12 37.31 10.92 36.76L4 34" stroke="black" stroke-width="4" stroke-miterlimit="2" stroke-linecap="round" stroke-linejoin="round"/>
<path d="M38.0001 30L23.7601 19.07C22.9901 18.5 21.9301 18.56 21.2201 19.2L16.3801 23.63C15.9101 24.06 15.9501 24.8 16.4701 25.18L26.0001 32.15C26.7201 32.68 27.0101 33.63 26.6901 34.47L23.1201 44" stroke="black" stroke-width="4" stroke-miterlimit="2" stroke-linecap="round" stroke-linejoin="round"/>
</svg>
