<svg width="48" height="48" viewBox="0 0 48 48" fill="none" xmlns="http://www.w3.org/2000/svg">
<path d="M33 14C35.7614 14 38 11.7614 38 9C38 6.23858 35.7614 4 33 4C30.2386 4 28 6.23858 28 9C28 11.7614 30.2386 14 33 14Z" stroke="black" stroke-width="4" stroke-miterlimit="2"/>
<path d="M40.0002 23.0001H32.3702C31.8102 23.0001 31.2702 22.7601 30.8902 22.3501L25.5502 16.5701C24.9002 15.8601 23.8402 15.7101 23.0202 16.2101L15.5702 20.7901C14.9402 21.1801 14.9402 22.1001 15.5702 22.4901L23.0302 27.0601C23.6202 27.4201 23.9902 28.0701 23.9902 28.7701L24.0002 38.0001" stroke="black" stroke-width="4" stroke-miterlimit="2" stroke-linecap="round" stroke-linejoin="round"/>
<circle cx="36.5" cy="36.5" r="7.5" stroke="black" stroke-width="4"/>
<circle cx="11.5" cy="36.5" r="7.5" stroke="black" stroke-width="4"/>
</svg>
