<svg width="48" height="48" viewBox="0 0 48 48" fill="none" xmlns="http://www.w3.org/2000/svg">
<path d="M44 39.8201H4L36.54 21.8201H44V39.8201Z" stroke="black" stroke-width="4" stroke-miterlimit="2" stroke-linecap="round" stroke-linejoin="round"/>
<path d="M3.85742 19.2009L7.08947 20.799L24.41 10.799L24.642 7.20093" stroke="black" stroke-width="4" stroke-miterlimit="2" stroke-linecap="round" stroke-linejoin="round"/>
<path d="M12.3301 24.8799C13.9869 24.8799 15.3301 23.5367 15.3301 21.8799C15.3301 20.223 13.9869 18.8799 12.3301 18.8799C10.6732 18.8799 9.33008 20.223 9.33008 21.8799C9.33008 23.5367 10.6732 24.8799 12.3301 24.8799Z" fill="black"/>
<path d="M23.4502 18.8801C25.107 18.8801 26.4502 17.537 26.4502 15.8801C26.4502 14.2233 25.107 12.8801 23.4502 12.8801C21.7933 12.8801 20.4502 14.2233 20.4502 15.8801C20.4502 17.537 21.7933 18.8801 23.4502 18.8801Z" fill="black"/>
</svg>
