<svg width="48" height="48" viewBox="0 0 48 48" fill="none" xmlns="http://www.w3.org/2000/svg">
<path d="M23.8887 39.8889C32.7287 39.8889 39.8887 32.7289 39.8887 23.8889C39.8887 15.0489 32.7287 7.88892 23.8887 7.88892C15.0487 7.88892 7.88867 15.0489 7.88867 23.8889C7.88867 32.7289 15.0487 39.8889 23.8887 39.8889Z" stroke="black" stroke-width="4" stroke-miterlimit="2" stroke-linejoin="round"/>
<path d="M23.8887 31.8889C28.3087 31.8889 31.8887 28.3089 31.8887 23.8889C31.8887 19.4689 28.3087 15.8889 23.8887 15.8889C19.4687 15.8889 15.8887 19.4689 15.8887 23.8889C15.8887 28.3089 19.4687 31.8889 23.8887 31.8889Z" stroke="black" stroke-width="4" stroke-miterlimit="2" stroke-linejoin="round"/>
<path d="M23.8887 25.8889C24.9887 25.8889 25.8887 24.9889 25.8887 23.8889C25.8887 22.7889 24.9887 21.8889 23.8887 21.8889C22.7887 21.8889 21.8887 22.7889 21.8887 23.8889C21.8887 24.9889 22.7887 25.8889 23.8887 25.8889Z" fill="black"/>
<path d="M23.8887 7.88892V3.88892" stroke="black" stroke-width="4" stroke-miterlimit="2" stroke-linecap="round" stroke-linejoin="round"/>
<path d="M37.8887 43.8889L33.8887 36.8889" stroke="black" stroke-width="4" stroke-miterlimit="2" stroke-linecap="round" stroke-linejoin="round"/>
<path d="M13.8887 36.8889L9.88867 43.8889" stroke="black" stroke-width="4" stroke-miterlimit="2" stroke-linecap="round" stroke-linejoin="round"/>
</svg>
