<svg width="48" height="48" viewBox="0 0 48 48" fill="none" xmlns="http://www.w3.org/2000/svg">
<g clip-path="url(#clip0_27_131943)">
<path d="M11.6777 20.271C7.27476 21.3181 4 25.2766 4 30C4 35.5228 8.47715 40 14 40C14.9474 40 15.864 39.8683 16.7325 39.6221" stroke="black" stroke-width="4" stroke-linecap="round" stroke-linejoin="round"/>
<path d="M36.0548 20.271C40.4578 21.3181 43.7325 25.2766 43.7325 30C43.7325 35.5228 39.2554 40 33.7325 40C32.7851 40 31.8685 39.8683 31 39.6221" stroke="black" stroke-width="4" stroke-linecap="round" stroke-linejoin="round"/>
<path d="M36 20C36 13.3726 30.6274 8 24 8C17.3726 8 12 13.3726 12 20" stroke="black" stroke-width="4" stroke-linecap="round" stroke-linejoin="round"/>
<path d="M17.0654 27.881L23.9999 20.9236L31.1318 28" stroke="black" stroke-width="4" stroke-linecap="round" stroke-linejoin="round"/>
<path d="M24 38.0001V24.4619" stroke="black" stroke-width="4" stroke-linecap="round" stroke-linejoin="round"/>
</g>
<defs>
<clipPath id="clip0_27_131943">
<rect width="48" height="48" fill="white"/>
</clipPath>
</defs>
</svg>
