<svg width="24" height="24" viewBox="0 0 24 24" fill="none" xmlns="http://www.w3.org/2000/svg">
<path fill-rule="evenodd" clip-rule="evenodd" d="M4 12C4 7.58172 7.58172 4 12 4C16.4183 4 20 7.58172 20 12C20 16.0796 16.9463 19.446 13 19.9381L13 14H15C15.5523 14 16 13.5523 16 13C16 12.4477 15.5523 12 15 12H13V10C13 9.44772 13.4477 9 14 9H14.5C15.0523 9 15.5 8.55228 15.5 8C15.5 7.44772 15.0523 7 14.5 7H14C12.3431 7 11 8.34315 11 10V12H9C8.44772 12 8 12.4477 8 13C8 13.5523 8.44772 14 9 14H11L11 19.9381C7.05369 19.446 4 16.0796 4 12ZM12 22C17.5228 22 22 17.5228 22 12C22 6.47715 17.5228 2 12 2C6.47715 2 2 6.47715 2 12C2 17.5228 6.47715 22 12 22Z" fill="#09244B"/>
</svg>
