<svg width="24" height="24" viewBox="0 0 24 24" fill="none" xmlns="http://www.w3.org/2000/svg">
<path d="M6.31531 6.19869C6.06552 5.56081 6.07533 4.83188 6.18669 4.16441C6.94467 4.39707 7.67607 4.75333 8.30682 5.23538C8.58556 5.4484 8.95285 5.51824 9.29515 5.41452C10.1247 5.16314 11.0379 5.02285 12.0002 5.02285C12.9616 5.02285 13.8739 5.16287 14.7029 5.4138C15.0451 5.51737 15.4121 5.44756 15.6908 5.2347C16.3213 4.75301 17.0524 4.39696 17.81 4.16441C17.9213 4.83124 17.9311 5.55929 17.6822 6.19675C17.5322 6.58072 17.6074 7.02286 17.89 7.33646C18.614 8.13973 19.0002 9.06354 19.0002 10.0229C19.0002 12.137 17.0308 14.2098 13.8664 14.841C13.074 14.9991 12.7648 15.9954 13.3713 16.5668C13.7598 16.9328 14.0002 17.4489 14.0002 18.0229V21.0229C14.0002 21.5751 14.4479 22.0229 15.0002 22.0229C15.5525 22.0229 16.0002 21.5751 16.0002 21.0229V18.0229C16.0002 17.4531 15.8807 16.9108 15.6659 16.42C18.6833 15.3726 21.0002 13.0153 21.0002 10.0229C21.0002 8.67528 20.5158 7.43761 19.713 6.40081C19.9228 5.5812 19.9042 4.75455 19.8244 4.12036C19.753 3.55282 19.6537 2.80843 19.2534 2.36488C18.6588 1.70618 17.6734 2.09376 16.9734 2.33325C16.355 2.54352 15.59 2.87866 14.8489 3.37826C13.9514 3.14713 12.9932 3.02285 12.0002 3.02285C11.0062 3.02285 10.047 3.14738 9.14883 3.37895C8.40764 2.8791 7.64241 2.5438 7.02378 2.33343C6.32387 2.09391 5.33779 1.70615 4.74326 2.365C4.33567 2.81667 4.24979 3.50194 4.17692 4.08341L4.1721 4.12181C4.09236 4.75663 4.07398 5.58418 4.28467 6.40443C3.48347 7.4405 3.00024 8.67687 3.00024 10.0229C3.00024 13.0153 5.31714 15.3726 8.33458 16.42C8.12218 16.9051 8.00302 17.4405 8.00029 18.0031L7.83254 18.0366C7.1157 18.1354 6.6565 18.0474 6.34394 17.9148C5.58388 17.5924 5.19249 16.7814 4.71343 16.1615C4.41578 15.7763 3.98227 15.2961 3.31649 15.0742C2.79255 14.8996 2.22623 15.1827 2.05158 15.7067C1.87694 16.2306 2.1601 16.7969 2.68404 16.9716C3.24273 17.1578 3.62835 18.1137 3.98205 18.5381C4.35493 18.9856 4.85105 19.454 5.56284 19.756C6.24436 20.0451 7.04494 20.1486 8.00024 20.0316V21.0229C8.00024 21.5751 8.44796 22.0229 9.00024 22.0229C9.55252 22.0229 10.0002 21.5751 10.0002 21.0229V18.0229C10.0002 17.4489 10.2406 16.9328 10.6291 16.5668C11.2357 15.9953 10.9262 14.9991 10.134 14.841C6.96966 14.2098 5.00024 12.137 5.00024 10.0229C5.00024 9.06447 5.38573 8.14156 6.10828 7.33885C6.39082 7.02497 6.46565 6.58262 6.31531 6.19869Z" fill="#292D32"/>
</svg>
