<svg width="24" height="24" viewBox="0 0 24 24" fill="none" xmlns="http://www.w3.org/2000/svg">
<path fill-rule="evenodd" clip-rule="evenodd" d="M16 3C18.7614 3 21 5.23858 21 8V16C21 18.7614 18.7614 21 16 21H8C5.23858 21 3 18.7614 3 16L3 8C3 5.23858 5.23858 3 8 3L16 3ZM16 5L8 5C6.34315 5 5 6.34315 5 8L5 16C5 17.6569 6.34315 19 8 19H16C17.6569 19 19 17.6569 19 16V8C19 6.34315 17.6569 5 16 5ZM12 8C14.2091 8 16 9.79086 16 12C16 14.2091 14.2091 16 12 16C9.79086 16 8 14.2091 8 12C8 9.79086 9.79086 8 12 8ZM12 10C10.8954 10 10 10.8954 10 12C10 13.1046 10.8954 14 12 14C13.1046 14 14 13.1046 14 12C14 10.8954 13.1046 10 12 10ZM16.5 6.5C17.0523 6.5 17.5 6.94772 17.5 7.5C17.5 8.05228 17.0523 8.5 16.5 8.5C15.9477 8.5 15.5 8.05228 15.5 7.5C15.5 6.94772 15.9477 6.5 16.5 6.5Z" fill="#09244B"/>
</svg>
