<svg width="24" height="24" viewBox="0 0 24 24" fill="none" xmlns="http://www.w3.org/2000/svg">
<path d="M12 4C12.8554 4 13.7316 4.02242 14.5817 4.05777L15.5861 4.10578L16.5475 4.16257L17.4476 4.22448L18.2685 4.28787C20.1065 4.43702 21.5836 5.85942 21.7633 7.71109L21.8031 8.13563L21.8781 9.04557C21.9482 9.9888 22 11.0173 22 12C22 12.9827 21.9482 14.0112 21.8781 14.9544L21.8031 15.8644C21.79 16.0097 21.7767 16.1514 21.7633 16.2889C21.5836 18.1406 20.1065 19.563 18.2685 19.7121L17.4476 19.7755L16.5475 19.8374L15.5861 19.8942L14.5817 19.9422C13.7316 19.9776 12.8554 20 12 20C11.1446 20 10.2684 19.9776 9.41834 19.9422L8.41386 19.8942L7.45253 19.8374L6.5524 19.7755L5.7315 19.7121C3.89351 19.563 2.4164 18.1406 2.23668 16.2889L2.19692 15.8644L2.12192 14.9544C2.0518 14.0112 2 12.9827 2 12C2 11.0173 2.0518 9.9888 2.12192 9.04557L2.19692 8.13563C2.21003 7.99033 2.22333 7.84861 2.23668 7.71109C2.4164 5.85942 3.89351 4.43702 5.7315 4.28787L6.5524 4.22448L7.45253 4.16257L8.41385 4.10578L9.41834 4.05777C10.2684 4.02242 11.1446 4 12 4ZM12 6C11.1746 6 10.3259 6.02172 9.49966 6.05611L8.52183 6.10287L7.5831 6.15831L6.70106 6.21895L5.89327 6.28131C5.00396 6.35348 4.31194 7.03249 4.22732 7.9043C4.11002 9.11288 4 10.6181 4 12C4 13.3819 4.11002 14.8871 4.22732 16.0957C4.31194 16.9675 5.00396 17.6465 5.89327 17.7187L6.70106 17.7811L7.5831 17.8417L8.52183 17.8972L9.49966 17.9439C10.3259 17.9783 11.1746 18 12 18C12.8253 18 13.674 17.9783 14.5003 17.9439L15.4782 17.8972L16.4169 17.8417L17.2989 17.7811L18.1067 17.7187C18.996 17.6465 19.6881 16.9675 19.7727 16.0957C19.89 14.8871 20 13.3819 20 12C20 10.6181 19.89 9.11288 19.7727 7.9043C19.6881 7.03249 18.996 6.35348 18.1067 6.28131L17.2989 6.21895L16.4169 6.15831L15.4782 6.10287L14.5003 6.05611C13.674 6.02172 12.8253 6 12 6ZM10 9.57513C10 9.14404 10.4356 8.86383 10.8188 9.01615L10.9 9.05551L15.1 11.4804C15.4692 11.6935 15.4976 12.2019 15.1852 12.4605L15.1 12.5196L10.9 14.9445C10.5267 15.16 10.0662 14.923 10.0065 14.5149L10 14.4249V9.57513Z" fill="#09244B"/>
</svg>
