<svg width="48" height="48" viewBox="0 0 48 48" fill="none" xmlns="http://www.w3.org/2000/svg">
<path d="M23.9996 28.6292C26.5099 28.6292 28.545 26.6004 28.545 24.0979C28.545 21.5954 26.5099 19.5667 23.9996 19.5667C21.4892 19.5667 19.4541 21.5954 19.4541 24.0979C19.4541 26.6004 21.4892 28.6292 23.9996 28.6292Z" stroke="black" stroke-width="4" stroke-linejoin="round"/>
<path d="M16 15C10.6667 19.9706 10.6667 28.0294 16 33" stroke="black" stroke-width="4" stroke-linecap="round" stroke-linejoin="round"/>
<path d="M32 33C37.3333 28.0294 37.3333 19.9706 32 15" stroke="black" stroke-width="4" stroke-linecap="round" stroke-linejoin="round"/>
<path d="M9.85786 10C2.04738 17.7861 2.04738 30.4098 9.85786 38.1959" stroke="black" stroke-width="4" stroke-linecap="round" stroke-linejoin="round"/>
<path d="M38.1426 38.1959C45.9531 30.4098 45.9531 17.7861 38.1426 10" stroke="black" stroke-width="4" stroke-linecap="round" stroke-linejoin="round"/>
</svg>
