<svg width="48" height="48" viewBox="0 0 48 48" fill="none" xmlns="http://www.w3.org/2000/svg">
<g clip-path="url(#clip0_27_131698)">
<path d="M24 42C36 42 38 31.5324 38 28C38 24.8379 38 20.1712 38 14H10C10 17.4423 10 22.109 10 28C10 31.4506 12 42 24 42Z" stroke="black" stroke-width="4" stroke-linejoin="round"/>
<path d="M4 8L10 14" stroke="black" stroke-width="4" stroke-linecap="round" stroke-linejoin="round"/>
<path d="M44 8L38 14" stroke="black" stroke-width="4" stroke-linecap="round" stroke-linejoin="round"/>
<path d="M4 27H10" stroke="black" stroke-width="4" stroke-linecap="round" stroke-linejoin="round"/>
<path d="M44 27H38" stroke="black" stroke-width="4" stroke-linecap="round" stroke-linejoin="round"/>
<path d="M7 44L13 38" stroke="black" stroke-width="4" stroke-linecap="round" stroke-linejoin="round"/>
<path d="M41 44L35 38" stroke="black" stroke-width="4" stroke-linecap="round" stroke-linejoin="round"/>
<path d="M24 42V14" stroke="black" stroke-width="4" stroke-linecap="round" stroke-linejoin="round"/>
<path d="M14.9209 39.0409C17.0029 40.7831 19.9249 42 24.0004 42C28.1117 42 31.0492 40.7713 33.1346 39.0138" stroke="black" stroke-width="4" stroke-linecap="round" stroke-linejoin="round"/>
<path d="M32 12.3333C32 7.73096 28.4183 4 24 4C19.5817 4 16 7.73096 16 12.3333V14H32V12.3333Z" stroke="black" stroke-width="4" stroke-linejoin="round"/>
</g>
<defs>
<clipPath id="clip0_27_131698">
<rect width="48" height="48" fill="white"/>
</clipPath>
</defs>
</svg>
