<svg width="48" height="48" viewBox="0 0 48 48" fill="none" xmlns="http://www.w3.org/2000/svg">
<path d="M4 7C4 5.34315 5.34315 4 7 4H24H41C42.6569 4 44 5.34315 44 7V24V41C44 42.6569 42.6569 44 41 44H24H7C5.34315 44 4 42.6569 4 41V24V7Z" stroke="black" stroke-width="4" stroke-linecap="round" stroke-linejoin="round"/>
<path d="M4 24H44" stroke="black" stroke-width="4" stroke-linecap="round" stroke-linejoin="round"/>
<path d="M24 44V4" stroke="black" stroke-width="4" stroke-linecap="round" stroke-linejoin="round"/>
<path d="M4 34V14" stroke="black" stroke-width="4" stroke-linecap="round" stroke-linejoin="round"/>
<path d="M44 34V14" stroke="black" stroke-width="4" stroke-linecap="round" stroke-linejoin="round"/>
<path d="M41 44H7" stroke="black" stroke-width="4" stroke-linecap="round" stroke-linejoin="round"/>
<path d="M41 4H7" stroke="black" stroke-width="4" stroke-linecap="round" stroke-linejoin="round"/>
<path d="M24 23.9999C24 23.9999 34.2661 19.3905 35.8282 17.8284C37.3903 16.2663 37.3903 13.7337 35.8282 12.1716C34.2661 10.6095 31.7334 10.6095 30.1713 12.1716C28.6093 13.7337 24 23.9999 24 23.9999ZM24 23.9999C24 23.9999 13.7334 19.3905 12.1713 17.8284M24 23.9999C24 23.9999 19.3903 13.7337 17.8282 12.1716M24 23.9999C24 23.9999 34.2659 28.6095 35.828 30.1716M24 23.9999C24 23.9999 28.609 34.2663 30.1711 35.8284M24 23.9999C24 23.9999 13.7337 28.6095 12.1716 30.1716C10.6095 31.7337 10.6095 34.2663 12.1716 35.8284C13.7337 37.3905 16.2663 37.3905 17.8284 35.8284C19.3905 34.2663 24 23.9999 24 23.9999Z" stroke="black" stroke-width="4" stroke-linecap="round" stroke-linejoin="round"/>
</svg>
