<svg width="48" height="48" viewBox="0 0 48 48" fill="none" xmlns="http://www.w3.org/2000/svg">
<g clip-path="url(#clip0_27_132407)">
<path d="M41 4H7C5.34315 4 4 5.34315 4 7V41C4 42.6569 5.34315 44 7 44H41C42.6569 44 44 42.6569 44 41V7C44 5.34315 42.6569 4 41 4Z" stroke="black" stroke-width="4" stroke-linejoin="round"/>
<path d="M12 38L37 28" stroke="black" stroke-width="4" stroke-linecap="round" stroke-linejoin="round" stroke-dasharray="2 6"/>
<path d="M14 31C16.6667 27.1394 18 24.4728 18 23C18 20.7909 16.2091 19 14 19C11.7909 19 10 20.7909 10 23C10 24.4728 11.3333 27.1394 14 31Z" stroke="black" stroke-width="4" stroke-linejoin="round"/>
<path d="M34 22C36.6667 18.1394 38 15.4728 38 14C38 11.7909 36.2091 10 34 10C31.7909 10 30 11.7909 30 14C30 15.4728 31.3333 18.1394 34 22Z" stroke="black" stroke-width="4" stroke-linejoin="round"/>
</g>
<defs>
<clipPath id="clip0_27_132407">
<rect width="48" height="48" fill="white"/>
</clipPath>
</defs>
</svg>
