<svg width="48" height="48" viewBox="0 0 48 48" fill="none" xmlns="http://www.w3.org/2000/svg">
<path d="M14.375 9.79423C15.1016 9.79423 15.771 10.1883 16.1237 10.8235L18.5701 15.2303C18.8904 15.8073 18.9055 16.5052 18.6103 17.0955L16.2535 21.8092C16.2535 21.8092 16.9365 25.3206 19.7949 28.179C22.6534 31.0374 26.153 31.7086 26.153 31.7086L30.8659 29.3522C31.4566 29.0568 32.155 29.0721 32.7322 29.393L37.1515 31.85C37.7861 32.2028 38.1797 32.8719 38.1797 33.598L38.1797 38.6715C38.1797 41.2552 35.7798 43.1213 33.3317 42.2952C28.3038 40.5987 20.4991 37.3685 15.5523 32.4216C10.6054 27.4748 7.37521 19.6701 5.67867 14.6422C4.85265 12.1941 6.71874 9.79423 9.30238 9.79423L14.375 9.79423Z" stroke="black" stroke-width="4" stroke-linejoin="round"/>
<path d="M35 6L43 14L35 22" stroke="black" stroke-width="4" stroke-linecap="round" stroke-linejoin="round"/>
<path d="M27 14.0083H43" stroke="black" stroke-width="4" stroke-linecap="round" stroke-linejoin="round"/>
</svg>
