<svg width="48" height="48" viewBox="0 0 48 48" fill="none" xmlns="http://www.w3.org/2000/svg">
<path d="M15.376 9.79423C16.1026 9.79423 16.772 10.1883 17.1246 10.8235L19.5711 15.2303C19.8914 15.8073 19.9064 16.5052 19.6113 17.0955L17.2545 21.8092C17.2545 21.8092 17.9374 25.3206 20.7959 28.179C23.6543 31.0374 27.154 31.7086 27.154 31.7086L31.8669 29.3522C32.4576 29.0568 33.156 29.0721 33.7332 29.393L38.1525 31.85C38.7871 32.2028 39.1807 32.8719 39.1807 33.598L39.1807 38.6715C39.1807 41.2552 36.7808 43.1213 34.3327 42.2952C29.3048 40.5987 21.5001 37.3685 16.5532 32.4216C11.6064 27.4748 8.37619 19.6701 6.67965 14.6422C5.85363 12.1941 7.71972 9.79423 10.3034 9.79423L15.376 9.79423Z" stroke="black" stroke-width="4" stroke-linejoin="round"/>
<path d="M29 20L42 7.5" stroke="black" stroke-width="4" stroke-linecap="round" stroke-linejoin="round"/>
<path d="M42 20H29V7" stroke="black" stroke-width="4" stroke-linecap="round" stroke-linejoin="round"/>
</svg>
