<svg width="48" height="48" viewBox="0 0 48 48" fill="none" xmlns="http://www.w3.org/2000/svg">
<path d="M41.7796 20.6066C42.0324 18.9108 41.9495 17.1747 41.5309 15.5054C40.978 13.3002 39.8392 11.2118 38.1147 9.4873C36.3902 7.76281 34.3018 6.62409 32.0967 6.07115C30.4274 5.65257 28.6912 5.56967 26.9954 5.82245" stroke="black" stroke-width="4" stroke-linecap="round" stroke-linejoin="round"/>
<path d="M34.1901 19.8035C34.4609 17.9869 33.8971 16.0699 32.4986 14.6715C31.1002 13.2731 29.1832 12.7092 27.3667 12.98" stroke="black" stroke-width="4" stroke-linecap="round" stroke-linejoin="round"/>
<path d="M14.376 8.79423C15.1026 8.79423 15.772 9.18825 16.1246 9.82349L18.5711 14.2303C18.8914 14.8073 18.9064 15.5052 18.6113 16.0955L16.2545 20.8091C16.2545 20.8091 16.9374 24.3206 19.7959 27.179C22.6543 30.0374 26.154 30.7086 26.154 30.7086L30.8669 28.3522C31.4576 28.0568 32.156 28.0721 32.7332 28.393L37.1525 30.85C37.7871 31.2028 38.1807 31.8719 38.1807 32.598L38.1807 37.6715C38.1807 40.2552 35.7808 42.1213 33.3327 41.2952C28.3048 39.5987 20.5001 36.3685 15.5532 31.4216C10.6064 26.4748 7.37619 18.6701 5.67965 13.6422C4.85363 11.1941 6.71972 8.79423 9.30336 8.79423L14.376 8.79423Z" stroke="black" stroke-width="4" stroke-linejoin="round"/>
</svg>
