<svg width="48" height="48" viewBox="0 0 48 48" fill="none" xmlns="http://www.w3.org/2000/svg">
<path d="M13.375 9.79423C14.1016 9.79423 14.771 10.1883 15.1237 10.8235L17.5701 15.2303C17.8904 15.8073 17.9055 16.5052 17.6103 17.0955L15.2535 21.8092C15.2535 21.8092 15.9365 25.3206 18.7949 28.179C21.6534 31.0374 25.153 31.7086 25.153 31.7086L29.8659 29.3522C30.4566 29.0568 31.155 29.0721 31.7322 29.393L36.1515 31.85C36.7861 32.2028 37.1797 32.8719 37.1797 33.598L37.1797 38.6715C37.1797 41.2552 34.7798 43.1213 32.3317 42.2952C27.3038 40.5987 19.4991 37.3685 14.5523 32.4216C9.60543 27.4748 6.37521 19.6701 4.67867 14.6422C3.85265 12.1941 5.71874 9.79423 8.30238 9.79423L13.375 9.79423Z" stroke="black" stroke-width="4" stroke-linejoin="round"/>
<path d="M34.2402 6L26.2402 14L34.2402 22" stroke="black" stroke-width="4" stroke-linecap="round" stroke-linejoin="round"/>
<path d="M42.2402 14.0083H26.2402" stroke="black" stroke-width="4" stroke-linecap="round" stroke-linejoin="round"/>
</svg>
