<svg width="48" height="48" viewBox="0 0 48 48" fill="none" xmlns="http://www.w3.org/2000/svg">
<path d="M28 20L41 7.5" stroke="black" stroke-width="4" stroke-linecap="round" stroke-linejoin="round"/>
<path d="M28 7H41V20" stroke="black" stroke-width="4" stroke-linecap="round" stroke-linejoin="round"/>
<path d="M14.376 9.79423C15.1026 9.79423 15.772 10.1883 16.1246 10.8235L18.5711 15.2303C18.8914 15.8073 18.9064 16.5052 18.6113 17.0955L16.2545 21.8092C16.2545 21.8092 16.9374 25.3206 19.7959 28.179C22.6543 31.0374 26.154 31.7086 26.154 31.7086L30.8669 29.3522C31.4576 29.0568 32.156 29.0721 32.7332 29.393L37.1525 31.85C37.7871 32.2028 38.1807 32.8719 38.1807 33.598L38.1807 38.6715C38.1807 41.2552 35.7808 43.1213 33.3327 42.2952C28.3048 40.5987 20.5001 37.3685 15.5532 32.4216C10.6064 27.4748 7.37619 19.6701 5.67965 14.6422C4.85363 12.1941 6.71972 9.79423 9.30336 9.79423L14.376 9.79423Z" stroke="black" stroke-width="4" stroke-linejoin="round"/>
</svg>
