<svg width="48" height="48" viewBox="0 0 48 48" fill="none" xmlns="http://www.w3.org/2000/svg">
<g clip-path="url(#clip0_27_132506)">
<path d="M24 44C35.0457 44 44 35.0457 44 24C44 12.9543 35.0457 4 24 4C12.9543 4 4 12.9543 4 24C4 35.0457 12.9543 44 24 44Z" stroke="black" stroke-width="4" stroke-linejoin="round"/>
<path d="M17 25.8995C18.1046 25.8995 19 25.0041 19 23.8995C19 22.795 18.1046 21.8995 17 21.8995C15.8954 21.8995 15 22.795 15 23.8995C15 25.0041 15.8954 25.8995 17 25.8995Z" fill="black"/>
<path d="M21.9502 28.8492C23.2169 27.5825 24.0004 25.8325 24.0004 23.8995C24.0004 21.9665 23.2169 20.2165 21.9502 18.9497" stroke="black" stroke-width="4" stroke-linecap="round" stroke-linejoin="round"/>
<path d="M26.8994 33.799C29.4329 31.2655 30.9999 27.7655 30.9999 23.8995C30.9999 20.0335 29.4329 16.5335 26.8994 14" stroke="black" stroke-width="4" stroke-linecap="round" stroke-linejoin="round"/>
</g>
<defs>
<clipPath id="clip0_27_132506">
<rect width="48" height="48" fill="white"/>
</clipPath>
</defs>
</svg>
