<svg width="48" height="48" viewBox="0 0 48 48" fill="none" xmlns="http://www.w3.org/2000/svg">
<g clip-path="url(#clip0_27_131689)">
<rect x="6.00049" y="6" width="36" height="36" rx="3" stroke="black" stroke-width="4"/>
<path d="M23.293 10.565L20.0504 13.8077C19.4204 14.4376 19.8666 15.5148 20.7575 15.5148H27.2428C28.1337 15.5148 28.5798 14.4376 27.9499 13.8077L24.7072 10.565C24.3167 10.1745 23.6835 10.1745 23.293 10.565Z" fill="black"/>
<path d="M10.5649 24.7071L13.8075 27.9498C14.4375 28.5797 15.5146 28.1336 15.5146 27.2426V20.7574C15.5146 19.8665 14.4375 19.4203 13.8075 20.0503L10.5649 23.2929C10.1744 23.6834 10.1744 24.3166 10.5649 24.7071Z" fill="black"/>
<path d="M24.707 37.435L27.9496 34.1923C28.5796 33.5624 28.1334 32.4852 27.2425 32.4852H20.7572C19.8663 32.4852 19.4202 33.5624 20.0501 34.1923L23.2928 37.435C23.6833 37.8255 24.3165 37.8255 24.707 37.435Z" fill="black"/>
<path d="M37.4351 23.2929L34.1925 20.0502C33.5625 19.4203 32.4854 19.8664 32.4854 20.7574V27.2426C32.4854 28.1335 33.5625 28.5797 34.1925 27.9497L37.4351 24.7071C37.8256 24.3166 37.8256 23.6834 37.4351 23.2929Z" fill="black"/>
</g>
<defs>
<clipPath id="clip0_27_131689">
<rect width="48" height="48" fill="white"/>
</clipPath>
</defs>
</svg>
