<svg width="48" height="48" viewBox="0 0 48 48" fill="none" xmlns="http://www.w3.org/2000/svg">
<path d="M14.3409 21.4118L24.0002 24L33.6594 26.5882L43.3187 29.1763C45.6567 20.4505 41.8476 11.5257 34.5459 7C32.9196 5.99199 31.12 5.2022 29.1765 4.68144C26.9383 4.08171 24.6869 3.88643 22.5001 4.05083C14.2628 4.67006 6.94074 10.3925 4.68164 18.8236L14.3409 21.4118Z" stroke="black" stroke-width="4" stroke-linecap="round" stroke-linejoin="round"/>
<path d="M29.1762 4.6814C29.1762 4.6814 23.5355 8.34634 20.3095 12.6583C17.0836 16.9703 16.2725 21.9294 16.2725 21.9294" stroke="black" stroke-width="4" stroke-linecap="round" stroke-linejoin="round"/>
<path d="M29.1763 4.6814C29.1763 4.6814 32.2288 10.6757 32.8666 16.023C33.5044 21.3702 31.7273 26.0705 31.7273 26.0705" stroke="black" stroke-width="4" stroke-linecap="round" stroke-linejoin="round"/>
<path d="M4.68164 18.8236L14.3409 21.4118L24.0002 24L33.6594 26.5882L43.3187 29.1764" stroke="black" stroke-width="4" stroke-linecap="round" stroke-linejoin="round"/>
<path d="M4 44H44" stroke="black" stroke-width="4" stroke-linecap="round" stroke-linejoin="round"/>
<path d="M24 24L18.5 43.9999" stroke="black" stroke-width="4" stroke-linecap="round" stroke-linejoin="round"/>
<path d="M22.5 4.05083C24.6868 3.88643 26.9382 4.08171 29.1764 4.68144C31.1199 5.2022 32.9195 5.99199 34.5458 7" stroke="black" stroke-width="4" stroke-linecap="round" stroke-linejoin="round"/>
</svg>
