<svg width="48" height="48" viewBox="0 0 48 48" fill="none" xmlns="http://www.w3.org/2000/svg">
<path fill-rule="evenodd" clip-rule="evenodd" d="M24 43.5998C32.432 43.5998 39.5606 36.9189 41.8935 29.2495C42.4179 27.5252 46 27.5252 46 23.7998C46 20.0743 42.3839 19.8599 41.7987 18.0478C39.3724 10.5344 32.3209 3.99976 24 3.99976C15.6745 3.99976 8.61973 10.5405 6.19725 18.0604C5.61467 19.8688 2 20.0089 2 23.7998C2 27.5906 5.59225 27.5906 6.1349 29.3418C8.4967 36.9637 15.6018 43.5998 24 43.5998Z" stroke="black" stroke-width="4"/>
<path d="M41.7987 18.0478C39.3724 10.5344 32.3209 3.99976 24 3.99976" stroke="black" stroke-width="4" stroke-linecap="round"/>
<path d="M19.1 21.5996C19.1 22.4259 18.8758 23.1514 18.5396 23.6557C18.201 24.1635 17.7883 24.3996 17.4 24.3996C17.0116 24.3996 16.5989 24.1635 16.2603 23.6557C15.9241 23.1514 15.7 22.4259 15.7 21.5996C15.7 20.7732 15.9241 20.0478 16.2603 19.5435C16.5989 19.0357 17.0116 18.7996 17.4 18.7996C17.7883 18.7996 18.201 19.0357 18.5396 19.5435C18.8758 20.0478 19.1 20.7732 19.1 21.5996Z" fill="black" stroke="black"/>
<path d="M32.3001 21.5996C32.3001 22.4259 32.076 23.1514 31.7398 23.6557C31.4012 24.1635 30.9885 24.3996 30.6001 24.3996C30.2118 24.3996 29.7991 24.1635 29.4605 23.6557C29.1243 23.1514 28.9001 22.4259 28.9001 21.5996C28.9001 20.7732 29.1243 20.0478 29.4605 19.5435C29.7991 19.0357 30.2118 18.7996 30.6001 18.7996C30.9885 18.7996 31.4012 19.0357 31.7398 19.5435C32.076 20.0478 32.3001 20.7732 32.3001 21.5996Z" fill="black" stroke="black"/>
<path fill-rule="evenodd" clip-rule="evenodd" d="M18.4978 31.7502C20.4287 33.0499 22.2658 33.6997 24.0092 33.6997C25.7507 33.6997 27.4773 33.0513 29.1892 31.7544" fill="black"/>
<path d="M18.4978 31.7502C20.4287 33.0499 22.2658 33.6997 24.0092 33.6997C25.7507 33.6997 27.4773 33.0513 29.1892 31.7544" stroke="black" stroke-width="4" stroke-linecap="round"/>
<path d="M31.7283 6.19995C31.9964 8.13343 31.4067 9.54627 29.9593 10.4385C28.5119 11.3306 26.1602 11.7487 22.9043 11.6927" stroke="black" stroke-width="4" stroke-linecap="round"/>
</svg>
