<svg width="48" height="48" viewBox="0 0 48 48" fill="none" xmlns="http://www.w3.org/2000/svg">
<path d="M6 6V42H42" stroke="black" stroke-width="4" stroke-linecap="round" stroke-linejoin="round"/>
<path fill-rule="evenodd" clip-rule="evenodd" d="M19.9999 24C22.209 24 23.9999 22.2091 23.9999 20C23.9999 17.7909 22.209 16 19.9999 16C17.7907 16 15.9999 17.7909 15.9999 20C15.9999 22.2091 17.7907 24 19.9999 24Z" fill="black"/>
<path fill-rule="evenodd" clip-rule="evenodd" d="M36.9999 16C39.7613 16 41.9999 13.7614 41.9999 11C41.9999 8.23858 39.7613 6 36.9999 6C34.2384 6 31.9999 8.23858 31.9999 11C31.9999 13.7614 34.2384 16 36.9999 16Z" fill="black"/>
<path fill-rule="evenodd" clip-rule="evenodd" d="M14.9999 36C16.6567 36 17.9999 34.6569 17.9999 33C17.9999 31.3431 16.6567 30 14.9999 30C13.343 30 11.9999 31.3431 11.9999 33C11.9999 34.6569 13.343 36 14.9999 36Z" fill="black"/>
<path fill-rule="evenodd" clip-rule="evenodd" d="M32.9999 32C34.6567 32 35.9999 30.6569 35.9999 29C35.9999 27.3431 34.6567 26 32.9999 26C31.343 26 29.9999 27.3431 29.9999 29C29.9999 30.6569 31.343 32 32.9999 32Z" fill="black"/>
</svg>
