<svg width="48" height="48" viewBox="0 0 48 48" fill="none" xmlns="http://www.w3.org/2000/svg">
<path d="M43.7756 20.994C42.4735 12.3557 35.6463 5.52795 27.0084 4.22485M20.9757 4.22726C11.3651 5.68503 4 13.9825 4 24.0001C4 34.0214 11.3705 42.3212 20.9863 43.7745C21.9692 43.9231 22.9756 44.0001 24 44.0001C25.0209 44.0001 26.024 43.9236 27.0038 43.776C35.6458 42.4743 42.4762 35.643 43.7764 27.0005" stroke="black" stroke-width="4" stroke-linecap="round" stroke-linejoin="round"/>
<path d="M24 16C19.5817 16 16 19.5817 16 24C16 28.4183 19.5817 32 24 32C28.4183 32 32 28.4183 32 24C32 19.5817 28.4183 16 24 16Z" stroke="black" stroke-width="4" stroke-linejoin="round"/>
</svg>
