<svg width="48" height="48" viewBox="0 0 48 48" fill="none" xmlns="http://www.w3.org/2000/svg">
<path d="M42 4H5.99966C4.89507 4 3.99963 4.89546 3.99966 6.00005L4.00064 42.0001C4.00067 43.1046 4.8961 44 6.00065 44H42C43.1046 44 44 43.1046 44 42V6C44 4.89543 43.1046 4 42 4Z" stroke="black" stroke-width="4"/>
<path d="M20.0088 34.0083H33.5005V20.0083" stroke="black" stroke-width="4" stroke-linecap="round" stroke-linejoin="round"/>
<path d="M24.5 38.5L23 37L20 34L23 31L24.5 29.5" stroke="black" stroke-width="4" stroke-linecap="round" stroke-linejoin="round"/>
<path d="M29 24.5L30.5 23L33.5 20L36.5 23L38 24.5" stroke="black" stroke-width="4" stroke-linecap="round" stroke-linejoin="round"/>
<path d="M14 4L14 44" stroke="black" stroke-width="4" stroke-linecap="round"/>
<path d="M4 14.0378L44 14" stroke="black" stroke-width="4" stroke-linecap="round"/>
<path d="M8 4H28" stroke="black" stroke-width="4" stroke-linecap="round" stroke-linejoin="round"/>
<path d="M7.9996 44H27.9996" stroke="black" stroke-width="4" stroke-linecap="round" stroke-linejoin="round"/>
<path d="M43.9996 8V18" stroke="black" stroke-width="4" stroke-linecap="round"/>
<path d="M3.9996 8L3.9996 18" stroke="black" stroke-width="4" stroke-linecap="round"/>
</svg>
