<svg width="48" height="48" viewBox="0 0 48 48" fill="none" xmlns="http://www.w3.org/2000/svg">
<g clip-path="url(#clip0_27_131387)">
<path d="M13 12C13 14.2091 14.7908 16 17 16C19.2091 16 21 14.2091 21 12C21 9.79086 19.2091 8 17 8C14.7908 8 13 9.79086 13 12Z" stroke="black" stroke-width="4" stroke-linejoin="round"/>
<path d="M31 24C31 26.2091 32.7908 28 35 28C37.2091 28 39 26.2091 39 24C39 21.7909 37.2091 20 35 20C32.7908 20 31 21.7909 31 24Z" stroke="black" stroke-width="4" stroke-linejoin="round"/>
<path d="M13 36C13 38.2091 14.7908 40 17 40C19.2091 40 21 38.2091 21 36C21 33.7909 19.2091 32 17 32C14.7908 32 13 33.7909 13 36Z" stroke="black" stroke-width="4" stroke-linejoin="round"/>
<path d="M3.99998 36H13" stroke="black" stroke-width="4" stroke-linecap="round"/>
<path d="M21 36H44" stroke="black" stroke-width="4" stroke-linecap="round"/>
<path d="M3.99998 12H13" stroke="black" stroke-width="4" stroke-linecap="round"/>
<path d="M21 12H44" stroke="black" stroke-width="4" stroke-linecap="round"/>
<path d="M3.99998 4V44" stroke="black" stroke-width="4" stroke-linecap="round" stroke-linejoin="round"/>
<path d="M3.99998 24H31" stroke="black" stroke-width="4" stroke-linecap="round"/>
<path d="M39 24H44" stroke="black" stroke-width="4" stroke-linecap="round"/>
</g>
<defs>
<clipPath id="clip0_27_131387">
<rect width="48" height="48" fill="white"/>
</clipPath>
</defs>
</svg>
