<svg width="48" height="48" viewBox="0 0 48 48" fill="none" xmlns="http://www.w3.org/2000/svg">
<path d="M28 44.0001C21.9325 41.1902 13.8691 37.6813 9.9478 28.8071C7.29614 22.8061 7.40591 15.5985 9.9478 10.8044C12.5995 5.80317 16.577 4.00008 19.6706 4.00008C21.6339 4.00008 26.801 4.00008 30.3148 4.00008C32.2481 4.00008 33.8128 5.56735 33.8128 7.50068V7.50068C33.8128 9.434 32.2455 11.0013 30.3122 11.0013H27.6256H32.9639C34.8972 11.0013 36.4644 12.5685 36.4644 14.5019V14.5019C36.4644 16.4352 34.8972 18.0025 32.9639 18.0025H28.5095H36.4994C38.4327 18.0025 40 19.5697 40 21.5031V21.5031C40 23.4364 38.4327 25.0036 36.4994 25.0036H30.2772H34.7316C36.665 25.0036 38.2322 26.5709 38.2322 28.5042V28.5042C38.2322 30.4376 36.665 32.0048 34.7316 32.0048H27.6256C27.6256 32.0048 29.3933 34.8081 30.2772 37.3091C31.3283 40.2832 30.6324 45.2192 28 44.0001Z" stroke="black" stroke-width="4" stroke-linecap="round" stroke-linejoin="round"/>
</svg>
