<svg width="48" height="48" viewBox="0 0 48 48" fill="none" xmlns="http://www.w3.org/2000/svg">
<path d="M35.0003 26.614L15.1465 7.31406C13.9871 6.18697 12.1335 6.21318 11.0064 7.37261C10.9655 7.41469 10.9259 7.458 10.8876 7.50246C9.74461 8.82917 9.82304 10.8141 11.0671 12.0464L21.0912 21.9764" stroke="black" stroke-width="4" stroke-linecap="round"/>
<path d="M21.0914 21.9763L10.1778 11.1549C8.88401 9.87206 6.82059 9.80187 5.44262 10.9938C4.17603 12.0894 4.03743 14.0044 5.13304 15.271C5.17459 15.319 5.21764 15.3657 5.26212 15.4111L16.2558 26.6139" stroke="black" stroke-width="4" stroke-linecap="round" stroke-linejoin="round"/>
<path d="M16.2556 26.6139L10.0002 20.5002C8.73791 19.2105 6.67342 19.1746 5.36706 20.4198C4.07469 21.6516 4.02562 23.6979 5.25745 24.9903C5.26312 24.9962 5.26882 25.0021 5.27454 25.0081C14.5041 34.5445 19.2943 39.0487 21.0912 40.5536C24.0003 42.9899 29.7353 44.0002 32.7307 42.0002C35.7262 40.0002 38.4336 37.1546 39.7186 34.3289C40.4836 32.6467 41.9694 27.4597 44.1761 18.7681C44.6253 16.9988 43.5552 15.2004 41.7859 14.7511C41.7629 14.7453 41.74 14.7398 41.7169 14.7344C39.8837 14.3107 38.0434 15.4118 37.5501 17.2275L35.0003 26.6139" stroke="black" stroke-width="4" stroke-linecap="round"/>
<path d="M31.7161 12.6661C31.0042 11.6027 30.1905 10.6132 29.2889 9.71162C28.3873 8.81002 27.3978 7.99631 26.3344 7.28442C25.8053 6.93021 25.2579 6.60121 24.6939 6.29913C24.1332 5.99882 23.5561 5.72513 22.9644 5.47974" stroke="black" stroke-width="4" stroke-linecap="round"/>
<path d="M5.19446 33.7764C5.84972 34.8756 6.61054 35.9063 7.46371 36.8538C8.31688 37.8013 9.26241 38.6657 10.2871 39.4323C10.7969 39.8137 11.3264 40.1709 11.8738 40.5021C12.418 40.8313 12.98 41.1349 13.5581 41.4109" stroke="black" stroke-width="4" stroke-linecap="round"/>
</svg>
