<svg width="48" height="48" viewBox="0 0 48 48" fill="none" xmlns="http://www.w3.org/2000/svg">
<path d="M4.00007 19.5C7.00049 26 10.1277 35.5636 19.0004 40C25.0004 43 32.2067 42.8758 37.0001 40C42.0004 37 44.0001 32.5 44.0001 29C44.0001 26.6917 44.0001 20.4686 44.0001 16.4985C44.0001 14.5655 42.4331 13 40.5001 13V13C38.5671 13 37.0001 14.567 37.0001 16.5V20V13.5C37.0001 11.567 35.4331 10 33.5001 10V10C31.5671 10 30.0001 11.567 30.0001 13.5V19V9.5C30.0001 7.567 28.4331 6 26.5001 6V6C24.5671 6 23.0001 7.567 23.0001 9.5V17V11.5C23.0001 9.567 21.4331 8 19.5001 8V8C17.5671 8 16.0001 9.567 16.0001 11.5V20C16.0001 20 13.0004 18 10.4998 17C7.52621 15.8109 2.6504 16.5761 4.00007 19.5Z" stroke="black" stroke-width="4" stroke-linecap="round" stroke-linejoin="round"/>
</svg>
