<svg width="48" height="48" viewBox="0 0 48 48" fill="none" xmlns="http://www.w3.org/2000/svg">
<path d="M5.00063 26C8.00129 31 13.5 38.25 19 41C24.5 43.75 30.4999 44 36 41C39.0179 39.3539 41.1327 37.1056 42.4268 35.4116C43.5785 33.9039 44.0004 32.0123 44.0004 30.115V13.5C44.0004 11.567 42.4334 10 40.5004 10V10C38.5674 10 37.0004 11.567 37.0004 13.5V24V18.5C37.0004 16.567 35.4334 15 33.5004 15V15C31.5674 15 30.0004 16.567 30.0004 18.5V23V17C30.0004 15.067 28.4334 13.5 26.5004 13.5V13.5C24.5674 13.5 23.0004 15.067 23.0004 17V21V7.50001C23.0004 5.56701 21.4334 4 19.5004 4V4C17.5674 4 16.0004 5.56701 16.0004 7.50001V24C16.0004 24 15.6876 23.6875 12.0004 20C8.3132 16.3125 1.99996 21 5.00063 26Z" stroke="black" stroke-width="4" stroke-linecap="round" stroke-linejoin="round"/>
</svg>
