<svg width="48" height="48" viewBox="0 0 48 48" fill="none" xmlns="http://www.w3.org/2000/svg">
<path d="M17 42C23 44 27.5203 44.0026 33 41C35.3574 39.7083 37.4919 37.2049 38.962 35.1657C40.4077 33.1603 41 30.7041 41 28.2319V7.49999C41 5.567 39.433 4 37.5 4V4C35.567 4 34 5.567 34 7.49999V24V15C34 13.067 32.433 11.5 30.5 11.5V11.5C28.567 11.5 27 13.067 27 15V23V12.5C27 10.567 25.433 9 23.5 9V9C21.567 9 20 10.567 20 12.5V21.5V15C20 13.067 18.433 11.5 16.5 11.5V11.5C14.567 11.5 13 13.067 13 15V22.5023C13 22.7966 12.8074 23.055 12.5286 23.1494C11.1135 23.6282 7 25.2562 7 28C7 33 10.9236 39.9745 17 42Z" stroke="black" stroke-width="4" stroke-linecap="round" stroke-linejoin="round"/>
</svg>
