<svg width="48" height="48" viewBox="0 0 48 48" fill="none" xmlns="http://www.w3.org/2000/svg">
<g clip-path="url(#clip0_27_130789)">
<path d="M9.4385 42.0001L12.6231 42.0001C13.452 42.0001 14.1951 41.4887 14.4911 40.7144L16.6914 34.9607L16.716 29.4352C16.7166 29.3185 16.7273 29.2022 16.7481 29.0875L20.1524 10.3C20.3748 9.07262 19.4318 7.94336 18.1845 7.94336L10.8629 7.94335C9.73662 7.94335 8.83247 8.87286 8.86363 9.99868L9.38589 28.8701L7.61514 32.1998C7.22293 32.9373 7.33036 33.8409 7.88455 34.4658L8.44639 35.0994L7.48318 39.5797C7.21544 40.8251 8.16466 42.0001 9.4385 42.0001Z" stroke="black" stroke-width="4" stroke-linecap="round" stroke-linejoin="round"/>
<path d="M16.7168 29.2598L9.38587 28.87" stroke="black" stroke-width="4" stroke-linecap="round" stroke-linejoin="round"/>
<path d="M38.5779 42.0001L35.3978 42.0001C34.5581 42.0001 33.8077 41.4755 33.5194 40.6867L31.4262 34.9608L31.4015 29.4352C31.401 29.3186 31.3903 29.2023 31.3695 29.0875L27.9649 10.3C27.7425 9.07263 28.6855 7.94336 29.9329 7.94336L37.2548 7.94341C38.381 7.94342 39.2852 8.87293 39.254 9.99873L38.7319 28.8703L40.5027 32.1999C40.8949 32.9374 40.7875 33.841 40.2333 34.466L39.6714 35.0996L40.5418 39.6221C40.7792 40.8556 39.8341 42.0001 38.5779 42.0001Z" stroke="black" stroke-width="4" stroke-linecap="round" stroke-linejoin="round"/>
<path d="M31.4004 29.26L38.7315 28.8703" stroke="black" stroke-width="4" stroke-linecap="round" stroke-linejoin="round"/>
</g>
<defs>
<clipPath id="clip0_27_130789">
<rect width="48" height="48" fill="white"/>
</clipPath>
</defs>
</svg>
