<svg width="48" height="48" viewBox="0 0 48 48" fill="none" xmlns="http://www.w3.org/2000/svg">
<path d="M18 42C21.5 43.5 28.1693 44.1747 34 41C38.13 38.7513 42 34 42 30C42 27.3285 42 20.6426 42 16.4961C42 14.5631 40.433 13 38.5 13V13C36.567 13 35 14.567 35 16.5V20L35 12C35 10.067 33.433 8.5 31.5 8.5V8.5C29.567 8.5 28 10.067 28 12V19V9.49999C28 7.567 26.433 6 24.5 6V6C22.567 6 21 7.567 21 9.49999V17.5V12C21 10.067 19.433 8.5 17.5 8.5V8.5C15.567 8.5 14 10.067 14 12V19.4878C14 19.7888 13.7979 20.0517 13.51 20.1396C11.7711 20.6707 6 22.7533 6 27C6 35.5 14.5 40.5 18 42Z" stroke="black" stroke-width="4" stroke-linecap="round" stroke-linejoin="round"/>
</svg>
