<svg width="48" height="48" viewBox="0 0 48 48" fill="none" xmlns="http://www.w3.org/2000/svg">
<path d="M26 20.9998C23.9999 20.4998 21.2465 19.362 17.1704 22.0922C14.1394 24.1224 12.8646 27.2397 12.4346 29.5299C12.2303 30.6185 13.1547 31.4965 14.2547 31.3662C15.0506 31.2718 15.9341 31.1248 16.6025 30.8987C18.5728 30.2322 18.3142 28.9684 19.3194 27.446C20.3245 25.9235 22.8521 25.4063 24.9318 26.5608C27.0114 27.7153 27.678 29.6856 27.23 31.3574C26.7821 33.0291 25.7769 34.5515 23.2493 35.0687C20.7218 35.586 19.9059 34.1729 17.269 32.8691C15.8949 32.1896 14.1027 33.0707 13.0201 33.7676C12.4071 34.1622 12.1531 34.9074 12.4103 35.5894C12.585 36.0526 12.8254 36.5945 13.139 37.1377C13.9548 38.5508 17.5169 43.0887 22.1241 43.726C26.7314 44.3632 31.5279 42.065 34.2449 38.6122C36.9618 35.1595 37.0418 30.4029 35.1515 26.3129" stroke="black" stroke-width="4" stroke-linecap="round" stroke-linejoin="round"/>
<path d="M35.046 26.4196L32.0005 13.9998L22.7078 4.70696C22.3173 4.31641 21.6881 4.32296 21.3732 4.77675C20.6205 5.86161 19.6217 7.93069 21.0008 9.99978C21.488 10.7308 25.0015 14.9998 25.0015 14.9998C25.0015 14.9998 27.0977 27.574 27.4734 29.5669" stroke="black" stroke-width="4" stroke-linecap="round" stroke-linejoin="round"/>
</svg>
