<svg width="48" height="48" viewBox="0 0 48 48" fill="none" xmlns="http://www.w3.org/2000/svg">
<path d="M28.5063 4.19696C21.9995 7.00009 12.4427 10.3246 8.00635 19.1973C5.00635 25.1973 5.13054 32.4036 8.00635 37.197C11.0063 42.1973 15.5063 44.0001 19.0063 44.0001C21.3147 44.0001 27.5378 44.0001 31.5078 44.0001C33.4408 44.0001 35.0063 42.4331 35.0063 40.5001V40.5001C35.0063 38.5671 33.4393 37.0001 31.5063 37.0001H28.0063H34.5063C36.4393 37.0001 38.0063 35.4331 38.0063 33.5001V33.5001C38.0063 31.5671 36.4393 30.0001 34.5063 30.0001H29.0063H38.5063C40.4393 30.0001 42.0063 28.4331 42.0063 26.5001V26.5001C42.0063 24.5671 40.4393 23.0001 38.5063 23.0001H31.0063H36.5063C38.4393 23.0001 40.0063 21.4331 40.0063 19.5001V19.5001C40.0063 17.5671 38.4393 16.0001 36.5063 16.0001H28.0063C28.0063 16.0001 30.0063 13.1973 31.0063 10.6967C32.1955 7.7231 31.4639 2.92285 28.5063 4.19696Z" stroke="black" stroke-width="4" stroke-linecap="round" stroke-linejoin="round"/>
</svg>
