<svg width="48" height="48" viewBox="0 0 48 48" fill="none" xmlns="http://www.w3.org/2000/svg">
<path d="M7.05322 10.0002L29.0532 10.0002V4.00024L7.05322 4.00024V10.0002Z" stroke="black" stroke-width="4" stroke-linejoin="round"/>
<path fill-rule="evenodd" clip-rule="evenodd" d="M29.0531 10.0002C35.5721 17.1232 39.3127 21.2511 40.2749 22.384C41.7183 24.0835 41.1122 26.0042 37.5001 26.0042C33.8879 26.0042 31.8047 20.7188 29.0531 20.7188C29.0367 20.7154 29.0356 27.4745 29.0498 40.9962C29.0515 42.6535 27.7094 43.9985 26.0521 44.0002L26.0489 44.0002C24.3898 44.0002 23.0447 42.6552 23.0447 40.9961V32.9866C15.072 31.7778 10.7374 31.1109 10.0411 30.9859C8.99656 30.7983 7.05308 29.8013 7.05308 26.9322C7.05308 25.0195 7.05308 20.0422 7.05308 10.0002L29.0531 10.0002Z" stroke="black" stroke-width="4" stroke-linejoin="round"/>
</svg>
