<svg width="48" height="48" viewBox="0 0 48 48" fill="none" xmlns="http://www.w3.org/2000/svg">
<path d="M41 38.0002H19V44.0002H41V38.0002Z" stroke="black" stroke-width="4" stroke-linejoin="round"/>
<path fill-rule="evenodd" clip-rule="evenodd" d="M19.0001 38.0002C12.4812 30.8773 8.74054 26.7494 7.77829 25.6165C6.33491 23.917 6.941 21.9963 10.5532 21.9963C14.1653 21.9963 16.2485 27.2817 19.0001 27.2817C19.0165 27.2851 19.0176 20.5259 19.0034 7.00428C19.0017 5.34694 20.3438 4.00199 22.0012 4.00025L22.0043 4.00024C23.6635 4.00024 25.0085 5.34526 25.0085 7.00441V15.0138C32.9813 16.2227 37.3158 16.8896 38.0122 17.0146C39.0567 17.2022 41.0001 18.1992 41.0001 21.0683C41.0001 22.981 41.0001 27.9583 41.0001 38.0002H19.0001Z" stroke="black" stroke-width="4" stroke-linejoin="round"/>
</svg>
