<svg width="48" height="48" viewBox="0 0 48 48" fill="none" xmlns="http://www.w3.org/2000/svg">
<path d="M9.58303 27.1826C7.86719 28.3544 7.00928 30.2937 7.00928 33.0004C7.00928 37.0605 12.0001 44.0004 16.5006 44.0004C21.001 44.0004 23.6111 44.0004 28.016 44.0004C32.421 44.0004 35.0965 40.1497 35.0965 37.0605C35.0965 32.9071 35.0965 28.7538 35.0965 24.6005C35.0965 22.8074 33.6456 21.3524 31.8525 21.3474C30.0659 21.3424 28.6135 22.7867 28.6085 24.5733C28.6085 24.5764 28.6085 24.5794 28.6085 24.5824V24.6838" stroke="black" stroke-width="4" stroke-linecap="round"/>
<path d="M10.9814 29.4456V7.6627C10.9814 5.88592 12.4218 4.44556 14.1986 4.44556C15.9754 4.44556 17.4157 5.88592 17.4157 7.6627V23.6482" stroke="black" stroke-width="4" stroke-linecap="round"/>
<path d="M17.4155 24.0004V19.8079C17.4155 18.2591 18.671 17.0037 20.2197 17.0037C21.7684 17.0037 23.0239 18.2591 23.0239 19.8079V24.4274" stroke="black" stroke-width="4" stroke-linecap="round" stroke-linejoin="round"/>
<path d="M23 24.6585V21.8079C23 20.2591 24.2555 19.0037 25.8042 19.0037C27.3529 19.0037 28.6084 20.2591 28.6084 21.8079V25.0037" stroke="black" stroke-width="4" stroke-linecap="round" stroke-linejoin="round"/>
<path d="M11 8.00024H41" stroke="black" stroke-width="4" stroke-linecap="round"/>
<path d="M36 12.5002L37.6667 11.0002L41 8.00024L37.6667 5.00024L36 3.50024" stroke="black" stroke-width="4" stroke-linecap="round" stroke-linejoin="round"/>
</svg>
