<svg width="48" height="48" viewBox="0 0 48 48" fill="none" xmlns="http://www.w3.org/2000/svg">
<path d="M44 40.9998V18.9998H38V40.9998H44Z" stroke="black" stroke-width="4" stroke-linejoin="round"/>
<path fill-rule="evenodd" clip-rule="evenodd" d="M38 18.9999C30.8948 12.4301 26.7757 8.66335 25.6428 7.69959C23.9433 6.25395 22.0226 6.86099 22.0226 10.4788C22.0226 14.0966 27.2864 16.244 27.2864 18.9999C27.2898 19.0164 20.529 19.0174 7.00404 19.0032C5.3467 19.0015 4.00175 20.3436 4 22.0009C4 22.002 4 22.003 4 22.0041C4 23.6633 5.34501 25.0083 7.00417 25.0083H14.0165C15.2234 32.9768 15.8893 37.3098 16.0144 38.0073C16.2019 39.0534 17.199 40.9999 20.068 40.9999C21.9807 40.9999 27.9581 40.9999 38 40.9999V18.9999Z" stroke="black" stroke-width="4" stroke-linejoin="round"/>
</svg>
