<svg width="48" height="48" viewBox="0 0 48 48" fill="none" xmlns="http://www.w3.org/2000/svg">
<path d="M10.0264 40.9736L10.0264 18.9736H4.02637L4.02637 40.9736H10.0264Z" stroke="black" stroke-width="4" stroke-linejoin="round"/>
<path fill-rule="evenodd" clip-rule="evenodd" d="M10.0264 18.9735C17.1493 12.4546 21.2772 8.71393 22.4102 7.75168C24.1096 6.3083 26.0304 6.91438 26.0304 10.5265C26.0304 14.1387 20.7449 16.2219 20.7449 18.9735C20.7415 18.9899 27.5007 18.991 41.0223 18.9768C42.6797 18.9751 44.0246 20.3172 44.0264 21.9745L44.0264 21.9777C44.0264 23.6369 42.6814 24.9819 41.0222 24.9819H33.0128C31.8039 32.9546 31.137 37.2892 31.012 37.9855C30.8244 39.0301 29.8274 40.9735 26.9583 40.9735C25.0456 40.9735 20.0683 40.9735 10.0264 40.9735V18.9735Z" stroke="black" stroke-width="4" stroke-linejoin="round"/>
</svg>
