<svg width="48" height="48" viewBox="0 0 48 48" fill="none" xmlns="http://www.w3.org/2000/svg">
<path d="M12.5658 26.1827C10.8553 27.3545 10 29.2937 10 32.0004C10 36.0605 14.9753 43.0004 19.4618 43.0004C23.9483 43.0004 26.5502 43.0004 30.9415 43.0004C35.3328 43.0004 38 39.1498 38 36.0605C38 31.7102 38 27.3599 38 23.0095C38 21.3527 36.6569 20.0095 35 20.0095H34.9909C33.3391 20.0095 32 21.3486 32 23.0004" stroke="black" stroke-width="4" stroke-linecap="round"/>
<path d="M13.981 28.4454V8.00611C13.981 6.3506 15.323 5.00854 16.9785 5.00854C16.9813 5.00854 16.9841 5.00855 16.9868 5.00856C18.6482 5.01315 19.9927 6.3613 19.9927 8.02274V23.5922" stroke="black" stroke-width="4" stroke-linecap="round"/>
<path d="M19.9927 23.0086V19.0157C19.9927 17.3503 21.3428 16.0002 23.0082 16.0002C24.6736 16.0002 26.0236 17.3503 26.0236 19.0157V23.0086" stroke="black" stroke-width="4" stroke-linecap="round" stroke-linejoin="round"/>
<path d="M26 22.716V20.0037C26 18.3468 27.3431 17.0037 29 17.0037C30.6569 17.0037 32 18.3468 32 20.0037V23.0037" stroke="black" stroke-width="4" stroke-linecap="round" stroke-linejoin="round"/>
</svg>
