<svg width="48" height="48" viewBox="0 0 48 48" fill="none" xmlns="http://www.w3.org/2000/svg">
<path d="M20.9951 36.0002L19.0937 31.991L24.2032 31.5731C26.2913 31.5731 27.984 29.8797 27.984 27.7908C27.984 25.7019 26.2913 24.0086 24.2032 24.0086C20.4565 24.0086 17.7211 24.0086 15.9972 24.0086C12.6087 24.0086 9 27.5842 9 31.0424C9 34.5005 9.78742 36.4811 10.6467 38.339C11.506 40.1968 13.7968 44.0002 20.0016 44.0002C23.986 44.0002 23.4272 44.0002 28.9545 44.0002C34.2029 44.0002 38 39.1457 37.987 33.0002C37.9789 29.1698 37.9814 23.5032 37.9944 16.0002C37.9973 14.3484 36.6606 13.0071 35.0088 13.0042L35.0036 13.0042C33.3521 13.0042 32.0134 14.343 32.0134 15.9944C32.0134 15.9965 32.0134 15.9985 32.0134 16.0005C32.0238 21.1412 32.029 24.1581 32.029 25.0512C32.029 27.945 30.6885 28.9424 28.0074 28.0433M25.9546 24.0002L25.9945 7.00023C25.9984 5.34727 24.6616 4.00414 23.0086 4.00025C23.0063 4.00025 23.0039 4.00024 23.0016 4.00024C21.3447 4.00024 20.0016 5.34339 20.0016 7.00024V23.0403" stroke="black" stroke-width="4" stroke-linecap="round" stroke-linejoin="round"/>
<path d="M14.0059 24.0005V10.0005C14.0059 8.34592 15.3471 7.00464 17.0017 7.00464C17.0031 7.00464 17.0045 7.00464 17.0059 7.00464C18.6634 7.00695 20.0059 8.35129 20.0059 10.0088V24.0005" stroke="black" stroke-width="4" stroke-linecap="round" stroke-linejoin="round"/>
<path d="M26.0073 20.0198V19.0198C26.0073 17.3629 27.3505 16.0198 29.0073 16.0198C30.6642 16.0198 32.0073 17.3629 32.0073 19.0198V20.0198" stroke="black" stroke-width="4" stroke-linecap="round" stroke-linejoin="round"/>
</svg>
