<svg width="48" height="48" viewBox="0 0 48 48" fill="none" xmlns="http://www.w3.org/2000/svg">
<path d="M14.9718 26.9748C11.6511 27.5665 9.99072 29.575 9.99072 33.0004C9.99072 38.1386 15.1438 44.0004 19.7905 44.0004C24.4372 44.0004 27.1321 44.0004 31.6802 44.0004C36.2283 44.0004 38.9907 40.1498 38.9907 37.0605C38.9907 32.7102 38.9907 28.3599 38.9907 24.0095C38.9907 22.3527 37.6476 21.0095 35.9907 21.0095H35.9816C34.3298 21.0095 32.9907 22.3486 32.9907 24.0004" stroke="black" stroke-width="4" stroke-linecap="round"/>
<path d="M14.9717 30.0404V21.0133C14.9717 19.3549 16.3161 18.0105 17.9744 18.0105C17.9755 18.0105 17.9765 18.0105 17.9775 18.0105C19.6381 18.0122 20.9834 19.3589 20.9834 21.0195V25.0231" stroke="black" stroke-width="4" stroke-linecap="round"/>
<path d="M20.9834 24.0086V7.01573C20.9834 5.35032 22.3335 4.00024 23.9989 4.00024C25.6643 4.00024 27.0144 5.35032 27.0144 7.01573V24.0086" stroke="black" stroke-width="4" stroke-linecap="round" stroke-linejoin="round"/>
<path d="M26.9907 23.716V21.0037C26.9907 19.3468 28.3339 18.0037 29.9907 18.0037C31.6476 18.0037 32.9907 19.3468 32.9907 21.0037V24.0037" stroke="black" stroke-width="4" stroke-linecap="round" stroke-linejoin="round"/>
</svg>
