<svg width="48" height="48" viewBox="0 0 48 48" fill="none" xmlns="http://www.w3.org/2000/svg">
<path d="M15.1138 24.9465C12.7115 27.692 12.2869 31.0331 12.4644 33.3565C12.5487 34.4609 13.6689 35.0698 14.6977 34.6591C15.4421 34.362 16.2574 33.9914 16.8445 33.6C18.5752 32.4462 17.9983 31.2924 18.5752 29.5617C19.1521 27.831 21.6924 26.4231 24 27C26.3076 27.5769 27.2286 29.5617 27.2286 31.2924C27.2286 33.0231 26.5 35 24.3442 35.9076C21.9663 36.9086 20.8828 35.9076 17.9983 35.3307C16.4951 35.03 14.992 36.3449 14.1267 37.2983C13.6367 37.8381 13.5842 38.6236 14.0092 39.2159C14.2979 39.6181 14.6703 40.0793 15.1138 40.5228C16.2676 41.6766 20.8828 45.138 25.498 44.5611C30.1131 43.9842 34.1514 40.5228 35.8821 36.4845C37.6128 32.4462 36.459 27.831 33.5745 24.3696C30.69 20.9082 25.498 20.3313 24.3442 20.3313C23.1904 20.3313 19.1521 20.3313 15.1138 24.9465Z" stroke="black" stroke-width="4" stroke-linecap="round" stroke-linejoin="round"/>
<path d="M31.5623 22.6388L12.6433 8.17124C12.2451 7.86678 11.6761 7.90022 11.3792 8.30403C10.6663 9.27373 9.9929 10.8112 11.0755 12.2546C12.46 14.1007 17.8059 18.7928 20.3057 20.9081" stroke="black" stroke-width="4" stroke-linecap="round" stroke-linejoin="round"/>
<path d="M35.0005 26L23.1413 4.19836C22.902 3.7583 22.3691 3.55685 21.9334 3.80414C20.8867 4.39833 19.644 5.52714 20.0432 7.28699C20.5537 9.53741 22.5817 13.5486 24.0005 16.5" stroke="black" stroke-width="4" stroke-linecap="round" stroke-linejoin="round"/>
<path d="M36 28L35.0503 7.69221C35.0269 7.19215 34.6358 6.77854 34.1362 6.81046C32.935 6.88721 31.3232 7.35913 30.913 9.11686C30.3885 11.3641 30.0139 14.7253 30 18" stroke="black" stroke-width="4" stroke-linecap="round" stroke-linejoin="round"/>
</svg>
