<svg width="48" height="48" viewBox="0 0 48 48" fill="none" xmlns="http://www.w3.org/2000/svg">
<path d="M5.00063 25C8.00129 30 13.5 38.25 19 41C24.5 43.75 30.4999 44 36 41C39.6023 39.0351 41.9179 36.2122 43.0869 34.4982C43.7376 33.5441 44.0004 32.3988 44.0004 31.2439V22.5C44.0004 20.567 42.4334 19 40.5004 19V19C38.5674 19 37.0004 20.5672 37.0004 22.5002C37.0004 22.6863 37.0004 22.8557 37.0004 23C37.0004 24.9871 37.0004 20.8056 37.0004 17.4985C37.0004 15.5655 35.4334 14 33.5004 14V14C31.5674 14 30.0004 15.567 30.0004 17.5V22V16C30.0004 14.067 28.4334 12.5 26.5004 12.5V12.5C24.5674 12.5 23.0004 14.067 23.0004 16V20V7.50001C23.0004 5.56701 21.4334 4 19.5004 4V4C17.5674 4 16.0004 5.56701 16.0004 7.50001V23C16.0004 23 15.6876 22.6875 12.0004 19C8.3132 15.3125 1.99996 20 5.00063 25Z" stroke="black" stroke-width="4" stroke-linecap="round" stroke-linejoin="round"/>
</svg>
