<svg width="48" height="48" viewBox="0 0 48 48" fill="none" xmlns="http://www.w3.org/2000/svg">
<path d="M5.00014 25C8.0008 30 13.4995 38.25 18.9995 41C24.4995 43.75 30.4994 44 35.9995 41C39.1111 39.3028 41.2626 36.6453 42.5445 34.6573C43.6297 32.9743 43.9999 30.9689 43.9999 28.9663V7.5C43.9999 5.567 42.4329 4 40.4999 4V4C38.5669 4 36.9999 5.567 36.9999 7.5V23V17.5C36.9999 15.567 35.4329 14 33.4999 14V14C31.5669 14 29.9999 15.567 29.9999 17.5V22V16C29.9999 14.067 28.4329 12.5 26.4999 12.5V12.5C24.5669 12.5 22.9999 14.067 22.9999 16V20V17.5C22.9999 15.567 21.4329 14 19.4999 14V14C17.5669 14 15.9999 15.567 15.9999 17.5V23C15.9999 23 15.6871 22.6875 11.9999 19C8.31271 15.3125 1.99947 20 5.00014 25Z" stroke="black" stroke-width="4" stroke-linecap="round" stroke-linejoin="round"/>
</svg>
