<svg width="48" height="48" viewBox="0 0 48 48" fill="none" xmlns="http://www.w3.org/2000/svg">
<g clip-path="url(#clip0_27_130776)">
<path d="M7.99975 17C7.99899 26 8.00079 32.5 9.99985 36C12.4782 40.3393 17.3408 43 21.9999 43C26.1434 43 28.1666 40.9398 28.7382 40.2339C28.8614 40.0817 28.9612 39.9151 29.0588 39.7452L38.2279 23.7832C38.921 22.5768 38.5066 21.037 37.3016 20.3413V20.3413C36.0948 19.6446 34.5517 20.058 33.8549 21.2648L28.9124 29.8255L35.4073 18.576C36.1033 17.3705 35.6903 15.8291 34.4848 15.1331V15.1331C33.2793 14.4371 31.7378 14.8501 31.0418 16.0556L24.9347 26.6335L31.4296 15.384C32.1256 14.1785 31.7125 12.637 30.507 11.941V11.941C29.3015 11.245 27.7601 11.6581 27.0641 12.8636L21.1508 23.1057L26.6763 13.5352C27.3723 12.3297 26.9593 10.7882 25.7538 10.0922V10.0922C24.5483 9.39624 23.0068 9.80927 22.3109 11.0148L15.8159 22.2643C15.8159 22.2643 15.1072 17.662 13.9993 16C11.9995 13 8.00001 14 7.99975 17Z" stroke="black" stroke-width="4" stroke-linecap="round" stroke-linejoin="round"/>
<path d="M37 5C38.3788 5.73333 40.5055 6.75828 42 9C43 10.5 43.5 12.5 43.7908 15" stroke="black" stroke-width="4" stroke-linecap="round" stroke-linejoin="round"/>
</g>
<defs>
<clipPath id="clip0_27_130776">
<rect width="48" height="48" fill="white"/>
</clipPath>
</defs>
</svg>
