<svg width="48" height="48" viewBox="0 0 48 48" fill="none" xmlns="http://www.w3.org/2000/svg">
<path d="M12.5658 27.1827C10.8553 28.3545 10 30.2937 10 33.0004C10 37.0605 14.9753 44.0004 19.4618 44.0004C23.9483 44.0004 26.5502 44.0004 30.9415 44.0004C35.3328 44.0004 38 40.1498 38 37.0605C38 32.7102 38 28.3599 38 24.0095C38 22.3527 36.6569 21.0095 35 21.0095H34.9909C33.3391 21.0095 32 22.3486 32 24.0004" stroke="black" stroke-width="4" stroke-linecap="round"/>
<path d="M13.981 29.4454V11.0061C13.981 9.3506 15.323 8.00854 16.9785 8.00854C16.9813 8.00854 16.9841 8.00855 16.9868 8.00856C18.6482 8.01315 19.9927 9.3613 19.9927 11.0227V24.5922" stroke="black" stroke-width="4" stroke-linecap="round"/>
<path d="M19.9927 24.0086V7.01573C19.9927 5.35032 21.3428 4.00024 23.0082 4.00024C24.6736 4.00024 26.0236 5.35032 26.0236 7.01573V24.0086" stroke="black" stroke-width="4" stroke-linecap="round" stroke-linejoin="round"/>
<path d="M26 23.716V21.0037C26 19.3468 27.3431 18.0037 29 18.0037C30.6569 18.0037 32 19.3468 32 21.0037V24.0037" stroke="black" stroke-width="4" stroke-linecap="round" stroke-linejoin="round"/>
</svg>
