<svg width="48" height="48" viewBox="0 0 48 48" fill="none" xmlns="http://www.w3.org/2000/svg">
<path d="M16 42C21 44.5 27.2639 44.7064 32 42C37.2872 38.9788 39.1514 35.387 39.7471 33.8102C39.9472 33.2807 40 32.7149 40 32.1489V21.5C40 19.567 38.433 18 36.5 18V18C34.567 18 33 19.567 33 21.5L33 24L33 19.0534C33 16.8148 31.1852 15 28.9466 15V15C27.728 15 26.7077 15.9234 26.5864 17.136L26 23L27.6252 6.74756C27.8259 4.74108 26.2502 3 24.2338 3V3C22.421 3 20.9253 4.41897 20.8301 6.22926L20 22L18.3365 7.02835C18.1449 5.3043 16.6877 4 14.953 4V4C12.8717 4 11.2777 5.85103 11.5864 7.90928L13.8732 23.1548C13.9462 23.641 13.6561 24.1089 13.1956 24.2812C11.3562 24.9696 7 26.8769 7 29.5C7 34 11 39.5 16 42Z" stroke="black" stroke-width="4" stroke-linecap="round" stroke-linejoin="round"/>
</svg>
