<svg width="48" height="48" viewBox="0 0 48 48" fill="none" xmlns="http://www.w3.org/2000/svg">
<g clip-path="url(#clip0_27_132027)">
<path d="M24 44C35.0457 44 44 35.0457 44 24C44 12.9543 35.0457 4 24 4C12.9543 4 4 12.9543 4 24C4 35.0457 12.9543 44 24 44Z" stroke="black" stroke-width="4" stroke-linecap="round" stroke-linejoin="round"/>
<path d="M30.0931 6.5L24.0698 10.859V15.2179L31.814 21.3205L36.1163 19.5769L38.6977 12.6026" stroke="black" stroke-width="4" stroke-linecap="round" stroke-linejoin="round"/>
<path d="M18.0465 6.5L24.0698 10.859V15.2179L16.3256 21.3205L12.0233 19.5769L9.44189 12.6026" stroke="black" stroke-width="4" stroke-linecap="round" stroke-linejoin="round"/>
<path d="M6 22.1923L12.0233 19.5769L16.3256 21.3205L18.907 30.9102L16.3256 34.3974H8.5814" stroke="black" stroke-width="4" stroke-linecap="round" stroke-linejoin="round"/>
<path d="M16.3256 40.4999V34.3973L18.907 30.9102H29.2325L31.8139 34.3973V40.4999" stroke="black" stroke-width="4" stroke-linecap="round" stroke-linejoin="round"/>
<path d="M39.5581 34.3974H31.8139L29.2325 30.9102L31.8139 21.3205L36.1163 19.5769L43 23.0641" stroke="black" stroke-width="4" stroke-linecap="round" stroke-linejoin="round"/>
</g>
<defs>
<clipPath id="clip0_27_132027">
<rect width="48" height="48" fill="white"/>
</clipPath>
</defs>
</svg>
