<svg width="48" height="48" viewBox="0 0 48 48" fill="none" xmlns="http://www.w3.org/2000/svg">
<g clip-path="url(#clip0_27_130829)">
<path d="M14.613 4.84251L9.92369 9.53175C8.62879 10.8266 8.62879 12.9261 9.92369 14.221C11.2186 15.5159 13.3181 15.5159 14.613 14.221L19.3022 9.53175C20.5971 8.23685 20.5971 6.13741 19.3022 4.84251C18.0073 3.54761 15.9078 3.54762 14.613 4.84251Z" stroke="black" stroke-width="4"/>
<path d="M24.773 13.4397L18.5206 19.692C17.2257 20.9869 17.2257 23.0863 18.5206 24.3812C19.8155 25.6761 21.915 25.6761 23.2099 24.3812L29.4622 18.1289C30.7571 16.834 30.7571 14.7346 29.4622 13.4397C28.1673 12.1448 26.0679 12.1448 24.773 13.4397Z" stroke="black" stroke-width="4"/>
<path d="M28.6807 18.9104L42.4507 32.6803C43.4784 33.708 43.2618 35.5909 41.9669 36.8857C40.672 38.1806 38.7891 38.3973 37.7614 37.3696L23.9915 23.5996" stroke="black" stroke-width="4"/>
<path d="M22.4284 6.40575L11.4868 17.3473C10.1919 18.6422 10.1919 20.7416 11.4868 22.0365C12.7817 23.3314 14.8812 23.3314 16.1761 22.0365L27.1176 11.0949C28.4125 9.80009 28.4125 7.70065 27.1176 6.40575C25.8227 5.11085 23.7233 5.11085 22.4284 6.40575Z" stroke="black" stroke-width="4"/>
<path d="M13.8545 23.1421C15.2781 27.5788 15.041 30.8568 13.1434 32.976C10.2969 36.1547 10.7396 44.1421 17.1705 44.1421C23.6014 44.1421 25.4904 36.1547 20.0426 33.3527" stroke="black" stroke-width="4" stroke-linecap="round"/>
</g>
<defs>
<clipPath id="clip0_27_130829">
<rect width="48" height="48" fill="white"/>
</clipPath>
</defs>
</svg>
