<svg width="48" height="48" viewBox="0 0 48 48" fill="none" xmlns="http://www.w3.org/2000/svg">
<g clip-path="url(#clip0_27_132154)">
<path d="M9.85786 32.7573C6.23858 33.8431 4 35.3431 4 36.9999C4 40.3136 12.9543 42.9999 24 42.9999C35.0457 42.9999 44 40.3136 44 36.9999C44 35.3431 41.7614 33.8431 38.1421 32.7573" stroke="black" stroke-width="4" stroke-linecap="round" stroke-linejoin="round"/>
<path d="M24 35C24 35 37 26.504 37 16.6818C37 9.67784 31.1797 4 24 4C16.8203 4 11 9.67784 11 16.6818C11 26.504 24 35 24 35Z" stroke="black" stroke-width="4" stroke-linejoin="round"/>
<path d="M24 22C26.7614 22 29 19.7614 29 17C29 14.2386 26.7614 12 24 12C21.2386 12 19 14.2386 19 17C19 19.7614 21.2386 22 24 22Z" stroke="black" stroke-width="4" stroke-linejoin="round"/>
</g>
<defs>
<clipPath id="clip0_27_132154">
<rect width="48" height="48" fill="white"/>
</clipPath>
</defs>
</svg>
