<svg width="48" height="48" viewBox="0 0 48 48" fill="none" xmlns="http://www.w3.org/2000/svg">
<g clip-path="url(#clip0_27_131184)">
<path d="M23.0352 21.035L31 13.0702M23.0352 21.035C23.0352 21.035 22.3137 12.6863 27 8.00001C31.6863 3.31372 40.0058 4.03509 40.0058 4.03509C40.0058 4.03509 40.6863 12.3137 36 17C31.3137 21.6863 23.0352 21.035 23.0352 21.035Z" stroke="black" stroke-width="4" stroke-linecap="round" stroke-linejoin="round"/>
<path d="M22.971 31.9711L15.9999 25M22.971 31.9711C22.971 31.9711 23.849 24.8434 19.9999 21C16.1508 17.1566 9.03214 18.0289 9.03214 18.0289C9.03214 18.0289 8.15082 25.1566 11.9999 29C15.849 32.8434 22.971 31.9711 22.971 31.9711Z" stroke="black" stroke-width="4" stroke-linecap="round" stroke-linejoin="round"/>
<path d="M23 4V44" stroke="black" stroke-width="4" stroke-linecap="round" stroke-linejoin="round"/>
</g>
<defs>
<clipPath id="clip0_27_131184">
<rect width="48" height="48" fill="white"/>
</clipPath>
</defs>
</svg>
