<svg width="48" height="48" viewBox="0 0 48 48" fill="none" xmlns="http://www.w3.org/2000/svg">
<g clip-path="url(#clip0_27_132292)">
<path d="M38.1421 38.1421C41.7614 34.5228 44 29.5228 44 23.9999C44 18.4771 41.7614 13.4771 38.1421 9.85779" stroke="black" stroke-width="4" stroke-linecap="round"/>
<path d="M9.85786 9.85779C6.23858 13.4771 4 18.4771 4 23.9999C4 29.5228 6.23858 34.5228 9.85786 38.1421" stroke="black" stroke-width="4" stroke-linecap="round"/>
<path d="M15.1005 14.1005C12.567 16.634 11 20.134 11 24C11 27.866 12.567 31.366 15.1005 33.8995" stroke="black" stroke-width="4" stroke-linecap="round"/>
<path d="M32.8995 33.8995C35.433 31.366 37 27.866 37 24C37 20.134 35.433 16.634 32.8995 14.1005" stroke="black" stroke-width="4" stroke-linecap="round"/>
<path d="M24 43.9999V33.9999" stroke="black" stroke-width="4" stroke-linecap="round" stroke-linejoin="round"/>
<path d="M24 3.99988V13.9999" stroke="black" stroke-width="4" stroke-linecap="round" stroke-linejoin="round"/>
<path d="M24 26.9999C25.6569 26.9999 27 25.6567 27 23.9999C27 22.343 25.6569 20.9999 24 20.9999C22.3431 20.9999 21 22.343 21 23.9999C21 25.6567 22.3431 26.9999 24 26.9999Z" fill="black"/>
</g>
<defs>
<clipPath id="clip0_27_132292">
<rect width="48" height="48" fill="white"/>
</clipPath>
</defs>
</svg>
